<?xml version="1.0" encoding="UTF-8"?>
<!DOCTYPE svg PUBLIC "-//W3C//DTD SVG 1.1//EN" "http://www.w3.org/Graphics/SVG/1.1/DTD/svg11.dtd">
<svg xmlns="http://www.w3.org/2000/svg" version="1.1" width="256px" height="256px" style="shape-rendering:geometricPrecision; text-rendering:geometricPrecision; image-rendering:optimizeQuality; fill-rule:evenodd; clip-rule:evenodd" xmlns:xlink="http://www.w3.org/1999/xlink">
<g><path style="opacity:0.999" fill="#d0acf5" d="M 14.5,-0.5 C 89.8333,-0.5 165.167,-0.5 240.5,-0.5C 247.414,2.07924 252.414,6.74591 255.5,13.5C 255.5,89.5 255.5,165.5 255.5,241.5C 252.475,247.859 247.808,252.525 241.5,255.5C 165.5,255.5 89.5,255.5 13.5,255.5C 7.19201,252.525 2.52535,247.859 -0.5,241.5C -0.5,165.5 -0.5,89.5 -0.5,13.5C 2.58628,6.74591 7.58628,2.07924 14.5,-0.5 Z"/></g>
<g><path style="opacity:1" fill="#fbf9fd" d="M 65.5,56.5 C 76.5637,56.0939 87.5637,56.5939 98.5,58C 110.693,74.0257 122.693,90.1924 134.5,106.5C 140.449,102.054 145.949,97.054 151,91.5C 160.798,80.034 170.964,68.8673 181.5,58C 185.833,57.3333 190.167,57.3333 194.5,58C 177.352,77.3161 160.018,96.4827 142.5,115.5C 160.755,141.256 179.589,166.59 199,191.5C 200.559,193.217 201.392,195.217 201.5,197.5C 190.828,198.013 180.161,198.68 169.5,199.5C 160.776,200.622 153.943,197.622 149,190.5C 140.196,174.052 129.529,159.052 117,145.5C 112.163,147.331 108.163,150.331 105,154.5C 92.5,168.333 80,182.167 67.5,196C 62.6178,197.555 57.6178,197.888 52.5,197C 71.1328,176.298 90.1328,155.798 109.5,135.5C 92.9642,111.129 75.4642,87.4627 57,64.5C 55.9605,62.2537 54.7938,60.087 53.5,58C 57.6877,57.8238 61.6877,57.3238 65.5,56.5 Z"/></g>
<g><path style="opacity:1" fill="#d0aff4" d="M 81.5,64.5 C 87.8161,63.5762 92.9828,65.5762 97,70.5C 122.896,107.063 149.562,143.063 177,178.5C 178.973,181.617 180.807,184.784 182.5,188C 176.224,189.424 169.891,189.758 163.5,189C 161.714,188.215 160.214,187.049 159,185.5C 132.437,148.269 105.104,111.602 77,75.5C 75.6274,72.5875 74.1274,69.7542 72.5,67C 75.5787,66.0272 78.5787,65.1939 81.5,64.5 Z"/></g>
</svg>
