<?xml version="1.0" encoding="UTF-8"?>
<svg version="1.1" xmlns="http://www.w3.org/2000/svg" width="124" height="124">
<path d="M0 0 C1.31291016 0.54333984 1.31291016 0.54333984 2.65234375 1.09765625 C16.9297731 7.58739686 28.15061746 19.50974329 34.2265625 33.90625 C39.89058289 49.0646355 40.50749332 67.0007613 34 82 C33.63777344 82.87527344 33.27554688 83.75054687 32.90234375 84.65234375 C26.41260314 98.9297731 14.49025671 110.15061746 0.09375 116.2265625 C-15.0646355 121.89058289 -33.0007613 122.50749332 -48 116 C-48.87527344 115.63777344 -49.75054687 115.27554688 -50.65234375 114.90234375 C-64.9297731 108.41260314 -76.15061746 96.49025671 -82.2265625 82.09375 C-87.89058289 66.9353645 -88.50749332 48.9992387 -82 34 C-81.45666016 32.68708984 -81.45666016 32.68708984 -80.90234375 31.34765625 C-74.41260314 17.0702269 -62.49025671 5.84938254 -48.09375 -0.2265625 C-32.9353645 -5.89058289 -14.9992387 -6.50749332 0 0 Z " fill="#D0ACF5" transform="translate(86,4)"/>
<path d="M0 0 C3.70751367 -0.20427691 7.41357472 -0.32794588 11.125 -0.4375 C12.17171875 -0.49615234 13.2184375 -0.55480469 14.296875 -0.61523438 C21.8743006 -0.78308874 21.8743006 -0.78308874 24.83935547 1.27954102 C26.41765507 3.09769822 27.69608373 4.97673853 29 7 C30.13286427 8.45215618 31.27653029 9.89593674 32.4296875 11.33203125 C33.5802714 12.82386788 34.72869359 14.31737411 35.875 15.8125 C36.46796875 16.57498047 37.0609375 17.33746094 37.671875 18.12304688 C38.23132812 18.85201172 38.79078125 19.58097656 39.3671875 20.33203125 C39.87362793 20.98921143 40.38006836 21.6463916 40.90185547 22.32348633 C42 24 42 24 42 26 C48.94533277 20.4566754 54.82933601 13.94660353 60.828125 7.42578125 C61.37952148 6.83071777 61.93091797 6.2356543 62.49902344 5.62255859 C63.74608363 4.27448409 64.98365202 2.91763642 66.21875 1.55859375 C68 0 68 0 71.25 -0.25 C72.61125 -0.12625 72.61125 -0.12625 74 0 C72.45872649 3.71268094 70.19156766 5.98115698 67.3125 8.75 C62.97530823 12.9999494 58.93686544 17.38246156 55 22 C53.68932757 23.50159716 52.37686003 25.00162957 51.0625 26.5 C50.47597656 27.1703125 49.88945313 27.840625 49.28515625 28.53125 C48.86105469 29.0159375 48.43695313 29.500625 48 30 C49.31231816 33.65862057 50.89389437 36.45359409 53.2734375 39.51953125 C53.92828125 40.36990967 54.583125 41.22028809 55.2578125 42.09643555 C55.95648438 42.99273682 56.65515625 43.88903809 57.375 44.8125 C58.82067984 46.68982134 60.26598826 48.56742876 61.7109375 50.4453125 C62.43120117 51.37762695 63.15146484 52.30994141 63.89355469 53.27050781 C66.94810342 57.22853457 69.98236969 61.20127626 73 65.1875 C73.50966309 65.85177002 74.01932617 66.51604004 74.54443359 67.20043945 C78 71.77091959 78 71.77091959 78 74 C57.83549808 75.78812091 57.83549808 75.78812091 51.78515625 71.97265625 C49.50857306 69.10325573 47.76772761 66.20594459 46 63 C44.44026827 60.80285265 42.7799789 58.68834325 41.125 56.5625 C39.74828355 54.70960744 38.37308044 52.85558862 37 51 C36.00106585 49.66586795 35.00151107 48.33219869 34 47 C27.95451762 49.71322303 23.91786147 54.90210393 19.625 59.8125 C19.05007812 60.46863281 18.47515625 61.12476563 17.8828125 61.80078125 C16.49586466 63.42080538 15.14098532 65.06841862 13.8046875 66.73046875 C8.00351586 73.70170721 8.00351586 73.70170721 4.87109375 74.6328125 C2.9375 74.625 2.9375 74.625 0 74 C3.06710283 68.70227693 7.12246575 64.78039226 11.48046875 60.51171875 C14.21349159 57.7871704 16.75223616 54.95607164 19.26171875 52.02734375 C21.2921605 49.65925551 23.36263267 47.32922935 25.4375 45 C26.62500921 43.66667487 27.81251077 42.33334293 29 41 C24.65921262 34.27193338 19.95868603 27.89465355 15.0625 21.5625 C0 2.05720742 0 2.05720742 0 0 Z " fill="#FCFAFE" transform="translate(25,27)"/>
<path d="M0 0 C3.81046571 -0.58525192 7.20227575 -0.74084992 11 0 C14.36838025 2.56642084 16.48364147 5.80826146 18.8125 9.3125 C19.48990234 10.26511719 20.16730469 11.21773437 20.86523438 12.19921875 C22.26245874 14.1665524 23.6454502 16.14407046 25.01416016 18.13134766 C27.91651564 22.32395608 30.95978721 26.40696955 34 30.5 C35.12901952 32.04158371 36.2579242 33.58325155 37.38671875 35.125 C42.13527579 41.57165486 47.02753288 47.91054376 51.93554688 54.23632812 C52.58201172 55.07615234 53.22847656 55.91597656 53.89453125 56.78125 C54.47050049 57.52439453 55.04646973 58.26753906 55.63989258 59.03320312 C57 61 57 61 58 64 C54.18953429 64.58525192 50.79772425 64.74084992 47 64 C43.63161975 61.43357916 41.51635853 58.19173854 39.1875 54.6875 C38.51009766 53.73488281 37.83269531 52.78226563 37.13476562 51.80078125 C35.73754126 49.8334476 34.3545498 47.85592954 32.98583984 45.86865234 C30.08348436 41.67604392 27.04021279 37.59303045 24 33.5 C22.87098048 31.95841629 21.7420758 30.41674845 20.61328125 28.875 C15.86472421 22.42834514 10.97246712 16.08945624 6.06445312 9.76367188 C5.09475586 8.50393555 5.09475586 8.50393555 4.10546875 7.21875 C3.52949951 6.47560547 2.95353027 5.73246094 2.36010742 4.96679688 C1 3 1 3 0 0 Z " fill="#D0AEF5" transform="translate(35,32)"/>
</svg>
