<?xml version="1.0" encoding="UTF-8"?>
<!DOCTYPE svg PUBLIC "-//W3C//DTD SVG 1.1//EN" "http://www.w3.org/Graphics/SVG/1.1/DTD/svg11.dtd">
<svg xmlns="http://www.w3.org/2000/svg" version="1.1" width="500px" height="500px" style="shape-rendering:geometricPrecision; text-rendering:geometricPrecision; image-rendering:optimizeQuality; fill-rule:evenodd; clip-rule:evenodd" xmlns:xlink="http://www.w3.org/1999/xlink">
<g><path style="opacity:1" fill="#c99eec" d="M -0.5,-0.5 C 166.167,-0.5 332.833,-0.5 499.5,-0.5C 499.5,166.167 499.5,332.833 499.5,499.5C 332.833,499.5 166.167,499.5 -0.5,499.5C -0.5,332.833 -0.5,166.167 -0.5,-0.5 Z"/></g>
<g><path style="opacity:1" fill="#f7f0fd" d="M 289.5,72.5 C 291.515,73.9238 293.848,74.5905 296.5,74.5C 307.17,77.7217 317.503,81.7217 327.5,86.5C 324.643,87.4054 321.81,87.0721 319,85.5C 311.537,86.6169 304.037,86.7835 296.5,86C 295.556,83.2809 295.223,80.4475 295.5,77.5C 293.181,78.167 290.847,78.3336 288.5,78C 289.28,76.927 289.113,75.7604 288,74.5C 287.432,77.6903 285.599,79.357 282.5,79.5C 278.784,79.0174 275.118,78.3507 271.5,77.5C 270.071,78.935 268.405,79.935 266.5,80.5C 264.952,78.6236 262.952,77.6236 260.5,77.5C 260.5,76.1667 260.5,74.8333 260.5,73.5C 259.022,73.762 257.689,73.4287 256.5,72.5C 256.709,71.914 257.043,71.414 257.5,71C 254.518,70.502 251.518,70.3354 248.5,70.5C 249.449,72.7373 250.116,75.0706 250.5,77.5C 247.5,77.5 244.5,77.5 241.5,77.5C 241.443,72.3183 240.776,72.3183 239.5,77.5C 236.144,72.8372 232.144,72.3372 227.5,76C 227.833,76.3333 228.167,76.6667 228.5,77C 225.025,77.4468 221.691,78.2801 218.5,79.5C 218.357,81.2624 218.691,82.9291 219.5,84.5C 218.975,85.1924 218.308,85.6924 217.5,86C 210.174,86.4997 202.841,86.6663 195.5,86.5C 195.5,88.8333 195.5,91.1667 195.5,93.5C 191.486,93.6655 187.486,93.4988 183.5,93C 182.929,91.7949 182.262,90.6283 181.5,89.5C 181.168,90.7886 180.834,92.4553 180.5,94.5C 175.664,93.8439 170.831,93.5105 166,93.5C 163.033,94.3765 163.033,95.7099 166,97.5C 166.388,96.572 167.055,95.9054 168,95.5C 169.44,96.1476 170.94,96.4809 172.5,96.5C 172.714,98.1439 172.38,99.6439 171.5,101C 167.911,101.037 164.578,101.87 161.5,103.5C 159.368,101.883 157.035,101.383 154.5,102C 156.291,104.106 156.958,106.606 156.5,109.5C 150.073,107.762 147.406,110.095 148.5,116.5C 144.5,116.5 140.5,116.5 136.5,116.5C 136.817,119.572 136.484,122.572 135.5,125.5C 133.889,126.32 133.222,127.654 133.5,129.5C 137.5,129.833 137.5,130.167 133.5,130.5C 133.5,131.5 133.5,132.5 133.5,133.5C 132.5,133.5 131.5,133.5 130.5,133.5C 130.847,126.505 130.514,123.838 129.5,125.5C 128.167,125.5 126.833,125.5 125.5,125.5C 125.5,126.5 125.5,127.5 125.5,128.5C 129.327,128.44 129.994,129.607 127.5,132C 126.391,132.638 125.225,133.138 124,133.5C 121.721,133.45 119.388,133.117 117,132.5C 116.308,133.025 115.808,133.692 115.5,134.5C 116.465,141.776 116.799,149.109 116.5,156.5C 111.833,156.5 107.167,156.5 102.5,156.5C 101.823,160.375 99.9896,163.708 97,166.5C 96.6667,165.833 96.3333,165.167 96,164.5C 95.6824,166.061 94.8491,167.228 93.5,168C 94.8602,169.938 94.5268,171.604 92.5,173C 94.3959,174.808 94.8959,176.975 94,179.5C 92.3476,180.217 90.8476,180.55 89.5,180.5C 90.5617,183.103 90.7284,185.77 90,188.5C 89,187.167 88,185.833 87,184.5C 86.5014,188.152 86.3347,191.818 86.5,195.5C 84.1667,195.5 81.8333,195.5 79.5,195.5C 79.3433,196.873 79.51,198.207 80,199.5C 82,198.167 84,198.167 86,199.5C 86.6667,202.833 86.6667,206.167 86,209.5C 85.586,209.957 85.086,210.291 84.5,210.5C 84.4669,209.011 83.9669,207.678 83,206.5C 82.758,208.138 81.9247,209.638 80.5,211C 79.552,211.483 78.552,211.649 77.5,211.5C 77.3138,215.795 78.3138,219.795 80.5,223.5C 80.1243,225.383 79.1243,226.883 77.5,228C 80.2072,229.199 80.8739,231.033 79.5,233.5C 76.9135,234.48 74.2469,234.813 71.5,234.5C 71.5,235.5 71.5,236.5 71.5,237.5C 73.5,237.5 75.5,237.5 77.5,237.5C 77.5,239.5 77.5,241.5 77.5,243.5C 75.0582,243.119 74.3915,243.786 75.5,245.5C 74.1667,246.167 72.8333,246.833 71.5,247.5C 72.9501,248.85 73.6168,250.516 73.5,252.5C 74.8333,252.5 76.1667,252.5 77.5,252.5C 77.5,254.5 77.5,256.5 77.5,258.5C 74.2699,258.439 72.4365,256.772 72,253.5C 71.6667,256.5 71.3333,259.5 71,262.5C 70.79,260.942 70.29,259.609 69.5,258.5C 69.5,250.167 69.5,241.833 69.5,233.5C 69.3273,227.064 69.9939,220.731 71.5,214.5C 72.9238,212.485 73.5905,210.152 73.5,207.5C 75.7622,196.771 79.0956,186.438 83.5,176.5C 84.9063,176.027 85.573,175.027 85.5,173.5C 93.016,155.982 103.349,140.316 116.5,126.5C 119.167,125.833 120.833,124.167 121.5,121.5C 168.721,76.2824 224.721,59.9491 289.5,72.5 Z"/></g>
<g><path style="opacity:1" fill="#f9f3fd" d="M 327.5,86.5 C 326.653,87.9663 325.32,88.7996 323.5,89C 325.904,89.5079 326.571,90.6745 325.5,92.5C 328.683,94.5067 332.016,95.0067 335.5,94C 334.366,95.016 334.699,95.6827 336.5,96C 335.833,96.6667 335.167,97.3333 334.5,98C 337.974,98.5883 340.474,100.422 342,103.5C 343.009,102.342 344.342,101.675 346,101.5C 347.872,102.035 349.538,102.035 351,101.5C 350.443,103.841 350.61,106.174 351.5,108.5C 352.192,109.025 352.692,109.692 353,110.5C 354,109.167 355,109.167 356,110.5C 356.333,109.5 356.667,108.5 357,107.5C 358.871,110.461 359.371,113.461 358.5,116.5C 360.792,116.756 362.959,116.423 365,115.5C 365.495,117.473 365.662,119.473 365.5,121.5C 367.124,121.64 368.29,120.973 369,119.5C 369.494,121.134 369.66,122.801 369.5,124.5C 370.833,124.5 372.167,124.5 373.5,124.5C 373.5,126.167 373.5,127.833 373.5,129.5C 375.167,129.5 376.833,129.5 378.5,129.5C 378.238,130.978 378.571,132.311 379.5,133.5C 380.895,132.185 381.895,132.519 382.5,134.5C 381.017,137.411 381.35,140.078 383.5,142.5C 383.489,141.559 383.989,140.892 385,140.5C 386.011,140.892 386.511,141.559 386.5,142.5C 388.017,141.089 389.351,141.256 390.5,143C 389.533,147.401 389.2,151.901 389.5,156.5C 391.92,156.708 394.253,156.374 396.5,155.5C 399.035,158.042 399.035,160.542 396.5,163C 398.541,164.741 400.708,164.908 403,163.5C 404.452,166.014 405.618,168.68 406.5,171.5C 408.333,173.167 410.167,174.833 412,176.5C 412.333,176.167 412.667,175.833 413,175.5C 412.58,182.224 412.413,188.89 412.5,195.5C 413.5,195.5 414.5,195.5 415.5,195.5C 415.351,194.448 415.517,193.448 416,192.5C 417.101,194.936 418.601,197.103 420.5,199C 419.692,199.308 419.025,199.808 418.5,200.5C 421.624,206.855 422.29,213.521 420.5,220.5C 419.325,220.281 418.325,220.614 417.5,221.5C 418.391,222.59 419.391,222.59 420.5,221.5C 421.308,223.423 421.808,225.423 422,227.5C 422.308,226.692 422.808,226.025 423.5,225.5C 424.846,230.551 426.346,235.551 428,240.5C 428.333,239.167 428.667,237.833 429,236.5C 429.173,242.348 429.673,248.015 430.5,253.5C 430.5,255.5 430.5,257.5 430.5,259.5C 429.105,263.591 428.438,267.924 428.5,272.5C 426.612,290.277 421.946,307.277 414.5,323.5C 412.799,323.966 411.299,323.966 410,323.5C 409.411,325.863 407.911,326.863 405.5,326.5C 405.36,328.124 406.027,329.29 407.5,330C 406.833,331.333 405.833,332.333 404.5,333C 405.956,333.423 406.456,334.256 406,335.5C 404.984,334.366 404.317,334.699 404,336.5C 401.637,334.093 399.137,333.926 396.5,336C 396.616,337.268 396.949,338.602 397.5,340C 394.999,341.418 395.332,342.418 398.5,343C 397.726,345.405 397.226,347.905 397,350.5C 394.302,350.901 391.135,351.068 387.5,351C 388.167,352.333 389.167,353.333 390.5,354C 389.91,355.509 389.244,357.009 388.5,358.5C 386.765,357.943 385.098,357.61 383.5,357.5C 382.682,360.107 382.182,362.774 382,365.5C 379.262,366.482 376.428,367.148 373.5,367.5C 373.5,369.5 373.5,371.5 373.5,373.5C 370.101,373.55 368.768,375.05 369.5,378C 366.354,378.11 365.354,379.443 366.5,382C 365.128,382.402 363.795,382.902 362.5,383.5C 361.264,382.754 359.93,382.421 358.5,382.5C 358.703,384.39 358.037,385.89 356.5,387C 357.449,387.617 358.282,387.451 359,386.5C 359.483,387.448 359.649,388.448 359.5,389.5C 356.784,389.678 354.117,390.178 351.5,391C 351.112,392.525 351.112,394.192 351.5,396C 351,396.5 350.5,397 350,397.5C 344.955,398.257 339.789,398.257 334.5,397.5C 334.244,399.792 334.577,401.959 335.5,404C 334.007,405.368 332.507,405.535 331,404.5C 330.676,406.569 329.842,406.902 328.5,405.5C 327.833,406.833 327.167,408.167 326.5,409.5C 324.105,408.477 323.105,409.477 323.5,412.5C 321.007,412.131 320.34,412.797 321.5,414.5C 316.535,417.592 311.202,420.092 305.5,422C 292.748,425.864 279.748,428.364 266.5,429.5C 256.494,429.666 246.494,429.5 236.5,429C 235.027,428.29 234.36,427.124 234.5,425.5C 231.455,425.296 228.621,425.296 226,425.5C 225.689,424.258 226.189,423.258 227.5,422.5C 222.727,419.932 217.894,419.932 213,422.5C 211.56,419.665 209.727,419.165 207.5,421C 205.5,421.667 203.5,421.667 201.5,421C 197.491,418.636 193.824,415.969 190.5,413C 185.157,412.854 179.824,412.854 174.5,413C 172.955,411.312 171.955,409.312 171.5,407C 170.216,406.316 169.049,406.483 168,407.5C 167.348,405.277 165.848,404.11 163.5,404C 164.423,401.959 164.756,399.792 164.5,397.5C 160.729,397.696 156.896,398.029 153,398.5C 148.978,397.185 147.811,394.685 149.5,391C 146.911,389.343 144.244,389.009 141.5,390C 140.978,387.519 140.978,385.186 141.5,383C 140.975,382.308 140.308,381.808 139.5,381.5C 137.5,382.833 135.5,382.833 133.5,381.5C 132.673,379.838 131.507,378.505 130,377.5C 129.51,376.207 129.343,374.873 129.5,373.5C 128.178,373.33 127.011,373.663 126,374.5C 125.798,372.744 125.298,371.078 124.5,369.5C 123.402,373.361 122.569,373.361 122,369.5C 121.667,370.167 121.333,370.833 121,371.5C 120.674,367.847 118.84,365.347 115.5,364C 116.765,362.663 117.265,361.163 117,359.5C 113.681,358.67 110.847,357.004 108.5,354.5C 109.853,353.476 110.52,352.143 110.5,350.5C 107.278,350.892 104.278,350.392 101.5,349C 101.574,344.623 101.741,340.123 102,335.5C 100.333,334.167 98.6667,334.167 97,335.5C 96.6411,332.456 95.9745,332.122 95,334.5C 93.459,332.523 92.959,330.523 93.5,328.5C 90.4983,327.17 88.9983,324.836 89,321.5C 88.0853,322.328 87.4186,323.328 87,324.5C 86.6667,324.167 86.3333,323.833 86,323.5C 85.535,319.389 86.035,315.389 87.5,311.5C 86.448,311.649 85.448,311.483 84.5,311C 86.229,309.211 86.8957,307.044 86.5,304.5C 83.5832,303.709 80.7499,303.709 78,304.5C 77.7305,301.776 77.2305,299.109 76.5,296.5C 78.9301,290.672 78.9301,284.839 76.5,279C 79.8584,275.928 79.8584,273.094 76.5,270.5C 75.8076,271.025 75.3076,271.692 75,272.5C 74.6667,271.167 74.3333,269.833 74,268.5C 73.6667,268.833 73.3333,269.167 73,269.5C 72.0656,268.142 71.2323,266.808 70.5,265.5C 69.5318,263.393 69.1984,261.059 69.5,258.5C 70.29,259.609 70.79,260.942 71,262.5C 71.3333,259.5 71.6667,256.5 72,253.5C 72.4365,256.772 74.2699,258.439 77.5,258.5C 77.5,256.5 77.5,254.5 77.5,252.5C 76.1667,252.5 74.8333,252.5 73.5,252.5C 73.6168,250.516 72.9501,248.85 71.5,247.5C 72.8333,246.833 74.1667,246.167 75.5,245.5C 74.3915,243.786 75.0582,243.119 77.5,243.5C 77.5,241.5 77.5,239.5 77.5,237.5C 75.5,237.5 73.5,237.5 71.5,237.5C 71.5,236.5 71.5,235.5 71.5,234.5C 74.2469,234.813 76.9135,234.48 79.5,233.5C 80.8739,231.033 80.2072,229.199 77.5,228C 79.1243,226.883 80.1243,225.383 80.5,223.5C 78.3138,219.795 77.3138,215.795 77.5,211.5C 78.552,211.649 79.552,211.483 80.5,211C 81.9247,209.638 82.758,208.138 83,206.5C 83.9669,207.678 84.4669,209.011 84.5,210.5C 85.086,210.291 85.586,209.957 86,209.5C 86.6667,206.167 86.6667,202.833 86,199.5C 84,198.167 82,198.167 80,199.5C 79.51,198.207 79.3433,196.873 79.5,195.5C 81.8333,195.5 84.1667,195.5 86.5,195.5C 86.3347,191.818 86.5014,188.152 87,184.5C 88,185.833 89,187.167 90,188.5C 90.7284,185.77 90.5617,183.103 89.5,180.5C 90.8476,180.55 92.3476,180.217 94,179.5C 94.8959,176.975 94.3959,174.808 92.5,173C 94.5268,171.604 94.8602,169.938 93.5,168C 94.8491,167.228 95.6824,166.061 96,164.5C 96.3333,165.167 96.6667,165.833 97,166.5C 99.9896,163.708 101.823,160.375 102.5,156.5C 107.167,156.5 111.833,156.5 116.5,156.5C 116.799,149.109 116.465,141.776 115.5,134.5C 115.808,133.692 116.308,133.025 117,132.5C 119.388,133.117 121.721,133.45 124,133.5C 125.225,133.138 126.391,132.638 127.5,132C 129.994,129.607 129.327,128.44 125.5,128.5C 125.5,127.5 125.5,126.5 125.5,125.5C 126.833,125.5 128.167,125.5 129.5,125.5C 130.514,123.838 130.847,126.505 130.5,133.5C 131.5,133.5 132.5,133.5 133.5,133.5C 133.5,132.5 133.5,131.5 133.5,130.5C 137.5,130.167 137.5,129.833 133.5,129.5C 133.222,127.654 133.889,126.32 135.5,125.5C 136.484,122.572 136.817,119.572 136.5,116.5C 140.5,116.5 144.5,116.5 148.5,116.5C 147.406,110.095 150.073,107.762 156.5,109.5C 156.958,106.606 156.291,104.106 154.5,102C 157.035,101.383 159.368,101.883 161.5,103.5C 164.578,101.87 167.911,101.037 171.5,101C 172.38,99.6439 172.714,98.1439 172.5,96.5C 170.94,96.4809 169.44,96.1476 168,95.5C 167.055,95.9054 166.388,96.572 166,97.5C 163.033,95.7099 163.033,94.3765 166,93.5C 170.831,93.5105 175.664,93.8439 180.5,94.5C 180.834,92.4553 181.168,90.7886 181.5,89.5C 182.262,90.6283 182.929,91.7949 183.5,93C 187.486,93.4988 191.486,93.6655 195.5,93.5C 195.5,91.1667 195.5,88.8333 195.5,86.5C 202.841,86.6663 210.174,86.4997 217.5,86C 218.308,85.6924 218.975,85.1924 219.5,84.5C 218.691,82.9291 218.357,81.2624 218.5,79.5C 221.691,78.2801 225.025,77.4468 228.5,77C 228.167,76.6667 227.833,76.3333 227.5,76C 232.144,72.3372 236.144,72.8372 239.5,77.5C 240.776,72.3183 241.443,72.3183 241.5,77.5C 244.5,77.5 247.5,77.5 250.5,77.5C 250.116,75.0706 249.449,72.7373 248.5,70.5C 251.518,70.3354 254.518,70.502 257.5,71C 257.043,71.414 256.709,71.914 256.5,72.5C 257.689,73.4287 259.022,73.762 260.5,73.5C 260.5,74.8333 260.5,76.1667 260.5,77.5C 262.952,77.6236 264.952,78.6236 266.5,80.5C 268.405,79.935 270.071,78.935 271.5,77.5C 275.118,78.3507 278.784,79.0174 282.5,79.5C 285.599,79.357 287.432,77.6903 288,74.5C 289.113,75.7604 289.28,76.927 288.5,78C 290.847,78.3336 293.181,78.167 295.5,77.5C 295.223,80.4475 295.556,83.2809 296.5,86C 304.037,86.7835 311.537,86.6169 319,85.5C 321.81,87.0721 324.643,87.4054 327.5,86.5 Z"/></g>
<g><path style="opacity:1" fill="#d9b7f2" d="M 289.5,72.5 C 292.152,72.4095 294.485,73.0762 296.5,74.5C 293.848,74.5905 291.515,73.9238 289.5,72.5 Z"/></g>
<g><path style="opacity:1" fill="#ddbdf4" d="M 328.5,86.5 C 330.967,86.7549 332.967,87.7549 334.5,89.5C 332.033,89.2451 330.033,88.2451 328.5,86.5 Z"/></g>
<g><path style="opacity:1" fill="#f6eefc" d="M 327.5,86.5 C 327.833,86.5 328.167,86.5 328.5,86.5C 330.033,88.2451 332.033,89.2451 334.5,89.5C 384.947,117.322 415.947,159.656 427.5,216.5C 427.302,221.75 427.969,226.75 429.5,231.5C 430.43,238.777 430.764,246.11 430.5,253.5C 429.673,248.015 429.173,242.348 429,236.5C 428.667,237.833 428.333,239.167 428,240.5C 426.346,235.551 424.846,230.551 423.5,225.5C 422.808,226.025 422.308,226.692 422,227.5C 421.808,225.423 421.308,223.423 420.5,221.5C 419.391,222.59 418.391,222.59 417.5,221.5C 418.325,220.614 419.325,220.281 420.5,220.5C 422.29,213.521 421.624,206.855 418.5,200.5C 419.025,199.808 419.692,199.308 420.5,199C 418.601,197.103 417.101,194.936 416,192.5C 415.517,193.448 415.351,194.448 415.5,195.5C 414.5,195.5 413.5,195.5 412.5,195.5C 412.413,188.89 412.58,182.224 413,175.5C 412.667,175.833 412.333,176.167 412,176.5C 410.167,174.833 408.333,173.167 406.5,171.5C 405.618,168.68 404.452,166.014 403,163.5C 400.708,164.908 398.541,164.741 396.5,163C 399.035,160.542 399.035,158.042 396.5,155.5C 394.253,156.374 391.92,156.708 389.5,156.5C 389.2,151.901 389.533,147.401 390.5,143C 389.351,141.256 388.017,141.089 386.5,142.5C 386.511,141.559 386.011,140.892 385,140.5C 383.989,140.892 383.489,141.559 383.5,142.5C 381.35,140.078 381.017,137.411 382.5,134.5C 381.895,132.519 380.895,132.185 379.5,133.5C 378.571,132.311 378.238,130.978 378.5,129.5C 376.833,129.5 375.167,129.5 373.5,129.5C 373.5,127.833 373.5,126.167 373.5,124.5C 372.167,124.5 370.833,124.5 369.5,124.5C 369.66,122.801 369.494,121.134 369,119.5C 368.29,120.973 367.124,121.64 365.5,121.5C 365.662,119.473 365.495,117.473 365,115.5C 362.959,116.423 360.792,116.756 358.5,116.5C 359.371,113.461 358.871,110.461 357,107.5C 356.667,108.5 356.333,109.5 356,110.5C 355,109.167 354,109.167 353,110.5C 352.692,109.692 352.192,109.025 351.5,108.5C 350.61,106.174 350.443,103.841 351,101.5C 349.538,102.035 347.872,102.035 346,101.5C 344.342,101.675 343.009,102.342 342,103.5C 340.474,100.422 337.974,98.5883 334.5,98C 335.167,97.3333 335.833,96.6667 336.5,96C 334.699,95.6827 334.366,95.016 335.5,94C 332.016,95.0067 328.683,94.5067 325.5,92.5C 326.571,90.6745 325.904,89.5079 323.5,89C 325.32,88.7996 326.653,87.9663 327.5,86.5 Z"/></g>
<g><path style="opacity:1" fill="#edd7f8" d="M 121.5,121.5 C 120.833,124.167 119.167,125.833 116.5,126.5C 117.833,124.5 119.5,122.833 121.5,121.5 Z"/></g>
<g><path style="opacity:1" fill="#efe1fb" d="M 340.5,167.5 C 343.657,167.079 345.99,168.245 347.5,171C 347.008,176.036 346.008,180.869 344.5,185.5C 345.397,180.86 345.564,176.194 345,171.5C 343.603,169.93 342.103,168.596 340.5,167.5 Z"/></g>
<g><path style="opacity:1" fill="#c99eec" d="M 340.5,167.5 C 342.103,168.596 343.603,169.93 345,171.5C 345.564,176.194 345.397,180.86 344.5,185.5C 342.988,190.728 341.988,196.062 341.5,201.5C 338.772,210.667 336.272,220.001 334,229.5C 332.602,237.563 331.102,245.563 329.5,253.5C 328.076,255.515 327.41,257.848 327.5,260.5C 326.659,262.379 326.325,264.379 326.5,266.5C 324.96,268.838 324.294,271.505 324.5,274.5C 320.684,291.102 316.851,307.768 313,324.5C 310.27,331.053 305.437,333.22 298.5,331C 284.441,318.564 269.941,306.73 255,295.5C 247.867,306.261 241.367,317.427 235.5,329C 229.225,332.995 223.892,332.161 219.5,326.5C 218.943,321.835 217.61,317.502 215.5,313.5C 211.822,297.281 207.322,281.281 202,265.5C 200.185,264.756 198.352,264.089 196.5,263.5C 196.389,262.883 196.056,262.383 195.5,262C 192.183,261.502 188.85,261.335 185.5,261.5C 175.631,260.189 165.964,258.022 156.5,255C 153.846,251.673 152.846,247.839 153.5,243.5C 154.906,243.027 155.573,242.027 155.5,240.5C 156.987,239.196 158.654,238.03 160.5,237C 177.834,230.058 195.167,223.224 212.5,216.5C 216.536,216.715 219.87,215.381 222.5,212.5C 236.099,207.365 249.432,201.698 262.5,195.5C 285.72,186.817 308.72,177.65 331.5,168C 334.482,167.502 337.482,167.335 340.5,167.5 Z"/></g>
<g><path style="opacity:1" fill="#e0c7f4" d="M 85.5,173.5 C 85.573,175.027 84.9063,176.027 83.5,176.5C 83.427,174.973 84.0937,173.973 85.5,173.5 Z"/></g>
<g><path style="opacity:1" fill="#e5ccf6" d="M 73.5,207.5 C 73.5905,210.152 72.9238,212.485 71.5,214.5C 71.4095,211.848 72.0762,209.515 73.5,207.5 Z"/></g>
<g><path style="opacity:1" fill="#ead6f8" d="M 427.5,216.5 C 428.889,221.269 429.556,226.269 429.5,231.5C 427.969,226.75 427.302,221.75 427.5,216.5 Z"/></g>
<g><path style="opacity:1" fill="#eddefb" d="M 69.5,233.5 C 69.5,241.833 69.5,250.167 69.5,258.5C 69.1984,261.059 69.5318,263.393 70.5,265.5C 70.5,267.833 70.5,270.167 70.5,272.5C 68.9526,265.234 68.2859,257.734 68.5,250C 68.5006,244.323 68.8339,238.823 69.5,233.5 Z"/></g>
<g><path style="opacity:1" fill="#edddf9" d="M 430.5,259.5 C 430.562,264.076 429.895,268.409 428.5,272.5C 428.438,267.924 429.105,263.591 430.5,259.5 Z"/></g>
<g><path style="opacity:1" fill="#d5b4ef" d="M 72.5,289.5 C 73.9238,291.515 74.5905,293.848 74.5,296.5C 73.0762,294.485 72.4095,292.152 72.5,289.5 Z"/></g>
<g><path style="opacity:1" fill="#f6effc" d="M 262.5,195.5 C 249.432,201.698 236.099,207.365 222.5,212.5C 218.827,213.189 215.494,214.522 212.5,216.5C 195.167,223.224 177.834,230.058 160.5,237C 158.654,238.03 156.987,239.196 155.5,240.5C 154.094,240.973 153.427,241.973 153.5,243.5C 152.846,247.839 153.846,251.673 156.5,255C 165.964,258.022 175.631,260.189 185.5,261.5C 188.909,262.903 192.575,263.57 196.5,263.5C 198.352,264.089 200.185,264.756 202,265.5C 207.322,281.281 211.822,297.281 215.5,313.5C 215.859,318.17 217.192,322.503 219.5,326.5C 223.892,332.161 229.225,332.995 235.5,329C 241.367,317.427 247.867,306.261 255,295.5C 269.941,306.73 284.441,318.564 298.5,331C 305.437,333.22 310.27,331.053 313,324.5C 316.851,307.768 320.684,291.102 324.5,274.5C 326.04,272.162 326.706,269.495 326.5,266.5C 326.325,264.379 326.659,262.379 327.5,260.5C 328.924,258.485 329.59,256.152 329.5,253.5C 331.102,245.563 332.602,237.563 334,229.5C 336.272,220.001 338.772,210.667 341.5,201.5C 343.194,204.418 344.194,207.585 344.5,211C 343.395,214.87 343.395,218.703 344.5,222.5C 341.986,224.799 341.986,227.132 344.5,229.5C 343.176,230.935 341.51,231.935 339.5,232.5C 340.491,234.123 339.824,235.123 337.5,235.5C 337.167,234.833 336.833,234.167 336.5,233.5C 335.177,235.204 335.51,236.537 337.5,237.5C 338.833,236.167 340.167,236.167 341.5,237.5C 343.111,236.68 343.778,235.346 343.5,233.5C 346.167,233.5 348.833,233.5 351.5,233.5C 351.5,236.5 351.5,239.5 351.5,242.5C 346.5,242.5 341.5,242.5 336.5,242.5C 338.024,246.491 337.358,250.157 334.5,253.5C 336.03,255.798 335.696,257.631 333.5,259C 334.793,259.49 336.127,259.657 337.5,259.5C 336.706,263.954 336.039,268.454 335.5,273C 335.547,275.889 335.88,278.722 336.5,281.5C 335.167,282.167 333.833,282.833 332.5,283.5C 333.325,284.386 334.325,284.719 335.5,284.5C 335.5,286.167 335.5,287.833 335.5,289.5C 331.602,289.625 330.102,287.958 331,284.5C 327.063,288.85 327.896,291.516 333.5,292.5C 333,293.5 332.5,294.5 332,295.5C 329.272,297.239 326.106,298.072 322.5,298C 323.726,303.601 323.226,303.768 321,298.5C 320.86,301.981 321.027,305.481 321.5,309C 321.355,312.32 320.355,315.32 318.5,318C 319.448,318.483 320.448,318.649 321.5,318.5C 320.867,323.924 320.534,329.257 320.5,334.5C 317.503,335.248 314.503,335.915 311.5,336.5C 311.167,335.833 310.833,335.167 310.5,334.5C 307.63,335.122 304.796,335.789 302,336.5C 299.993,334.437 297.66,334.104 295,335.5C 291.987,334.833 289.154,333.667 286.5,332C 288.5,331 290.5,330 292.5,329C 291.216,328.316 290.049,328.483 289,329.5C 288.667,328.833 288.333,328.167 288,327.5C 284.597,330.045 281.764,329.712 279.5,326.5C 280.376,325.749 281.376,325.249 282.5,325C 281.141,323.796 280.141,322.296 279.5,320.5C 278.41,321.391 278.41,322.391 279.5,323.5C 279.154,324.696 278.654,324.696 278,323.5C 277.28,321.888 277.446,320.388 278.5,319C 273.815,313.723 268.148,311.557 261.5,312.5C 261.354,310.058 262.187,309.391 264,310.5C 264.495,308.527 264.662,306.527 264.5,304.5C 262.549,304.773 261.049,304.107 260,302.5C 259.173,305.416 257.506,306.083 255,304.5C 253.775,304.862 252.609,305.362 251.5,306C 253.473,306.495 255.473,306.662 257.5,306.5C 257.859,310.475 258.193,314.475 258.5,318.5C 257.312,319.84 255.812,320.507 254,320.5C 250.891,320.384 247.724,320.218 244.5,320C 244.833,320.333 245.167,320.667 245.5,321C 244.328,321.419 243.328,322.085 242.5,323C 242.892,325.354 242.892,327.854 242.5,330.5C 241.5,330.5 240.5,330.5 239.5,330.5C 239.649,331.552 239.483,332.552 239,333.5C 238.333,334.833 237.667,334.833 237,333.5C 236.751,334.624 236.251,335.624 235.5,336.5C 233.833,335.167 232.167,335.167 230.5,336.5C 230.167,336.167 229.833,335.833 229.5,335.5C 230.376,334.749 231.376,334.249 232.5,334C 230.833,333.333 229.167,333.333 227.5,334C 228.654,334.914 228.487,335.747 227,336.5C 224.039,336.184 220.872,335.85 217.5,335.5C 217.665,332.15 217.498,328.817 217,325.5C 216.667,326.5 216.333,327.5 216,328.5C 215.798,326.744 215.298,325.078 214.5,323.5C 212.614,322.15 211.114,320.483 210,318.5C 209.276,310.382 208.943,302.382 209,294.5C 208.735,296.651 207.735,298.318 206,299.5C 204.174,298.99 204.007,298.156 205.5,297C 204.551,296.383 203.718,296.549 203,297.5C 202.355,296.354 201.522,295.354 200.5,294.5C 201.5,293.667 202.5,292.833 203.5,292C 203.045,289.688 202.045,287.688 200.5,286C 201.308,285.692 201.975,285.192 202.5,284.5C 201.939,282.574 201.773,280.574 202,278.5C 201.085,279.328 200.419,280.328 200,281.5C 199.308,280.975 198.808,280.308 198.5,279.5C 199.348,277.591 199.682,275.591 199.5,273.5C 195.167,273.5 190.833,273.5 186.5,273.5C 186.167,269.5 185.833,269.5 185.5,273.5C 183.167,273.5 180.833,273.5 178.5,273.5C 178.232,270.881 178.565,268.381 179.5,266C 177.924,265.56 176.59,264.727 175.5,263.5C 174.304,263.846 174.304,264.346 175.5,265C 172.905,265.226 170.405,265.726 168,266.5C 167.047,264.408 165.714,264.075 164,265.5C 163.389,263.25 162.056,261.583 160,260.5C 159.517,259.552 159.351,258.552 159.5,257.5C 157.234,257.141 155.401,257.808 154,259.5C 152.103,257.984 149.936,257.317 147.5,257.5C 147.65,249.667 147.65,241.667 147.5,233.5C 150.347,233.782 153.013,233.782 155.5,233.5C 156.333,234.5 157.167,235.5 158,236.5C 159.815,234.595 161.815,232.928 164,231.5C 164.333,232.167 164.667,232.833 165,233.5C 165.631,232.128 166.298,230.795 167,229.5C 168.752,230.286 170.586,230.12 172.5,229C 170.893,227.951 170.227,226.451 170.5,224.5C 175.805,225.194 181.138,225.528 186.5,225.5C 186.5,224.5 186.5,223.5 186.5,222.5C 194.373,222.449 194.373,221.782 186.5,220.5C 186.5,219.5 186.5,218.5 186.5,217.5C 191.762,217.195 196.928,217.529 202,218.5C 202.75,217.874 203.584,217.374 204.5,217C 202.709,214.894 202.042,212.394 202.5,209.5C 210.203,210.536 217.869,210.536 225.5,209.5C 225.187,206.753 225.52,204.086 226.5,201.5C 231.221,202.17 235.887,202.337 240.5,202C 240.398,199.671 240.731,197.171 241.5,194.5C 246.241,193.963 250.574,194.963 254.5,197.5C 255.696,197.154 255.696,196.654 254.5,196C 253.5,195.667 252.5,195.333 251.5,195C 255.255,194.245 258.922,194.411 262.5,195.5 Z"/></g>
<g><path style="opacity:1" fill="#e6cdf7" d="M 223.5,270.5 C 224.738,272.214 225.405,274.214 225.5,276.5C 223.926,274.898 223.259,272.898 223.5,270.5 Z"/></g>
<g><path style="opacity:1" fill="#ecd9f9" d="M 326.5,266.5 C 326.706,269.495 326.04,272.162 324.5,274.5C 324.294,271.505 324.96,268.838 326.5,266.5 Z"/></g>
<g><path style="opacity:1" fill="#d5aff0" d="M 185.5,261.5 C 188.85,261.335 192.183,261.502 195.5,262C 196.056,262.383 196.389,262.883 196.5,263.5C 192.575,263.57 188.909,262.903 185.5,261.5 Z"/></g>
<g><path style="opacity:1" fill="#e8d3f7" d="M 329.5,253.5 C 329.59,256.152 328.924,258.485 327.5,260.5C 327.41,257.848 328.076,255.515 329.5,253.5 Z"/></g>
<g><path style="opacity:1" fill="#f6f0fc" d="M 285.5,220.5 C 286.338,220.842 286.672,221.508 286.5,222.5C 272.581,239.986 258.414,257.32 244,274.5C 240.293,281.414 236.46,288.248 232.5,295C 231.551,295.617 230.718,295.451 230,294.5C 228.806,288.39 227.306,282.39 225.5,276.5C 225.405,274.214 224.738,272.214 223.5,270.5C 222.35,267.573 221.35,264.573 220.5,261.5C 241.713,247.063 263.38,233.396 285.5,220.5 Z"/></g>
<g><path style="opacity:1" fill="#dec3f4" d="M 155.5,240.5 C 155.573,242.027 154.906,243.027 153.5,243.5C 153.427,241.973 154.094,240.973 155.5,240.5 Z"/></g>
<g><path style="opacity:1" fill="#ebd7f9" d="M 286.5,222.5 C 286.672,221.508 286.338,220.842 285.5,220.5C 286.804,218.018 288.804,216.851 291.5,217C 289.754,218.847 288.088,220.681 286.5,222.5 Z"/></g>
<g><path style="opacity:1" fill="#d3b0ef" d="M 222.5,212.5 C 219.87,215.381 216.536,216.715 212.5,216.5C 215.494,214.522 218.827,213.189 222.5,212.5 Z"/></g>
<g><path style="opacity:1" fill="#f6eefc" d="M 70.5,265.5 C 71.2323,266.808 72.0656,268.142 73,269.5C 73.3333,269.167 73.6667,268.833 74,268.5C 74.3333,269.833 74.6667,271.167 75,272.5C 75.3076,271.692 75.8076,271.025 76.5,270.5C 79.8584,273.094 79.8584,275.928 76.5,279C 78.9301,284.839 78.9301,290.672 76.5,296.5C 77.2305,299.109 77.7305,301.776 78,304.5C 80.7499,303.709 83.5832,303.709 86.5,304.5C 86.8957,307.044 86.229,309.211 84.5,311C 85.448,311.483 86.448,311.649 87.5,311.5C 86.035,315.389 85.535,319.389 86,323.5C 86.3333,323.833 86.6667,324.167 87,324.5C 87.4186,323.328 88.0853,322.328 89,321.5C 88.9983,324.836 90.4983,327.17 93.5,328.5C 92.959,330.523 93.459,332.523 95,334.5C 95.9745,332.122 96.6411,332.456 97,335.5C 98.6667,334.167 100.333,334.167 102,335.5C 101.741,340.123 101.574,344.623 101.5,349C 104.278,350.392 107.278,350.892 110.5,350.5C 110.52,352.143 109.853,353.476 108.5,354.5C 110.847,357.004 113.681,358.67 117,359.5C 117.265,361.163 116.765,362.663 115.5,364C 118.84,365.347 120.674,367.847 121,371.5C 121.333,370.833 121.667,370.167 122,369.5C 122.569,373.361 123.402,373.361 124.5,369.5C 125.298,371.078 125.798,372.744 126,374.5C 127.011,373.663 128.178,373.33 129.5,373.5C 129.343,374.873 129.51,376.207 130,377.5C 131.507,378.505 132.673,379.838 133.5,381.5C 135.5,382.833 137.5,382.833 139.5,381.5C 140.308,381.808 140.975,382.308 141.5,383C 140.978,385.186 140.978,387.519 141.5,390C 144.244,389.009 146.911,389.343 149.5,391C 147.811,394.685 148.978,397.185 153,398.5C 156.896,398.029 160.729,397.696 164.5,397.5C 164.756,399.792 164.423,401.959 163.5,404C 165.848,404.11 167.348,405.277 168,407.5C 169.049,406.483 170.216,406.316 171.5,407C 171.955,409.312 172.955,411.312 174.5,413C 179.824,412.854 185.157,412.854 190.5,413C 193.824,415.969 197.491,418.636 201.5,421C 203.5,421.667 205.5,421.667 207.5,421C 209.727,419.165 211.56,419.665 213,422.5C 217.894,419.932 222.727,419.932 227.5,422.5C 226.189,423.258 225.689,424.258 226,425.5C 228.621,425.296 231.455,425.296 234.5,425.5C 234.36,427.124 235.027,428.29 236.5,429C 246.494,429.5 256.494,429.666 266.5,429.5C 253.647,430.766 240.647,430.766 227.5,429.5C 227.082,428.778 226.416,428.278 225.5,428C 222.183,427.502 218.85,427.335 215.5,427.5C 215.167,427.5 214.833,427.5 214.5,427.5C 212.485,426.076 210.152,425.41 207.5,425.5C 192.225,422.441 177.892,417.108 164.5,409.5C 164.027,408.094 163.027,407.427 161.5,407.5C 117.389,382.245 88.3887,345.245 74.5,296.5C 74.5905,293.848 73.9238,291.515 72.5,289.5C 71.6464,283.858 70.9797,278.191 70.5,272.5C 70.5,270.167 70.5,267.833 70.5,265.5 Z"/></g>
<g><path style="opacity:1" fill="#e9d6f8" d="M 215.5,313.5 C 217.61,317.502 218.943,321.835 219.5,326.5C 217.192,322.503 215.859,318.17 215.5,313.5 Z"/></g>
<g><path style="opacity:1" fill="#f6effc" d="M 414.5,323.5 C 395.292,366.043 364.292,396.377 321.5,414.5C 320.34,412.797 321.007,412.131 323.5,412.5C 323.105,409.477 324.105,408.477 326.5,409.5C 327.167,408.167 327.833,406.833 328.5,405.5C 329.842,406.902 330.676,406.569 331,404.5C 332.507,405.535 334.007,405.368 335.5,404C 334.577,401.959 334.244,399.792 334.5,397.5C 339.789,398.257 344.955,398.257 350,397.5C 350.5,397 351,396.5 351.5,396C 351.112,394.192 351.112,392.525 351.5,391C 354.117,390.178 356.784,389.678 359.5,389.5C 359.649,388.448 359.483,387.448 359,386.5C 358.282,387.451 357.449,387.617 356.5,387C 358.037,385.89 358.703,384.39 358.5,382.5C 359.93,382.421 361.264,382.754 362.5,383.5C 363.795,382.902 365.128,382.402 366.5,382C 365.354,379.443 366.354,378.11 369.5,378C 368.768,375.05 370.101,373.55 373.5,373.5C 373.5,371.5 373.5,369.5 373.5,367.5C 376.428,367.148 379.262,366.482 382,365.5C 382.182,362.774 382.682,360.107 383.5,357.5C 385.098,357.61 386.765,357.943 388.5,358.5C 389.244,357.009 389.91,355.509 390.5,354C 389.167,353.333 388.167,352.333 387.5,351C 391.135,351.068 394.302,350.901 397,350.5C 397.226,347.905 397.726,345.405 398.5,343C 395.332,342.418 394.999,341.418 397.5,340C 396.949,338.602 396.616,337.268 396.5,336C 399.137,333.926 401.637,334.093 404,336.5C 404.317,334.699 404.984,334.366 406,335.5C 406.456,334.256 405.956,333.423 404.5,333C 405.833,332.333 406.833,331.333 407.5,330C 406.027,329.29 405.36,328.124 405.5,326.5C 407.911,326.863 409.411,325.863 410,323.5C 411.299,323.966 412.799,323.966 414.5,323.5 Z"/></g>
<g><path style="opacity:1" fill="#e7cdf7" d="M 161.5,407.5 C 163.027,407.427 164.027,408.094 164.5,409.5C 162.973,409.573 161.973,408.906 161.5,407.5 Z"/></g>
<g><path style="opacity:1" fill="#e1c6f6" d="M 207.5,425.5 C 210.152,425.41 212.485,426.076 214.5,427.5C 211.848,427.59 209.515,426.924 207.5,425.5 Z"/></g>
<g><path style="opacity:1" fill="#ebd6f8" d="M 215.5,427.5 C 218.85,427.335 222.183,427.502 225.5,428C 226.416,428.278 227.082,428.778 227.5,429.5C 223.316,429.149 219.316,428.482 215.5,427.5 Z"/></g>
</svg>
