<?xml version="1.0" encoding="UTF-8"?>
<svg version="1.1" xmlns="http://www.w3.org/2000/svg" width="256" height="256">
<path d="M0 0 C84.48 0 168.96 0 256 0 C256 84.48 256 168.96 256 256 C171.52 256 87.04 256 0 256 C0 171.52 0 87.04 0 0 Z " fill="#D0ACF5" transform="translate(0,0)"/>
<path d="M0 0 C6.10111915 -0.27334421 12.19862959 -0.47214996 18.30444336 -0.60424805 C20.37766633 -0.65933797 22.45046629 -0.73423996 24.5222168 -0.82983398 C41.66399177 -1.60057501 41.66399177 -1.60057501 47.18334961 2.18115234 C49.50876038 5.00056229 51.25333475 7.79537666 53 11 C54.12577907 12.53865416 55.27428903 14.06104228 56.44921875 15.5625 C57.53164403 17.03947406 58.61102855 18.51868097 59.6875 20 C60.88141824 21.63157787 62.07543176 23.26308602 63.26953125 24.89453125 C63.87619629 25.72549316 64.48286133 26.55645508 65.10791016 27.41259766 C68.35070406 31.84706602 71.61399239 36.26641873 74.875 40.6875 C76.05998612 42.29550639 77.24489054 43.90357298 78.4296875 45.51171875 C78.92710449 46.18678467 79.42452148 46.86185059 79.93701172 47.55737305 C80.28779785 48.03343994 80.63858398 48.50950684 81 49 C85.00078098 47.16926892 87.48811509 44.56024552 90.375 41.3125 C91.44474214 40.13099376 92.51507875 38.95002554 93.5859375 37.76953125 C94.1437793 37.15158691 94.70162109 36.53364258 95.27636719 35.89697266 C98.15082918 32.73343588 101.0772414 29.61884906 104 26.5 C108.52852149 21.65297396 113.05361088 16.80280068 117.5625 11.9375 C118.03880859 11.42574219 118.51511719 10.91398437 119.00585938 10.38671875 C121.7366712 7.45605126 121.7366712 7.45605126 124.20922852 4.31054688 C126.44876019 1.22829781 127.51380647 0.0854971 131.33203125 -0.5859375 C132.48058594 -0.51632813 133.62914062 -0.44671875 134.8125 -0.375 C136.55466797 -0.29378906 136.55466797 -0.29378906 138.33203125 -0.2109375 C139.21246094 -0.14132813 140.09289062 -0.07171875 141 0 C139.45872649 3.71268094 137.19156766 5.98115698 134.3125 8.75 C130.60761793 12.32235908 127.1876692 16.03405225 123.82299805 19.92089844 C120.88168569 23.27542047 117.81455448 26.50839668 114.75 29.75 C106.01488477 39.03105993 97.32173271 48.34338183 89 58 C91.86534143 63.28617882 95.10930621 67.95905814 98.8125 72.6875 C99.98007316 74.19591336 101.14670198 75.70505804 102.3125 77.21484375 C102.91835937 77.99843262 103.52421875 78.78202148 104.1484375 79.58935547 C107.24042147 83.61496857 110.2750074 87.68320824 113.3125 91.75 C118.5851841 98.80170978 123.90293116 105.81705322 129.25 112.8125 C134.03209029 119.08026574 138.80449988 125.354487 143.5 131.6875 C143.9630957 132.30536377 144.42619141 132.92322754 144.90332031 133.55981445 C148 137.76615781 148 137.76615781 148 140 C106.39999419 143.11321522 106.39999419 143.11321522 98.453125 136.66015625 C95.32086658 133.03516438 93.23744488 128.94573706 91.27539062 124.59619141 C89.06801158 120.1028398 85.92822027 116.31901352 82.875 112.375 C81.71922422 110.80686363 80.56812519 109.23526889 79.421875 107.66015625 C74.34321493 100.72717442 69.17002124 93.86495495 64 87 C56.80061645 90.16070498 51.80461525 97.15462952 46.78125 103 C44.9257479 105.08337078 42.98776899 107.04281207 41 109 C38.52036671 111.44663437 36.14559624 113.92107774 33.875 116.5625 C30.29385578 120.72526857 26.55985772 124.7374491 22.8125 128.75 C22.20583496 129.4004126 21.59916992 130.0508252 20.97412109 130.72094727 C19.82326155 131.95083101 18.66662272 133.17534025 17.50341797 134.39355469 C16.28416786 135.69635848 15.12924973 137.05915822 13.99609375 138.4375 C11.09180226 140.71091799 8.87439367 140.39497575 5.25 140.25 C4.07953125 140.21390625 2.9090625 140.1778125 1.703125 140.140625 C0.81109375 140.09421875 -0.0809375 140.0478125 -1 140 C3.37195988 134.77793682 7.94725962 129.77037096 12.59667969 124.79614258 C15.07906214 122.1292369 17.46860051 119.44264506 19.74609375 116.59765625 C20.48988281 115.74042969 21.23367187 114.88320312 22 114 C22.66 114 23.32 114 24 114 C24.24363281 113.42765625 24.48726562 112.8553125 24.73828125 112.265625 C26.22517298 109.59566462 27.98083908 107.86170993 30.1875 105.75 C32.96417617 103.03483248 35.66223261 100.32543996 38.1875 97.375 C43.89660179 90.71438124 49.99534527 84.39297821 56 78 C54.61418757 75.04183144 53.0046712 72.49596344 51.05859375 69.875 C50.47996582 69.0927002 49.90133789 68.31040039 49.30517578 67.50439453 C48.38067627 66.26471924 48.38067627 66.26471924 47.4375 65 C46.80054199 64.14132324 46.16358398 63.28264648 45.50732422 62.39794922 C43.67474548 59.92956837 41.8379687 57.46436873 40 55 C39.22011719 53.95070312 38.44023438 52.90140625 37.63671875 51.8203125 C34.24877381 47.28112413 30.82637949 42.76958496 27.38671875 38.26953125 C20.5625887 29.34138449 13.75822473 20.40005176 7.0625 11.375 C6.46542236 10.57570068 5.86834473 9.77640137 5.25317383 8.95288086 C4.70685303 8.21303955 4.16053223 7.47319824 3.59765625 6.7109375 C3.11820557 6.06431152 2.63875488 5.41768555 2.14477539 4.75146484 C1 3 1 3 0 0 Z " fill="#FDFBFE" transform="translate(54,58)"/>
<path d="M0 0 C16.28057021 -2.65337261 16.28057021 -2.65337261 22.16015625 1.54101562 C26.28007222 5.74832375 29.42718063 10.63763418 32.51855469 15.62744141 C34.60731907 18.9726313 36.92598324 22.12904071 39.25 25.3125 C40.04695632 26.44043006 40.84254894 27.569325 41.63671875 28.69921875 C44.81643837 33.18099585 48.19451529 37.50690391 51.5625 41.84765625 C56.11547982 47.73588496 60.54813591 53.71488522 65 59.6796875 C68.56739932 64.4497328 72.15209026 69.2043825 75.7734375 73.93359375 C88.54697961 90.62065428 88.54697961 90.62065428 94.53686523 99.15551758 C98.16522308 104.30466971 102.04407744 109.23568578 105.96875 114.16015625 C107.8220942 116.75127401 108.98644743 118.99790137 110 122 C93.54811897 124.34097912 93.54811897 124.34097912 88.1328125 120.76806641 C84.58586101 117.17148406 82.1159046 112.80306078 79.55175781 108.48144531 C76.73514027 103.97733884 73.3921511 99.86962349 70.125 95.6875 C64.42388858 88.24408252 58.8296488 80.72846 53.28955078 73.16479492 C48.92762531 67.2237217 44.47963263 61.3527001 40 55.5 C34.35470587 48.12434752 28.7955865 40.69390257 23.31542969 33.19482422 C20.14059794 28.86327787 16.91901329 24.57417215 13.640625 20.3203125 C12.90972656 19.37091797 12.17882812 18.42152344 11.42578125 17.44335938 C10.00639412 15.60478161 8.58213161 13.76995434 7.15234375 11.93945312 C6.50910156 11.10607422 5.86585937 10.27269531 5.203125 9.4140625 C4.63239258 8.6813916 4.06166016 7.9487207 3.47363281 7.19384766 C1.91787706 4.87774077 0.94189832 2.61925937 0 0 Z " fill="#D0AEF4" transform="translate(73,67)"/>
</svg>
