<?xml version="1.0" encoding="UTF-8"?>
<!DOCTYPE svg PUBLIC "-//W3C//DTD SVG 1.1//EN" "http://www.w3.org/Graphics/SVG/1.1/DTD/svg11.dtd">
<svg xmlns="http://www.w3.org/2000/svg" version="1.1" width="543px" height="543px" style="shape-rendering:geometricPrecision; text-rendering:geometricPrecision; image-rendering:optimizeQuality; fill-rule:evenodd; clip-rule:evenodd" xmlns:xlink="http://www.w3.org/1999/xlink">
<g><path style="opacity:1" fill="#ccbafa" d="M 247.5,-0.5 C 263.167,-0.5 278.833,-0.5 294.5,-0.5C 365.702,7.01767 425.536,37.0177 474,89.5C 478.417,94.6823 482.583,100.016 486.5,105.5C 486.427,107.027 487.094,108.027 488.5,108.5C 519.452,149.671 537.452,196.004 542.5,247.5C 542.5,263.167 542.5,278.833 542.5,294.5C 531.733,386.712 487.067,457.212 408.5,506C 384.788,520.023 359.455,529.856 332.5,535.5C 330.143,535.337 327.81,535.503 325.5,536C 324.944,536.383 324.611,536.883 324.5,537.5C 314.462,539.551 304.462,541.217 294.5,542.5C 278.833,542.5 263.167,542.5 247.5,542.5C 196.554,537.412 150.554,519.745 109.5,489.5C 110.234,488.292 110.567,486.959 110.5,485.5C 108.738,485.643 107.071,485.309 105.5,484.5C 101.762,481.088 98.095,477.755 94.5,474.5C 92.8262,471.277 90.4929,468.444 87.5,466C 84.4005,465.061 81.4005,463.895 78.5,462.5C 76.9981,458.321 74.3315,454.988 70.5,452.5C 69.0016,448.581 66.3349,445.747 62.5,444C 63.6405,443.259 63.6405,442.425 62.5,441.5C 61.0603,440.048 59.3936,439.048 57.5,438.5C 56.8333,438.5 56.5,438.167 56.5,437.5C 56.6107,436.883 56.944,436.383 57.5,436C 55.338,433.329 53.338,430.495 51.5,427.5C 50.3777,426.37 49.0443,425.703 47.5,425.5C 47.819,419.872 45.6524,415.539 41,412.5C 40.5172,411.552 40.3505,410.552 40.5,409.5C 39.5,409.5 38.5,409.5 37.5,409.5C 33.7628,400.13 30.0961,390.797 26.5,381.5C 25.1861,380.687 24.0195,379.687 23,378.5C 21.8371,372.817 19.8371,367.484 17,362.5C 16.6174,363.056 16.1174,363.389 15.5,363.5C 14.2616,361.786 13.595,359.786 13.5,357.5C 11.8886,342.899 9.38865,328.566 6,314.5C 5.18405,313.177 4.01739,312.511 2.5,312.5C 1.36541,306.423 0.365409,300.423 -0.5,294.5C -0.5,278.833 -0.5,263.167 -0.5,247.5C 0.631537,239.261 1.96487,230.927 3.5,222.5C 6.00742,218.65 7.00742,214.316 6.5,209.5C 14.4084,172.027 30.0751,138.361 53.5,108.5C 54.9063,108.027 55.573,107.027 55.5,105.5C 95.9676,53.2681 148.634,19.7681 213.5,5C 224.925,2.82293 236.258,0.989599 247.5,-0.5 Z"/></g>
<g><path style="opacity:0.816" fill="#625a77" d="M 55.5,105.5 C 55.573,107.027 54.9063,108.027 53.5,108.5C 53.427,106.973 54.0937,105.973 55.5,105.5 Z"/></g>
<g><path style="opacity:0.816" fill="#625977" d="M 486.5,105.5 C 487.906,105.973 488.573,106.973 488.5,108.5C 487.094,108.027 486.427,107.027 486.5,105.5 Z"/></g>
<g><path style="opacity:1" fill="#fefdfe" d="M 430.5,132.5 C 430.825,137.599 430.325,142.599 429,147.5C 424.633,157.625 419.966,167.625 415,177.5C 414.667,179.5 414.333,181.5 414,183.5C 409.41,192.347 405.077,201.347 401,210.5C 399.068,216.675 396.902,222.675 394.5,228.5C 391.842,231.806 389.676,235.473 388,239.5C 386.796,243.613 385.296,247.613 383.5,251.5C 377.118,267.128 370.618,282.794 364,298.5C 359.63,305.352 356.463,312.685 354.5,320.5C 352.935,322.509 351.935,324.843 351.5,327.5C 347.297,336.908 342.797,346.242 338,355.5C 335.541,361.414 333.374,367.414 331.5,373.5C 322.98,393.479 314.146,413.479 305,433.5C 304.338,435.813 303.838,438.146 303.5,440.5C 300.325,444.182 298.159,448.515 297,453.5C 291.418,465.168 282.918,468.168 271.5,462.5C 269.667,460.167 267.833,457.833 266,455.5C 261.246,442.79 255.746,430.456 249.5,418.5C 248.545,413.023 246.379,408.023 243,403.5C 240.549,398.051 238.549,392.385 237,386.5C 235.97,384.654 234.804,382.987 233.5,381.5C 232.926,377.675 231.759,374.009 230,370.5C 229.623,369.058 228.79,368.058 227.5,367.5C 226.651,362.811 224.985,358.478 222.5,354.5C 220.432,348.7 218.098,343.034 215.5,337.5C 194.111,329.303 173.111,320.303 152.5,310.5C 133.743,301.777 114.743,293.444 95.5,285.5C 87.0825,278.475 85.4158,270.142 90.5,260.5C 103.639,252.432 117.639,246.265 132.5,242C 133.833,241.333 134.833,240.333 135.5,239C 145.101,235.336 154.768,231.669 164.5,228C 165.833,227 167.167,226 168.5,225C 178.881,221.376 188.881,217.209 198.5,212.5C 201.328,211.345 203.995,210.011 206.5,208.5C 208.857,208.663 211.19,208.497 213.5,208C 219.223,204.302 225.223,200.969 231.5,198C 255.512,188.686 279.179,178.853 302.5,168.5C 308.112,166.36 313.446,163.694 318.5,160.5C 330.541,156.97 341.875,152.137 352.5,146C 355.101,145.08 357.768,144.413 360.5,144C 375.545,136.814 390.879,130.147 406.5,124C 417.181,119.86 425.181,122.693 430.5,132.5 Z"/></g>
<g><path style="opacity:1" fill="#d1c4f3" d="M 430.5,132.5 C 425.181,122.693 417.181,119.86 406.5,124C 390.879,130.147 375.545,136.814 360.5,144C 357.768,144.413 355.101,145.08 352.5,146C 341.875,152.137 330.541,156.97 318.5,160.5C 318.414,159.504 318.748,158.671 319.5,158C 325.28,155.251 331.28,152.918 337.5,151C 341.095,149.398 344.429,147.398 347.5,145C 350.232,144.587 352.899,143.92 355.5,143C 363.641,137.826 372.641,134.16 382.5,132C 386.512,129.138 390.678,126.638 395,124.5C 399.092,124.019 402.925,122.852 406.5,121C 411.5,120.333 416.5,120.333 421.5,121C 426.96,122.954 429.96,126.788 430.5,132.5 Z"/></g>
<g><path style="opacity:1" fill="#d0c1f5" d="M 302.5,168.5 C 279.179,178.853 255.512,188.686 231.5,198C 225.223,200.969 219.223,204.302 213.5,208C 211.19,208.497 208.857,208.663 206.5,208.5C 208.927,206.442 211.593,204.609 214.5,203C 219.041,201.574 223.541,200.074 228,198.5C 230.951,192.608 229.118,190.275 222.5,191.5C 222.5,190.167 222.5,188.833 222.5,187.5C 227.179,187.334 231.845,187.501 236.5,188C 237.634,189.016 237.301,189.683 235.5,190C 236.784,190.684 237.951,190.517 239,189.5C 239.739,190.574 240.739,191.241 242,191.5C 245.498,189.358 249.332,188.192 253.5,188C 258.166,184.168 263.499,182.001 269.5,181.5C 269.759,177.932 271.759,176.599 275.5,177.5C 275.5,176.5 275.5,175.5 275.5,174.5C 276.5,174.5 277.5,174.5 278.5,174.5C 278.5,173.5 278.5,172.5 278.5,171.5C 275.833,171.5 273.167,171.5 270.5,171.5C 270.5,170.5 270.5,169.5 270.5,168.5C 276.357,168.844 282.024,169.844 287.5,171.5C 292.447,170.176 297.447,169.176 302.5,168.5 Z"/></g>
<g><path style="opacity:1" fill="#d5caf2" d="M 374.5,188.5 C 379.953,172.807 375.62,170.307 361.5,181C 359.866,181.494 358.199,181.66 356.5,181.5C 359.436,179.692 362.436,177.859 365.5,176C 370.9,174.756 376.066,172.923 381,170.5C 381.667,172.167 381.667,173.833 381,175.5C 379.569,180.315 377.402,184.648 374.5,188.5 Z"/></g>
<g><path style="opacity:1" fill="#cdbbfa" d="M 374.5,188.5 C 374.5,188.833 374.5,189.167 374.5,189.5C 373.115,190.614 371.615,191.614 370,192.5C 367.819,197.436 365.819,202.436 364,207.5C 362.172,208.661 360.672,210.161 359.5,212C 360.459,214.12 360.626,216.287 360,218.5C 358.177,222.339 356.177,226.006 354,229.5C 353.505,231.473 353.338,233.473 353.5,235.5C 351.928,240.391 350.428,245.391 349,250.5C 348.148,251.571 347.315,252.571 346.5,253.5C 345.624,253.369 344.957,253.702 344.5,254.5C 340.975,261.74 337.642,269.073 334.5,276.5C 332.167,277.167 329.833,277.833 327.5,278.5C 326.914,278.291 326.414,277.957 326,277.5C 325.005,280.126 324.672,282.793 325,285.5C 326.646,284.221 327.813,282.555 328.5,280.5C 328.833,281.167 329.167,281.833 329.5,282.5C 329.016,289.759 327.683,296.759 325.5,303.5C 313.348,331.779 301.348,360.112 289.5,388.5C 289.043,389.298 288.376,389.631 287.5,389.5C 285.031,390.607 284.031,392.607 284.5,395.5C 283.07,395.421 281.736,395.754 280.5,396.5C 277.241,393.997 275.741,390.664 276,386.5C 274.368,384.069 272.868,381.569 271.5,379C 272.343,377.065 272.343,375.231 271.5,373.5C 269.492,375.762 269.159,375.262 270.5,372C 268.298,370.612 266.298,369.112 264.5,367.5C 257.574,353.968 251.407,339.968 246,325.5C 243.993,320.812 241.493,316.479 238.5,312.5C 238.649,311.448 238.483,310.448 238,309.5C 233.673,305.453 228.507,303.286 222.5,303C 214.837,298.592 206.671,295.092 198,292.5C 196.485,289.812 194.318,287.812 191.5,286.5C 190.228,287.046 188.894,287.379 187.5,287.5C 182.011,283.289 175.677,281.289 168.5,281.5C 164.326,281.341 160.992,279.675 158.5,276.5C 158.238,274.436 157.071,273.103 155,272.5C 154.333,271.5 154.333,270.5 155,269.5C 159.939,268.37 164.773,266.87 169.5,265C 171.424,263.25 173.091,261.417 174.5,259.5C 183.897,256.312 193.231,252.812 202.5,249C 203.71,247.961 204.71,246.794 205.5,245.5C 224.472,237.174 243.472,229.174 262.5,221.5C 265.572,221.817 268.572,221.484 271.5,220.5C 276.365,218.357 281.365,216.524 286.5,215C 287.047,214.075 287.713,213.242 288.5,212.5C 291.623,211.202 294.623,209.702 297.5,208C 299.713,207.374 301.88,207.541 304,208.5C 305.876,207.381 306.709,205.714 306.5,203.5C 308.553,203.598 310.22,202.931 311.5,201.5C 315.443,198.522 319.777,196.022 324.5,194C 334.91,189.068 345.577,184.901 356.5,181.5C 358.199,181.66 359.866,181.494 361.5,181C 375.62,170.307 379.953,172.807 374.5,188.5 Z"/></g>
<g><path style="opacity:1" fill="#d0c2f3" d="M 374.5,189.5 C 368.643,201.579 363.476,213.912 359,226.5C 357.128,229.596 355.295,232.596 353.5,235.5C 353.338,233.473 353.505,231.473 354,229.5C 356.177,226.006 358.177,222.339 360,218.5C 360.626,216.287 360.459,214.12 359.5,212C 360.672,210.161 362.172,208.661 364,207.5C 365.819,202.436 367.819,197.436 370,192.5C 371.615,191.614 373.115,190.614 374.5,189.5 Z"/></g>
<g><path style="opacity:1" fill="#9386b0" d="M 6.5,209.5 C 7.00742,214.316 6.00742,218.65 3.5,222.5C 3.88157,217.908 4.88157,213.575 6.5,209.5 Z"/></g>
<g><path style="opacity:1" fill="#cfc0f4" d="M 198.5,212.5 C 188.881,217.209 178.881,221.376 168.5,225C 167.167,226 165.833,227 164.5,228C 154.768,231.669 145.101,235.336 135.5,239C 134.833,240.333 133.833,241.333 132.5,242C 117.639,246.265 103.639,252.432 90.5,260.5C 90.5,259.5 90.5,258.5 90.5,257.5C 97.1292,255.216 103.463,252.049 109.5,248C 114.394,246.189 119.394,244.522 124.5,243C 127.692,241.906 130.358,240.073 132.5,237.5C 135.706,236.192 139.04,235.525 142.5,235.5C 142.759,232.52 141.426,230.687 138.5,230C 138.833,229.667 139.167,229.333 139.5,229C 142.052,229.696 144.719,230.529 147.5,231.5C 155.127,230.38 161.46,226.88 166.5,221C 166,220.5 165.5,220 165,219.5C 163.57,219.694 162.07,219.694 160.5,219.5C 159.417,218.635 159.251,217.635 160,216.5C 165.237,216.999 170.404,217.999 175.5,219.5C 180.157,217.839 184.824,216.505 189.5,215.5C 189.5,214.5 189.5,213.5 189.5,212.5C 192.5,212.5 195.5,212.5 198.5,212.5 Z"/></g>
<g><path style="opacity:1" fill="#cfc2f2" d="M 311.5,201.5 C 310.22,202.931 308.553,203.598 306.5,203.5C 306.709,205.714 305.876,207.381 304,208.5C 301.88,207.541 299.713,207.374 297.5,208C 294.623,209.702 291.623,211.202 288.5,212.5C 287.713,213.242 287.047,214.075 286.5,215C 281.365,216.524 276.365,218.357 271.5,220.5C 268.572,221.484 265.572,221.817 262.5,221.5C 276.023,215.259 289.69,209.093 303.5,203C 306.168,202.433 308.834,201.933 311.5,201.5 Z"/></g>
<g><path style="opacity:1" fill="#d6cbf1" d="M 394.5,228.5 C 393.323,233.672 391.656,238.672 389.5,243.5C 387.675,246.342 385.675,249.009 383.5,251.5C 385.296,247.613 386.796,243.613 388,239.5C 389.676,235.473 391.842,231.806 394.5,228.5 Z"/></g>
<g><path style="opacity:1" fill="#dacef5" d="M 205.5,245.5 C 204.71,246.794 203.71,247.961 202.5,249C 193.231,252.812 183.897,256.312 174.5,259.5C 184.481,254.062 194.814,249.395 205.5,245.5 Z"/></g>
<g><path style="opacity:1" fill="#cec1f1" d="M 174.5,259.5 C 173.091,261.417 171.424,263.25 169.5,265C 164.773,266.87 159.939,268.37 155,269.5C 154.333,270.5 154.333,271.5 155,272.5C 157.071,273.103 158.238,274.436 158.5,276.5C 154.319,275.414 150.319,273.747 146.5,271.5C 155.306,266.434 164.64,262.434 174.5,259.5 Z"/></g>
<g><path style="opacity:1" fill="#d0c2f5" d="M 346.5,253.5 C 340.006,270.476 333.006,287.142 325.5,303.5C 327.683,296.759 329.016,289.759 329.5,282.5C 329.167,281.833 328.833,281.167 328.5,280.5C 327.813,282.555 326.646,284.221 325,285.5C 324.672,282.793 325.005,280.126 326,277.5C 326.414,277.957 326.914,278.291 327.5,278.5C 329.833,277.833 332.167,277.167 334.5,276.5C 337.642,269.073 340.975,261.74 344.5,254.5C 344.957,253.702 345.624,253.369 346.5,253.5 Z"/></g>
<g><path style="opacity:1" fill="#cebff5" d="M 383.5,251.5 C 383.82,254.898 383.487,258.232 382.5,261.5C 379.419,265.713 377.085,270.379 375.5,275.5C 377.918,279.767 379.585,284.433 380.5,289.5C 380.402,291.619 379.569,293.286 378,294.5C 375.895,291.893 375.062,288.893 375.5,285.5C 372.1,286.524 369.767,288.858 368.5,292.5C 368.709,293.086 369.043,293.586 369.5,294C 365.323,297.783 363.156,302.616 363,308.5C 361.989,309.337 360.822,309.67 359.5,309.5C 359.579,312.271 359.079,314.937 358,317.5C 357.578,319.426 356.411,320.426 354.5,320.5C 356.463,312.685 359.63,305.352 364,298.5C 370.618,282.794 377.118,267.128 383.5,251.5 Z"/></g>
<g><path style="opacity:1" fill="#d0c3f5" d="M 90.5,260.5 C 85.4158,270.142 87.0825,278.475 95.5,285.5C 114.743,293.444 133.743,301.777 152.5,310.5C 144.746,309.313 137.413,306.813 130.5,303C 128.866,302.506 127.199,302.34 125.5,302.5C 125.5,301.5 125.5,300.5 125.5,299.5C 120.891,299.688 116.891,298.355 113.5,295.5C 109.519,294.939 105.686,293.939 102,292.5C 100.584,293.573 99.2504,293.573 98,292.5C 94.5384,295.244 93.0384,294.244 93.5,289.5C 92.1779,289.67 91.0113,289.337 90,288.5C 85.8881,280.686 84.5547,272.352 86,263.5C 86.9184,261.624 88.4184,260.624 90.5,260.5 Z"/></g>
<g><path style="opacity:1" fill="#d1c5f2" d="M 168.5,281.5 C 175.677,281.289 182.011,283.289 187.5,287.5C 188.894,287.379 190.228,287.046 191.5,286.5C 194.318,287.812 196.485,289.812 198,292.5C 206.671,295.092 214.837,298.592 222.5,303C 228.507,303.286 233.673,305.453 238,309.5C 238.483,310.448 238.649,311.448 238.5,312.5C 215.057,302.141 191.724,291.808 168.5,281.5 Z"/></g>
<g><path style="opacity:1" fill="#958ea9" d="M 5.5,329.5 C 6.58617,329.62 7.25284,330.287 7.5,331.5C 8.30221,334.449 8.63554,337.449 8.5,340.5C 7.05516,337.063 6.05516,333.397 5.5,329.5 Z"/></g>
<g><path style="opacity:1" fill="#d2c6f2" d="M 152.5,310.5 C 173.111,320.303 194.111,329.303 215.5,337.5C 218.098,343.034 220.432,348.7 222.5,354.5C 221.038,352.745 219.205,351.412 217,350.5C 216.461,347.471 215.794,344.471 215,341.5C 214.221,340.272 213.221,339.272 212,338.5C 204.119,336.976 197.285,333.476 191.5,328C 185.802,327.603 180.802,325.603 176.5,322C 170.49,319.993 164.49,317.993 158.5,316C 157.027,315.29 156.36,314.124 156.5,312.5C 154.62,312.771 153.287,312.104 152.5,310.5 Z"/></g>
<g><path style="opacity:1" fill="#b9acd9" d="M 2.5,312.5 C 4.01739,312.511 5.18405,313.177 6,314.5C 9.38865,328.566 11.8886,342.899 13.5,357.5C 11.076,352.153 9.40935,346.487 8.5,340.5C 8.63554,337.449 8.30221,334.449 7.5,331.5C 7.25284,330.287 6.58617,329.62 5.5,329.5C 3.96539,323.961 2.96539,318.294 2.5,312.5 Z"/></g>
<g><path style="opacity:1" fill="#d3c7f1" d="M 351.5,327.5 C 349.887,335.27 347.053,342.603 343,349.5C 342.849,354.977 340.849,359.643 337,363.5C 335.4,366.334 334.234,369.334 333.5,372.5C 332.817,372.863 332.15,373.196 331.5,373.5C 333.374,367.414 335.541,361.414 338,355.5C 342.797,346.242 347.297,336.908 351.5,327.5 Z"/></g>
<g><path style="opacity:1" fill="#d9cff4" d="M 227.5,367.5 C 228.79,368.058 229.623,369.058 230,370.5C 231.759,374.009 232.926,377.675 233.5,381.5C 231.693,380.164 230.193,378.497 229,376.5C 228.637,373.456 228.137,370.456 227.5,367.5 Z"/></g>
<g><path style="opacity:1" fill="#cec0f2" d="M 264.5,367.5 C 266.298,369.112 268.298,370.612 270.5,372C 269.159,375.262 269.492,375.762 271.5,373.5C 272.343,375.231 272.343,377.065 271.5,379C 272.868,381.569 274.368,384.069 276,386.5C 275.741,390.664 277.241,393.997 280.5,396.5C 281.736,395.754 283.07,395.421 284.5,395.5C 284.031,392.607 285.031,390.607 287.5,389.5C 286.236,395.25 284.069,400.584 281,405.5C 274.627,393.213 269.127,380.547 264.5,367.5 Z"/></g>
<g><path style="opacity:1" fill="#b5abd0" d="M 37.5,409.5 C 28.0536,395.271 20.7203,379.937 15.5,363.5C 16.1174,363.389 16.6174,363.056 17,362.5C 19.8371,367.484 21.8371,372.817 23,378.5C 24.0195,379.687 25.1861,380.687 26.5,381.5C 30.0961,390.797 33.7628,400.13 37.5,409.5 Z"/></g>
<g><path style="opacity:1" fill="#bbb0d2" d="M 37.5,409.5 C 38.5,409.5 39.5,409.5 40.5,409.5C 40.3505,410.552 40.5172,411.552 41,412.5C 45.6524,415.539 47.819,419.872 47.5,425.5C 43.6692,420.511 40.3359,415.178 37.5,409.5 Z"/></g>
<g><path style="opacity:1" fill="#b5adc8" d="M 47.5,425.5 C 49.0443,425.703 50.3777,426.37 51.5,427.5C 53.338,430.495 55.338,433.329 57.5,436C 56.944,436.383 56.6107,436.883 56.5,437.5C 53.0251,433.896 50.0251,429.896 47.5,425.5 Z"/></g>
<g><path style="opacity:1" fill="#b8aeca" d="M 57.5,438.5 C 59.3936,439.048 61.0603,440.048 62.5,441.5C 63.6405,442.425 63.6405,443.259 62.5,444C 66.3349,445.747 69.0016,448.581 70.5,452.5C 74.3315,454.988 76.9981,458.321 78.5,462.5C 70.5594,455.258 63.5594,447.258 57.5,438.5 Z"/></g>
<g><path style="opacity:1" fill="#c6b8e4" d="M 78.5,462.5 C 81.4005,463.895 84.4005,465.061 87.5,466C 90.4929,468.444 92.8262,471.277 94.5,474.5C 92.5,473.833 90.5,473.167 88.5,472.5C 84.8333,469.5 81.5,466.167 78.5,462.5 Z"/></g>
<g><path style="opacity:1" fill="#d1c4f3" d="M 249.5,418.5 C 255.746,430.456 261.246,442.79 266,455.5C 267.833,457.833 269.667,460.167 271.5,462.5C 282.918,468.168 291.418,465.168 297,453.5C 298.159,448.515 300.325,444.182 303.5,440.5C 303.567,442.401 303.233,444.234 302.5,446C 299.816,453.201 296.482,460.034 292.5,466.5C 288.314,466.544 284.147,466.877 280,467.5C 275.923,467.04 272.09,465.873 268.5,464C 264.061,457.098 261.061,449.598 259.5,441.5C 256.566,440.711 254.732,438.711 254,435.5C 252.185,429.894 250.685,424.227 249.5,418.5 Z"/></g>
<g><path style="opacity:1" fill="#b3abc6" d="M 88.5,472.5 C 90.5,473.167 92.5,473.833 94.5,474.5C 98.095,477.755 101.762,481.088 105.5,484.5C 107.071,485.309 108.738,485.643 110.5,485.5C 110.567,486.959 110.234,488.292 109.5,489.5C 102.186,484.182 95.1858,478.516 88.5,472.5 Z"/></g>
<g><path style="opacity:1" fill="#7c7197" d="M 332.5,535.5 C 330.095,536.768 327.428,537.435 324.5,537.5C 324.611,536.883 324.944,536.383 325.5,536C 327.81,535.503 330.143,535.337 332.5,535.5 Z"/></g>
</svg>
