<?xml version="1.0" encoding="UTF-8"?>
<!DOCTYPE svg PUBLIC "-//W3C//DTD SVG 1.1//EN" "http://www.w3.org/Graphics/SVG/1.1/DTD/svg11.dtd">
<svg xmlns="http://www.w3.org/2000/svg" version="1.1" width="500px" height="500px" style="shape-rendering:geometricPrecision; text-rendering:geometricPrecision; image-rendering:optimizeQuality; fill-rule:evenodd; clip-rule:evenodd" xmlns:xlink="http://www.w3.org/1999/xlink">
<g><path style="opacity:0.999" fill="#c99eec" d="M 30.5,-0.5 C 176.5,-0.5 322.5,-0.5 468.5,-0.5C 484.465,4.13161 494.798,14.4649 499.5,30.5C 499.5,176.5 499.5,322.5 499.5,468.5C 494.798,484.535 484.465,494.868 468.5,499.5C 322.5,499.5 176.5,499.5 30.5,499.5C 14.5,494.833 4.16667,484.5 -0.5,468.5C -0.5,322.5 -0.5,176.5 -0.5,30.5C 4.2017,14.4649 14.535,4.13161 30.5,-0.5 Z"/></g>
<g><path style="opacity:1" fill="#f8f2fc" d="M 323.5,84.5 C 323.577,85.7498 324.244,86.5831 325.5,87C 324.692,87.3076 324.025,87.8076 323.5,88.5C 324.098,89.7946 324.598,91.1279 325,92.5C 328.058,93.7631 331.225,94.7631 334.5,95.5C 334.291,96.086 333.957,96.586 333.5,97C 336.893,98.222 339.56,100.389 341.5,103.5C 343.851,101.771 346.518,101.104 349.5,101.5C 349.298,103.989 349.798,106.323 351,108.5C 351.292,106.674 351.125,104.841 350.5,103C 350.684,101.624 351.351,100.791 352.5,100.5C 392.486,128.765 417.152,167.099 426.5,215.5C 426.156,220.122 426.823,224.455 428.5,228.5C 431.763,260.995 427.096,292.328 414.5,322.5C 410.818,322.555 407.485,323.555 404.5,325.5C 404.297,327.39 404.963,328.89 406.5,330C 404.757,331.11 403.424,332.61 402.5,334.5C 397.843,332.526 395.843,333.859 396.5,338.5C 396.023,339.478 395.357,340.311 394.5,341C 395.5,341.833 396.5,342.667 397.5,343.5C 396.652,345.409 396.318,347.409 396.5,349.5C 395.448,349.351 394.448,349.517 393.5,350C 395.058,350.21 396.391,350.71 397.5,351.5C 383.975,371.524 366.975,388.024 346.5,401C 329.484,411.174 311.484,419.174 292.5,425C 283.845,426.503 275.178,427.669 266.5,428.5C 253.017,428.297 239.684,428.297 226.5,428.5C 219.644,427.026 212.644,425.692 205.5,424.5C 150.534,409.717 110.367,376.717 85,325.5C 76.8744,308.658 72.0411,290.991 70.5,272.5C 70.2606,270.533 70.5939,268.699 71.5,267C 70.8742,266.25 70.3742,265.416 70,264.5C 69.5001,250.504 69.3334,236.504 69.5,222.5C 82.4714,154.016 121.138,106.183 185.5,79C 211.65,69.0268 238.65,65.6935 266.5,69C 273.856,69.8362 281.19,70.8362 288.5,72C 300.335,75.6674 312.001,79.834 323.5,84.5 Z"/></g>
<g><path style="opacity:1" fill="#e9d7f7" d="M 194.5,85.5 C 200.176,85.3339 205.843,85.5006 211.5,86C 206.177,86.4994 200.844,86.666 195.5,86.5C 195.662,88.5273 195.495,90.5273 195,92.5C 194.503,90.1902 194.337,87.8568 194.5,85.5 Z"/></g>
<g><path style="opacity:1" fill="#f2e8fa" d="M 323.5,84.5 C 333.857,88.5133 343.524,93.8466 352.5,100.5C 351.351,100.791 350.684,101.624 350.5,103C 351.125,104.841 351.292,106.674 351,108.5C 349.798,106.323 349.298,103.989 349.5,101.5C 346.518,101.104 343.851,101.771 341.5,103.5C 339.56,100.389 336.893,98.222 333.5,97C 333.957,96.586 334.291,96.086 334.5,95.5C 331.225,94.7631 328.058,93.7631 325,92.5C 324.598,91.1279 324.098,89.7946 323.5,88.5C 324.025,87.8076 324.692,87.3076 325.5,87C 324.244,86.5831 323.577,85.7498 323.5,84.5 Z"/></g>
<g><path style="opacity:1" fill="#eddef9" d="M 363.5,115.5 C 363.56,114.957 363.893,114.624 364.5,114.5C 365.308,116.423 365.808,118.423 366,120.5C 366.689,119.643 367.522,118.977 368.5,118.5C 369.452,120.045 369.785,121.712 369.5,123.5C 370.833,123.5 372.167,123.5 373.5,123.5C 373.5,125.167 373.5,126.833 373.5,128.5C 375.167,128.5 376.833,128.5 378.5,128.5C 378.5,129.5 378.5,130.5 378.5,131.5C 382.243,131.459 382.41,132.126 379,133.5C 377.812,132.437 377.312,131.103 377.5,129.5C 375.833,129.5 374.167,129.5 372.5,129.5C 372.5,127.833 372.5,126.167 372.5,124.5C 371.167,124.5 369.833,124.5 368.5,124.5C 368.657,123.127 368.49,121.793 368,120.5C 366.989,121.337 365.822,121.67 364.5,121.5C 364.795,119.265 364.461,117.265 363.5,115.5 Z"/></g>
<g><path style="opacity:1" fill="#c99eec" d="M 218.5,323.5 C 217.744,319.233 216.411,315.233 214.5,311.5C 211.257,295.934 207.09,280.601 202,265.5C 197.548,262.997 192.715,261.831 187.5,262C 177.246,259.868 167.08,257.368 157,254.5C 153.739,251.164 152.739,247.164 154,242.5C 155.167,240 157,238.167 159.5,237C 176.818,230.062 194.151,223.229 211.5,216.5C 215.475,216.514 218.808,215.181 221.5,212.5C 257.028,196.915 293.028,182.081 329.5,168C 333.5,167.333 337.5,167.333 341.5,168C 344.041,170.749 345.041,174.082 344.5,178C 342.189,195.419 338.356,212.586 333,229.5C 326.563,262.013 319.23,294.347 311,326.5C 307.34,330.367 302.84,331.534 297.5,330C 283.902,317.729 269.735,306.229 255,295.5C 252.453,298.224 250.119,301.224 248,304.5C 243.3,312.372 238.8,320.372 234.5,328.5C 227.358,332.3 222.025,330.633 218.5,323.5 Z"/></g>
<g><path style="opacity:1" fill="#d7b7f0" d="M 221.5,212.5 C 218.808,215.181 215.475,216.514 211.5,216.5C 214.53,214.597 217.863,213.263 221.5,212.5 Z"/></g>
<g><path style="opacity:1" fill="#f4edfb" d="M 288.5,216.5 C 289.239,216.369 289.906,216.536 290.5,217C 274.667,236.167 258.833,255.333 243,274.5C 239.5,280.833 236,287.167 232.5,293.5C 231.5,294.833 230.5,294.833 229.5,293.5C 226.529,282.44 223.696,271.44 221,260.5C 240.3,247.209 260.133,234.709 280.5,223C 283.355,220.969 286.022,218.803 288.5,216.5 Z"/></g>
<g><path style="opacity:1" fill="#e4cdf6" d="M 426.5,215.5 C 428.177,219.545 428.844,223.878 428.5,228.5C 426.823,224.455 426.156,220.122 426.5,215.5 Z"/></g>
<g><path style="opacity:1" fill="#e1c9f5" d="M 69.5,222.5 C 69.3334,236.504 69.5001,250.504 70,264.5C 70.3742,265.416 70.8742,266.25 71.5,267C 70.5939,268.699 70.2606,270.533 70.5,272.5C 68.2222,265.476 67.2222,258.143 67.5,250.5C 67.7442,240.982 68.4109,231.649 69.5,222.5 Z"/></g>
<g><path style="opacity:1" fill="#ead8f8" d="M 214.5,311.5 C 216.411,315.233 217.744,319.233 218.5,323.5C 215.952,320.004 214.619,316.004 214.5,311.5 Z"/></g>
<g><path style="opacity:1" fill="#f2e8fa" d="M 414.5,322.5 C 409.575,332.695 403.908,342.362 397.5,351.5C 396.391,350.71 395.058,350.21 393.5,350C 394.448,349.517 395.448,349.351 396.5,349.5C 396.318,347.409 396.652,345.409 397.5,343.5C 396.5,342.667 395.5,341.833 394.5,341C 395.357,340.311 396.023,339.478 396.5,338.5C 395.843,333.859 397.843,332.526 402.5,334.5C 403.424,332.61 404.757,331.11 406.5,330C 404.963,328.89 404.297,327.39 404.5,325.5C 407.485,323.555 410.818,322.555 414.5,322.5 Z"/></g>
<g><path style="opacity:1" fill="#e4ccf6" d="M 205.5,424.5 C 212.644,425.692 219.644,427.026 226.5,428.5C 221.496,428.111 216.496,427.611 211.5,427C 209.277,426.434 207.277,425.6 205.5,424.5 Z"/></g>
<g><path style="opacity:1" fill="#e8d6f7" d="M 266.5,428.5 C 259.836,429.349 253.003,430.016 246,430.5C 239.329,430.027 232.829,429.361 226.5,428.5C 239.684,428.297 253.017,428.297 266.5,428.5 Z"/></g>
</svg>
