<?xml version="1.0" standalone="no"?>
<!DOCTYPE svg PUBLIC "-//W3C//DTD SVG 20010904//EN"
 "http://www.w3.org/TR/2001/REC-SVG-20010904/DTD/svg10.dtd">
<svg version="1.0" xmlns="http://www.w3.org/2000/svg"
 width="157.000000pt" height="158.000000pt" viewBox="0 0 157.000000 158.000000"
 preserveAspectRatio="xMidYMid meet">

<g transform="translate(0.000000,158.000000) scale(0.100000,-0.100000)"
fill="#000000" stroke="none">
<path d="M62 1358 l3 -153 139 -2 c76 -1 145 1 153 4 11 4 13 34 11 152 l-3
146 -153 3 -153 3 3 -153z m258 2 l0 -110 -110 0 -110 0 0 103 c0 57 3 107 7
110 3 4 53 7 110 7 l103 0 0 -110z"/>
<path d="M150 1355 l0 -66 63 3 62 3 3 63 3 62 -66 0 -65 0 0 -65z"/>
<path d="M670 1490 c0 -13 -7 -20 -20 -20 -17 0 -20 -7 -20 -45 0 -41 -2 -45
-25 -45 -23 0 -25 4 -25 45 l0 45 -85 0 c-84 0 -85 0 -85 -25 0 -18 5 -25 20
-25 13 0 20 -7 20 -20 0 -13 -7 -20 -20 -20 -17 0 -20 -7 -20 -45 0 -38 3 -45
20 -45 13 0 20 -7 20 -20 0 -13 -7 -20 -20 -20 -19 0 -20 -7 -20 -90 0 -74 3
-90 15 -90 9 0 20 11 25 25 6 15 17 25 30 25 17 0 20 -6 20 -45 0 -38 3 -45
20 -45 13 0 20 -7 20 -19 0 -12 8 -21 21 -23 l21 -3 -21 -27 c-12 -14 -21 -33
-21 -42 0 -9 -8 -16 -19 -16 -13 0 -21 -8 -23 -22 -2 -15 -11 -24 -25 -26 -15
-2 -23 -10 -23 -23 0 -17 -7 -19 -66 -19 -62 0 -65 1 -62 22 2 18 10 22 43 22
34 1 41 5 43 24 3 21 0 22 -62 22 -59 0 -66 2 -66 19 0 16 8 20 43 23 35 2 43
7 45 26 3 18 10 22 43 22 32 0 39 3 39 20 0 17 -7 20 -39 20 -30 0 -40 -4 -44
-20 -7 -27 -47 -27 -47 -1 0 13 8 21 23 23 12 2 22 10 22 18 0 8 -10 16 -22
18 -32 5 -32 49 0 54 12 2 22 10 22 18 0 12 -18 16 -87 18 -82 3 -88 1 -88
-17 0 -16 8 -20 42 -23 36 -2 44 -7 46 -25 3 -23 2 -23 -107 -23 -104 0 -111
-1 -111 -20 0 -18 7 -20 85 -20 70 0 85 -3 85 -15 0 -9 11 -20 25 -25 35 -13
34 -50 -1 -50 -23 0 -26 3 -22 25 5 24 3 25 -38 25 -41 0 -44 -2 -44 -26 0
-21 -4 -25 -22 -22 -15 2 -24 11 -26 26 -2 14 -10 22 -23 22 -17 0 -19 -8 -19
-90 0 -83 1 -90 20 -90 13 0 20 7 20 19 0 13 8 21 23 23 14 2 23 11 25 26 4
29 39 30 44 0 4 -31 26 -34 38 -4 11 31 50 36 50 7 0 -20 -25 -35 -42 -25 -6
4 -8 -4 -6 -17 2 -20 10 -24 45 -27 35 -3 43 -7 43 -23 0 -12 7 -19 19 -19 11
0 23 -5 27 -11 10 -17 -13 -33 -48 -33 -27 -1 -34 -6 -36 -24 -3 -17 -9 -22
-25 -20 -18 2 -23 11 -25 46 l-3 42 -85 0 c-76 0 -84 -2 -84 -19 0 -10 9 -21
20 -24 16 -4 20 -14 20 -46 0 -37 3 -41 24 -41 22 0 25 5 28 43 2 29 8 42 18
42 10 0 16 -13 18 -42 l3 -43 65 0 c62 0 64 -1 64 -25 0 -23 -4 -25 -45 -25
-38 0 -45 -3 -45 -20 0 -13 -7 -20 -20 -20 -13 0 -20 7 -20 20 0 18 -7 20 -65
20 l-65 0 0 -85 0 -85 45 0 c38 0 45 3 45 20 0 13 7 20 20 20 13 0 20 -7 20
-20 0 -17 7 -20 45 -20 38 0 45 3 45 20 0 13 7 20 20 20 13 0 20 -7 20 -20 0
-27 40 -27 47 0 3 11 14 20 24 20 15 0 19 -7 19 -40 0 -33 3 -40 20 -40 15 0
20 -7 20 -25 0 -18 -5 -25 -20 -25 -18 0 -20 -7 -20 -65 0 -58 2 -65 20 -65
13 0 20 -7 20 -20 0 -13 -7 -20 -20 -20 -15 0 -20 -7 -20 -26 0 -23 3 -25 43
-22 42 3 42 3 45 46 3 34 7 42 23 42 12 0 19 -7 19 -20 0 -13 7 -20 20 -20 13
0 20 7 20 20 0 15 7 20 25 20 23 0 25 -4 25 -45 0 -41 -2 -45 -25 -45 -18 0
-25 -5 -25 -20 0 -15 7 -20 25 -20 18 0 25 5 25 20 0 13 7 20 20 20 13 0 20
-7 20 -20 0 -15 7 -20 25 -20 14 0 24 3 24 7 -3 21 3 31 21 36 12 3 20 14 20
26 0 14 6 21 20 21 17 0 20 -7 20 -45 0 -38 3 -45 20 -45 12 0 20 7 21 18 4
71 2 67 47 70 l42 3 0 -45 c0 -42 2 -46 25 -46 25 0 25 1 25 85 0 78 2 85 20
85 18 0 20 -7 20 -85 l0 -85 65 0 c58 0 65 2 65 19 0 16 -8 20 -42 23 -35 2
-43 7 -43 23 0 13 8 21 23 23 14 2 22 10 22 23 0 16 7 19 40 19 33 0 40 3 40
20 0 17 7 20 45 20 l45 0 0 -40 c0 -36 2 -40 26 -40 21 0 25 -4 22 -22 -2 -19
-10 -24 -45 -26 -40 -3 -43 -2 -43 23 0 22 -4 26 -22 23 -20 -3 -23 -9 -23
-43 l0 -40 88 -3 c82 -3 87 -2 87 18 0 18 6 20 65 20 l65 0 0 110 0 110 -45 0
c-41 0 -45 2 -45 25 0 20 5 25 26 25 19 0 25 5 22 17 -2 13 -15 19 -46 21
l-42 3 0 -45 c0 -39 -3 -46 -20 -46 -19 0 -20 7 -20 90 0 83 1 90 20 90 15 0
20 -7 20 -25 0 -18 5 -25 20 -25 15 0 20 7 20 25 0 18 -5 25 -20 25 -13 0 -20
7 -20 20 0 17 7 20 41 20 32 0 42 -4 46 -20 3 -11 14 -20 24 -20 12 0 19 7 19
20 0 13 -7 20 -19 20 -16 0 -20 8 -23 42 -3 36 -7 44 -26 46 -20 3 -23 8 -20
45 2 34 7 42 23 42 13 0 21 -8 23 -22 2 -15 10 -23 23 -23 15 0 20 6 17 23 -2
15 -9 21 -20 19 -13 -2 -18 4 -18 23 0 18 5 25 20 25 13 0 20 7 20 20 0 17 -7
20 -45 20 -37 0 -45 3 -45 19 0 10 -9 21 -20 24 -12 3 -20 14 -20 26 0 30 -38
28 -42 -1 -2 -15 -11 -24 -25 -26 -15 -2 -23 -10 -23 -23 0 -16 7 -19 45 -19
38 0 45 -3 45 -20 0 -18 -7 -20 -65 -20 -58 0 -65 2 -65 20 0 14 -7 20 -21 20
-12 0 -23 8 -26 19 -3 11 -13 21 -24 24 -11 3 -19 14 -19 26 0 19 6 21 65 21
58 0 65 2 65 20 0 13 -7 20 -20 20 -18 0 -20 7 -20 65 l0 65 85 0 c78 0 85 -2
85 -20 0 -18 -7 -20 -65 -20 -58 0 -65 -2 -65 -20 0 -18 7 -20 65 -20 63 0 65
-1 65 -25 0 -23 4 -25 45 -25 41 0 45 2 45 25 0 18 -5 25 -20 25 -13 0 -20 7
-20 20 0 13 7 20 20 20 17 0 20 7 20 45 0 38 -3 45 -20 45 -13 0 -20 7 -20 20
0 15 -7 20 -25 20 -18 0 -25 -5 -25 -20 0 -13 -7 -20 -20 -20 -13 0 -20 7 -20
20 0 17 -7 20 -45 20 -38 0 -45 -3 -45 -20 0 -13 -7 -20 -20 -20 -13 0 -20 7
-20 20 0 17 -7 20 -45 20 l-45 0 0 65 0 65 -65 0 -65 0 0 65 c0 58 -2 65 -20
65 -15 0 -20 7 -20 25 0 24 2 25 65 25 58 0 65 2 65 20 0 18 -7 20 -65 20 -58
0 -65 -2 -65 -20 0 -17 -7 -20 -45 -20 -38 0 -45 3 -45 20 0 14 -7 20 -21 20
-12 0 -23 -8 -26 -20 -3 -11 -14 -20 -24 -20 -12 0 -19 7 -19 20 0 13 -7 20
-20 20 -14 0 -20 -7 -20 -21 0 -15 -5 -20 -22 -17 -16 2 -22 9 -20 21 2 12 -4
17 -23 17 -18 0 -25 -5 -25 -20z m50 -85 c0 -58 2 -65 20 -65 17 0 20 7 20 40
0 33 3 40 20 40 13 0 20 -7 20 -20 0 -17 7 -20 45 -20 38 0 45 3 45 19 0 13
-8 21 -22 23 -15 2 -24 11 -26 26 -3 18 1 22 22 22 21 0 26 -5 26 -25 0 -23 4
-25 45 -25 38 0 45 -3 45 -20 0 -15 -7 -20 -26 -20 -23 0 -25 -3 -22 -42 2
-36 7 -44 26 -46 14 -2 22 -10 22 -23 0 -12 7 -19 20 -19 17 0 20 -7 20 -45 0
-38 3 -45 19 -45 16 0 20 8 23 43 2 34 7 42 23 42 16 0 21 -8 23 -42 3 -35 7
-43 23 -43 12 0 19 -7 19 -19 0 -16 -8 -20 -42 -23 -36 -3 -44 -7 -46 -26 -2
-15 -9 -22 -20 -20 -12 2 -18 15 -20 46 -3 33 -7 42 -22 42 -15 0 -19 -9 -22
-42 -2 -36 -7 -44 -25 -46 -33 -5 -31 -42 2 -42 18 0 25 5 25 20 0 13 7 20 20
20 17 0 20 -7 20 -40 l0 -40 45 0 c38 0 45 3 45 20 0 17 7 20 40 20 l40 0 0
-45 c0 -38 -3 -45 -20 -45 -13 0 -20 -7 -20 -20 0 -13 -7 -20 -19 -20 -16 0
-20 -8 -23 -42 -2 -35 -7 -43 -23 -43 -18 0 -20 8 -23 63 -3 56 -5 62 -25 62
-13 0 -40 19 -66 45 -24 25 -53 45 -63 45 -11 0 -18 7 -18 20 0 17 -7 20 -45
20 -34 0 -45 -4 -45 -16 0 -12 -9 -14 -40 -12 -22 2 -40 8 -40 13 0 6 18 11
40 13 35 3 40 6 40 28 0 21 -4 24 -40 24 -37 0 -45 7 -41 33 0 4 -10 7 -24 7
-18 0 -25 -5 -25 -20 0 -15 7 -20 26 -20 21 0 25 -4 22 -22 -2 -15 -11 -24
-25 -26 -14 -2 -23 -10 -23 -22 0 -10 -9 -20 -20 -23 -16 -4 -20 0 -20 18 0
21 -5 24 -42 27 -36 2 -44 7 -46 26 -2 14 -10 22 -23 22 -12 0 -19 7 -19 20 0
13 7 20 20 20 13 0 20 -7 20 -20 0 -17 7 -20 45 -20 38 0 45 3 45 20 0 15 -7
20 -25 20 -20 0 -25 5 -25 25 0 20 5 24 22 22 17 -1 24 4 26 21 3 18 -1 22
-22 22 -18 0 -25 -6 -28 -22 -2 -13 -10 -23 -18 -23 -8 0 -16 10 -18 23 -5 30
-39 30 -44 0 -2 -15 -10 -23 -23 -23 -29 0 -27 39 3 43 14 2 22 10 22 23 0 12
7 19 20 19 15 0 20 7 20 25 0 18 -5 25 -20 25 -13 0 -20 7 -20 20 0 17 7 20
40 20 l40 0 0 -45 c0 -41 2 -45 25 -45 23 0 25 4 25 45 0 38 3 45 20 45 17 0
20 7 20 45 0 41 2 45 25 45 24 0 25 -2 25 -65z m738 -307 c-2 -15 -11 -24 -25
-26 -19 -3 -23 1 -23 22 0 21 5 26 26 26 21 0 25 -4 22 -22z m-1138 -48 c0
-13 -7 -20 -20 -20 -13 0 -20 7 -20 20 0 13 7 20 20 20 13 0 20 -7 20 -20z
m590 -72 c63 -43 75 -70 78 -174 7 -169 -43 -224 -204 -224 -164 0 -214 50
-214 214 0 92 10 124 52 163 36 34 66 42 164 42 79 1 96 -2 124 -21z m-677
-58 c4 -16 0 -20 -19 -20 -17 0 -24 6 -24 20 0 13 7 20 19 20 10 0 21 -9 24
-20z m267 -149 c0 -25 5 -41 15 -45 8 -3 15 -15 15 -26 0 -11 -7 -20 -15 -20
-9 0 -15 9 -15 25 0 23 -4 25 -45 25 -41 0 -45 -2 -45 -25 0 -18 5 -25 19 -25
16 0 20 -8 23 -42 2 -36 7 -44 26 -46 18 -3 22 1 22 22 0 20 5 26 23 26 25 0
47 -17 47 -37 0 -8 -13 -13 -35 -13 -28 0 -35 -4 -35 -20 0 -17 7 -20 40 -20
29 0 40 4 40 15 0 8 6 15 13 15 20 0 37 -22 37 -47 0 -16 6 -23 20 -23 11 0
20 7 20 15 0 12 14 15 65 15 51 0 65 -3 65 -15 0 -8 9 -15 19 -15 13 0 21 -8
23 -22 2 -15 11 -24 26 -26 14 -2 22 -10 22 -23 0 -12 7 -19 20 -19 17 0 20 7
20 45 0 38 -3 45 -20 45 -35 0 -23 33 19 53 46 21 51 21 51 2 0 -9 -9 -15 -25
-15 -18 0 -25 -5 -25 -19 0 -16 8 -20 43 -23 35 -2 43 -7 45 -25 5 -31 39 -31
44 0 2 14 11 23 25 25 19 3 23 10 23 43 l0 39 -66 0 -66 0 14 23 c9 12 27 23
42 25 18 2 26 9 26 23 0 14 7 19 25 19 23 0 25 4 25 45 0 38 3 45 19 45 13 0
21 -8 23 -22 2 -18 10 -22 43 -22 34 -1 41 -5 43 -23 3 -19 -1 -23 -22 -23
-19 0 -26 -5 -26 -20 0 -17 7 -20 45 -20 l45 0 0 40 c0 34 4 41 24 46 38 9 61
1 64 -24 3 -17 -2 -22 -17 -22 -14 0 -21 -6 -21 -20 0 -15 -7 -20 -25 -20 -20
0 -25 -5 -25 -25 0 -18 -5 -25 -20 -25 -13 0 -20 -7 -20 -20 0 -13 7 -20 20
-20 13 0 20 -7 20 -20 0 -13 -7 -20 -20 -20 -14 0 -20 7 -20 21 0 15 -5 20
-22 17 -19 -2 -24 -10 -26 -45 -3 -43 -3 -43 -43 -43 -32 0 -39 -3 -39 -19 0
-13 -8 -21 -22 -23 -20 -3 -23 -9 -23 -43 0 -34 3 -40 23 -43 14 -2 22 -10 22
-23 0 -26 -40 -26 -47 1 -7 27 -43 27 -43 0 0 -13 -7 -20 -20 -20 -15 0 -20
-7 -20 -25 0 -23 -4 -25 -45 -25 -38 0 -45 -3 -45 -20 0 -27 -40 -27 -47 0 -5
18 -14 20 -109 20 l-103 0 -3 68 c-3 59 -5 67 -23 67 -13 0 -21 -8 -23 -22 -2
-15 -10 -23 -23 -23 -16 0 -19 7 -19 45 0 38 -3 45 -20 45 -13 0 -20 -7 -20
-20 0 -15 -7 -20 -25 -20 -22 0 -25 4 -25 40 0 33 -3 40 -19 40 -13 0 -21 8
-23 22 -4 31 -36 36 -40 6 -2 -15 -11 -24 -25 -26 -19 -3 -23 1 -23 22 0 18 6
25 23 28 12 2 22 10 22 18 0 8 -10 16 -22 18 -17 3 -23 -2 -23 -16 0 -11 -9
-22 -20 -25 -12 -3 -20 -14 -20 -26 0 -18 -6 -21 -45 -21 -39 0 -45 3 -45 21
0 12 8 23 20 26 11 3 20 14 20 24 0 16 8 19 45 19 38 0 45 3 45 20 0 17 7 20
45 20 41 0 45 2 45 25 0 23 -4 25 -45 25 -38 0 -45 3 -45 20 0 13 7 20 19 20
11 0 22 9 26 19 3 11 15 23 26 26 10 4 19 15 19 26 0 12 7 19 20 19 13 0 20 7
20 20 0 15 7 20 25 20 22 0 25 -4 25 -39z m560 -21 c0 -11 -7 -20 -15 -20 -8
0 -15 9 -15 20 0 11 7 20 15 20 8 0 15 -9 15 -20z m-910 -246 c0 -41 -2 -45
-22 -42 -40 5 -38 88 2 88 17 0 20 -6 20 -46z m910 26 c0 -13 -7 -20 -20 -20
-13 0 -20 7 -20 20 0 13 7 20 20 20 13 0 20 -7 20 -20z m220 -175 l0 -65 -65
0 -65 0 0 65 0 65 65 0 65 0 0 -65z m-700 -110 c0 -38 -3 -45 -20 -45 -17 0
-20 7 -20 45 0 38 3 45 20 45 17 0 20 -7 20 -45z m788 23 c-5 -34 -38 -37 -38
-4 0 20 5 26 21 26 15 0 20 -5 17 -22z m90 -45 c-2 -10 -13 -19 -26 -21 -14
-2 -22 -10 -22 -23 0 -16 -7 -19 -40 -19 -33 0 -40 3 -40 20 0 17 7 20 40 20
33 0 40 3 40 20 0 15 7 20 26 20 19 0 25 -5 22 -17z m-740 -45 c3 -13 -3 -18
-22 -18 -20 0 -26 5 -26 21 0 15 5 20 22 17 13 -2 24 -11 26 -20z"/>
<path d="M760 1250 c0 -83 1 -90 20 -90 17 0 20 7 20 45 0 36 3 45 18 45 9 0
22 -10 27 -22 6 -13 17 -23 25 -23 12 0 16 15 18 68 l3 67 -66 0 -65 0 0 -90z"/>
<path d="M540 1270 c0 -13 7 -20 20 -20 13 0 20 7 20 20 0 13 -7 20 -20 20
-13 0 -20 -7 -20 -20z"/>
<path d="M630 1270 c0 -13 7 -20 20 -20 13 0 20 -7 20 -19 0 -24 13 -33 34
-25 11 4 16 19 16 45 l0 39 -45 0 c-38 0 -45 -3 -45 -20z"/>
<path d="M932 1228 c2 -15 10 -23 23 -23 13 0 21 8 23 23 3 18 -1 22 -23 22
-22 0 -26 -4 -23 -22z"/>
<path d="M890 1140 c0 -13 7 -20 20 -20 13 0 20 7 20 20 0 13 -7 20 -20 20
-13 0 -20 -7 -20 -20z"/>
<path d="M689 874 c-10 -11 -19 -23 -19 -27 0 -4 42 -7 93 -7 78 0 97 3 110
18 10 10 17 21 17 25 0 3 -41 7 -91 9 -81 3 -92 1 -110 -18z"/>
<path d="M670 812 c0 -5 10 -18 23 -30 20 -19 35 -22 110 -22 48 0 87 4 87 8
0 5 -10 18 -23 30 -20 19 -35 22 -110 22 -48 0 -87 -4 -87 -8z"/>
<path d="M690 715 l-23 -25 69 -2 c38 -1 80 -1 93 0 24 1 61 28 61 44 0 4 -40
8 -88 8 -81 0 -90 -2 -112 -25z"/>
<path d="M1110 660 c0 -13 7 -20 20 -20 13 0 20 7 20 20 0 13 -7 20 -20 20
-13 0 -20 -7 -20 -20z"/>
<path d="M410 530 c0 -13 7 -20 20 -20 13 0 20 7 20 20 0 13 -7 20 -20 20 -13
0 -20 -7 -20 -20z"/>
<path d="M547 503 c-4 -3 -7 -24 -7 -45 0 -31 3 -38 20 -38 13 0 20 7 20 19 0
13 8 21 23 23 14 2 23 11 25 26 3 20 -1 22 -36 22 -21 0 -42 -3 -45 -7z"/>
<path d="M670 485 c0 -22 4 -26 23 -23 14 2 22 10 22 23 0 13 -8 21 -22 23
-19 3 -23 -1 -23 -23z"/>
<path d="M720 355 l0 -65 60 0 c57 0 60 -1 60 -25 0 -20 5 -25 25 -25 20 0 25
5 25 25 0 23 4 25 45 25 38 0 45 3 45 20 0 15 -7 20 -25 20 -20 0 -25 5 -25
25 0 18 -5 25 -20 25 -13 0 -20 7 -20 20 0 18 -7 20 -85 20 l-85 0 0 -65z
m170 0 c0 -23 -4 -25 -45 -25 -37 0 -45 3 -45 18 0 27 9 32 52 32 34 0 38 -3
38 -25z"/>
<path d="M980 400 c0 -13 7 -20 20 -20 13 0 20 7 20 20 0 13 -7 20 -20 20 -13
0 -20 -7 -20 -20z"/>
<path d="M1194 366 c-8 -21 3 -36 27 -36 15 0 20 6 17 22 -4 27 -35 37 -44 14z"/>
<path d="M1192 1358 l3 -153 153 -3 152 -3 0 156 0 155 -155 0 -156 0 3 -152z
m266 0 l3 -108 -111 0 -110 0 0 110 0 111 108 -3 107 -3 3 -107z"/>
<path d="M1280 1355 l0 -65 65 0 65 0 0 65 0 65 -65 0 -65 0 0 -65z"/>
<path d="M100 1140 c0 -15 7 -20 25 -20 18 0 25 5 25 20 0 15 -7 20 -25 20
-18 0 -25 -5 -25 -20z"/>
<path d="M454 975 c-4 -9 -2 -21 4 -27 15 -15 44 -1 40 19 -4 23 -36 29 -44 8z"/>
<path d="M60 225 l0 -156 153 3 152 3 3 130 c5 192 20 175 -158 175 l-150 0 0
-155z m260 -5 l0 -111 -107 3 -108 3 -3 108 -3 107 111 0 110 0 0 -110z"/>
<path d="M150 225 l0 -65 65 0 65 0 0 65 0 65 -65 0 -65 0 0 -65z"/>
</g>
</svg>
