<?xml version="1.0" encoding="UTF-8"?>
<!DOCTYPE svg PUBLIC "-//W3C//DTD SVG 1.1//EN" "http://www.w3.org/Graphics/SVG/1.1/DTD/svg11.dtd">
<svg xmlns="http://www.w3.org/2000/svg" version="1.1" width="157px" height="158px" style="shape-rendering:geometricPrecision; text-rendering:geometricPrecision; image-rendering:optimizeQuality; fill-rule:evenodd; clip-rule:evenodd" xmlns:xlink="http://www.w3.org/1999/xlink">
<g><path style="opacity:1" fill="#f8f8f8" d="M -0.5,-0.5 C 51.8333,-0.5 104.167,-0.5 156.5,-0.5C 156.5,52.1667 156.5,104.833 156.5,157.5C 104.167,157.5 51.8333,157.5 -0.5,157.5C -0.5,104.833 -0.5,52.1667 -0.5,-0.5 Z"/></g>
<g><path style="opacity:1" fill="#0a0a0a" d="M 35.5,6.5 C 35.5,16.5 35.5,26.5 35.5,36.5C 25.5,36.5 15.5,36.5 5.5,36.5C 5.5,26.5 5.5,16.5 5.5,6.5C 15.5,6.5 25.5,6.5 35.5,6.5 Z"/></g>
<g><path style="opacity:1" fill="#131313" d="M 75.5,6.5 C 76.8333,6.5 78.1667,6.5 79.5,6.5C 79.5,7.83333 79.5,9.16667 79.5,10.5C 80.5676,11.4345 81.901,11.7678 83.5,11.5C 83.2322,13.099 83.5655,14.4324 84.5,15.5C 85.8333,15.5 87.1667,15.5 88.5,15.5C 88.5,16.8333 88.5,18.1667 88.5,19.5C 85.5,19.5 82.5,19.5 79.5,19.5C 79.5,18.1667 79.5,16.8333 79.5,15.5C 78.1667,15.5 76.8333,15.5 75.5,15.5C 75.5,18.1667 75.5,20.8333 75.5,23.5C 74.1667,23.5 72.8333,23.5 71.5,23.5C 71.5,19.5 71.5,15.5 71.5,11.5C 72.8333,11.5 74.1667,11.5 75.5,11.5C 75.5,9.83333 75.5,8.16667 75.5,6.5 Z"/></g>
<g><path style="opacity:1" fill="#111111" d="M 118.5,6.5 C 128.833,6.5 139.167,6.5 149.5,6.5C 149.5,16.5 149.5,26.5 149.5,36.5C 139.167,36.5 128.833,36.5 118.5,36.5C 118.5,26.5 118.5,16.5 118.5,6.5 Z"/></g>
<g><path style="opacity:1" fill="#131313" d="M 70.5,6.5 C 70.5,7.83333 70.5,9.16667 70.5,10.5C 69.1667,10.5 67.8333,10.5 66.5,10.5C 66.5,9.16667 66.5,7.83333 66.5,6.5C 67.8333,6.5 69.1667,6.5 70.5,6.5 Z"/></g>
<g><path style="opacity:1" fill="#848484" d="M 70.5,6.5 C 71.4345,7.56764 71.7678,8.90097 71.5,10.5C 72.5,10.5 73.5,10.5 74.5,10.5C 74.2322,8.90097 74.5655,7.56764 75.5,6.5C 75.5,8.16667 75.5,9.83333 75.5,11.5C 74.1667,11.5 72.8333,11.5 71.5,11.5C 71.5,15.5 71.5,19.5 71.5,23.5C 70.5166,19.7016 70.1832,15.7016 70.5,11.5C 69.1667,11.5 67.8333,11.5 66.5,11.5C 65.1667,11.5 63.8333,11.5 62.5,11.5C 63.5676,10.5655 64.901,10.2322 66.5,10.5C 67.8333,10.5 69.1667,10.5 70.5,10.5C 70.5,9.16667 70.5,7.83333 70.5,6.5 Z"/></g>
<g><path style="opacity:1" fill="#777777" d="M 84.5,6.5 C 84.5,7.83333 84.5,9.16667 84.5,10.5C 85.8333,10.5 87.1667,10.5 88.5,10.5C 91.1667,10.5 93.8333,10.5 96.5,10.5C 96.2322,8.90097 96.5655,7.56764 97.5,6.5C 97.5,7.83333 97.5,9.16667 97.5,10.5C 101.5,10.5 105.5,10.5 109.5,10.5C 109.5,9.16667 109.5,7.83333 109.5,6.5C 110.451,7.91866 110.784,9.58533 110.5,11.5C 106.167,11.5 101.833,11.5 97.5,11.5C 97.5,12.8333 97.5,14.1667 97.5,15.5C 94.5,15.5 91.5,15.5 88.5,15.5C 88.5,15.1667 88.5,14.8333 88.5,14.5C 91.1667,14.5 93.8333,14.5 96.5,14.5C 96.5,13.5 96.5,12.5 96.5,11.5C 93.8333,11.5 91.1667,11.5 88.5,11.5C 87.1667,11.5 85.8333,11.5 84.5,11.5C 84.5,12.8333 84.5,14.1667 84.5,15.5C 83.5655,14.4324 83.2322,13.099 83.5,11.5C 81.901,11.7678 80.5676,11.4345 79.5,10.5C 80.8333,10.5 82.1667,10.5 83.5,10.5C 83.2322,8.90097 83.5655,7.56764 84.5,6.5 Z"/></g>
<g><path style="opacity:1" fill="#060606" d="M 97.5,6.5 C 101.5,6.5 105.5,6.5 109.5,6.5C 109.5,7.83333 109.5,9.16667 109.5,10.5C 105.5,10.5 101.5,10.5 97.5,10.5C 97.5,9.16667 97.5,7.83333 97.5,6.5 Z"/></g>
<g><path style="opacity:1" fill="#111111" d="M 84.5,6.5 C 85.8333,6.5 87.1667,6.5 88.5,6.5C 88.5,7.83333 88.5,9.16667 88.5,10.5C 88.5,9.16667 88.5,7.83333 88.5,6.5C 87.1667,6.5 85.8333,6.5 84.5,6.5 Z"/></g>
<g><path style="opacity:1" fill="#f5f5f5" d="M 31.5,11.5 C 31.5,18.5 31.5,25.5 31.5,32.5C 24.5,32.5 17.5,32.5 10.5,32.5C 10.5,25.5 10.5,18.5 10.5,11.5C 17.5,11.5 24.5,11.5 31.5,11.5 Z"/></g>
<g><path style="opacity:1" fill="#0e0e0e" d="M 40.5,11.5 C 46.1667,11.5 51.8333,11.5 57.5,11.5C 57.5,14.1667 57.5,16.8333 57.5,19.5C 54.8333,19.5 52.1667,19.5 49.5,19.5C 48.5489,20.9187 48.2155,22.5853 48.5,24.5C 49.8333,24.5 51.1667,24.5 52.5,24.5C 52.5,25.5 52.5,26.5 52.5,27.5C 51.209,27.2627 50.209,27.596 49.5,28.5C 48.5655,29.5676 48.2322,30.901 48.5,32.5C 47.5,32.5 46.5,32.5 45.5,32.5C 45.7678,30.901 45.4345,29.5676 44.5,28.5C 43.1667,28.5 41.8333,28.5 40.5,28.5C 40.5,25.5 40.5,22.5 40.5,19.5C 41.8333,19.5 43.1667,19.5 44.5,19.5C 44.5,18.1667 44.5,16.8333 44.5,15.5C 43.1667,15.5 41.8333,15.5 40.5,15.5C 40.5,14.1667 40.5,12.8333 40.5,11.5 Z"/></g>
<g><path style="opacity:1" fill="#101010" d="M 62.5,11.5 C 63.8333,11.5 65.1667,11.5 66.5,11.5C 66.5,14.1667 66.5,16.8333 66.5,19.5C 65.1667,19.5 63.8333,19.5 62.5,19.5C 62.5,16.8333 62.5,14.1667 62.5,11.5 Z"/></g>
<g><path style="opacity:1" fill="#f0f0f0" d="M 66.5,11.5 C 67.8333,11.5 69.1667,11.5 70.5,11.5C 70.1832,15.7016 70.5166,19.7016 71.5,23.5C 72.8333,23.5 74.1667,23.5 75.5,23.5C 75.5,20.8333 75.5,18.1667 75.5,15.5C 76.8333,15.5 78.1667,15.5 79.5,15.5C 79.5,16.8333 79.5,18.1667 79.5,19.5C 82.5,19.5 85.5,19.5 88.5,19.5C 88.5,18.1667 88.5,16.8333 88.5,15.5C 91.5,15.5 94.5,15.5 97.5,15.5C 97.5,16.8333 97.5,18.1667 97.5,19.5C 95.8333,19.5 94.1667,19.5 92.5,19.5C 92.5,22.5 92.5,25.5 92.5,28.5C 94.1667,28.5 95.8333,28.5 97.5,28.5C 97.5,29.8333 97.5,31.1667 97.5,32.5C 98.8333,32.5 100.167,32.5 101.5,32.5C 101.5,35.5 101.5,38.5 101.5,41.5C 100.167,41.5 98.8333,41.5 97.5,41.5C 97.5,44.1667 97.5,46.8333 97.5,49.5C 95.8333,49.5 94.1667,49.5 92.5,49.5C 92.5,51.1667 92.5,52.8333 92.5,54.5C 91.1667,54.5 89.8333,54.5 88.5,54.5C 88.5,53.1667 88.5,51.8333 88.5,50.5C 86.0521,49.5269 83.3854,49.1936 80.5,49.5C 80.5,48.1667 80.5,46.8333 80.5,45.5C 77.5,45.5 74.5,45.5 71.5,45.5C 71.7678,43.901 71.4345,42.5676 70.5,41.5C 69.1667,41.5 67.8333,41.5 66.5,41.5C 66.5,42.8333 66.5,44.1667 66.5,45.5C 67.5676,46.4345 68.901,46.7678 70.5,46.5C 70.5,47.5 70.5,48.5 70.5,49.5C 68.901,49.2322 67.5676,49.5655 66.5,50.5C 66.5,51.8333 66.5,53.1667 66.5,54.5C 65.1779,54.33 64.0113,54.6634 63,55.5C 62.5065,53.8659 62.3398,52.1992 62.5,50.5C 60.0521,49.5269 57.3854,49.1936 54.5,49.5C 54.5,48.5 54.5,47.5 54.5,46.5C 57.3854,46.8064 60.0521,46.4731 62.5,45.5C 62.5,44.1667 62.5,42.8333 62.5,41.5C 60.8333,41.5 59.1667,41.5 57.5,41.5C 57.5,40.1667 57.5,38.8333 57.5,37.5C 59.1667,37.5 60.8333,37.5 62.5,37.5C 62.5,35.8333 62.5,34.1667 62.5,32.5C 63.8333,32.5 65.1667,32.5 66.5,32.5C 66.5,33.8333 66.5,35.1667 66.5,36.5C 67.9187,37.4511 69.5853,37.7845 71.5,37.5C 71.5,34.1667 71.5,30.8333 71.5,27.5C 68.5,27.5 65.5,27.5 62.5,27.5C 62.5,24.8333 62.5,22.1667 62.5,19.5C 63.8333,19.5 65.1667,19.5 66.5,19.5C 66.5,16.8333 66.5,14.1667 66.5,11.5 Z"/></g>
<g><path style="opacity:1" fill="#ececec" d="M 88.5,11.5 C 88.5,12.5 88.5,13.5 88.5,14.5C 88.5,14.8333 88.5,15.1667 88.5,15.5C 87.1667,15.5 85.8333,15.5 84.5,15.5C 84.5,14.1667 84.5,12.8333 84.5,11.5C 85.8333,11.5 87.1667,11.5 88.5,11.5 Z"/></g>
<g><path style="opacity:1" fill="#080808" d="M 88.5,11.5 C 91.1667,11.5 93.8333,11.5 96.5,11.5C 96.5,12.5 96.5,13.5 96.5,14.5C 93.8333,14.5 91.1667,14.5 88.5,14.5C 88.5,13.5 88.5,12.5 88.5,11.5 Z"/></g>
<g><path style="opacity:1" fill="#f5f5f5" d="M 123.5,11.5 C 130.5,11.5 137.5,11.5 144.5,11.5C 144.5,18.5 144.5,25.5 144.5,32.5C 144.5,25.5 144.5,18.5 144.5,11.5C 137.5,11.5 130.5,11.5 123.5,11.5 Z"/></g>
<g><path style="opacity:1" fill="#9d9d9d" d="M 40.5,11.5 C 46.31,10.5104 52.31,10.1771 58.5,10.5C 58.5,13.1667 58.5,15.8333 58.5,18.5C 59.5,18.5 60.5,18.5 61.5,18.5C 61.1984,15.9407 61.5318,13.6074 62.5,11.5C 62.5,14.1667 62.5,16.8333 62.5,19.5C 60.8333,19.5 59.1667,19.5 57.5,19.5C 57.5,16.8333 57.5,14.1667 57.5,11.5C 51.8333,11.5 46.1667,11.5 40.5,11.5 Z"/></g>
<g><path style="opacity:1" fill="#909090" d="M 31.5,11.5 C 24.5,11.5 17.5,11.5 10.5,11.5C 10.5,18.5 10.5,25.5 10.5,32.5C 9.50837,25.3524 9.17503,18.0191 9.5,10.5C 17.0191,10.175 24.3524,10.5084 31.5,11.5 Z"/></g>
<g><path style="opacity:1" fill="#000000" d="M 26.5,15.5 C 26.5,19.5 26.5,23.5 26.5,27.5C 22.5,27.5 18.5,27.5 14.5,27.5C 14.5,23.5 14.5,19.5 14.5,15.5C 18.5,15.5 22.5,15.5 26.5,15.5 Z"/></g>
<g><path style="opacity:1" fill="#101010" d="M 97.5,15.5 C 98.8333,15.5 100.167,15.5 101.5,15.5C 101.5,19.8333 101.5,24.1667 101.5,28.5C 105.833,28.5 110.167,28.5 114.5,28.5C 114.5,32.8333 114.5,37.1667 114.5,41.5C 113.167,41.5 111.833,41.5 110.5,41.5C 110.5,38.5 110.5,35.5 110.5,32.5C 108.833,32.5 107.167,32.5 105.5,32.5C 105.5,35.5 105.5,38.5 105.5,41.5C 104.167,41.5 102.833,41.5 101.5,41.5C 101.5,38.5 101.5,35.5 101.5,32.5C 100.167,32.5 98.8333,32.5 97.5,32.5C 97.5,31.1667 97.5,29.8333 97.5,28.5C 96.4324,27.5655 95.099,27.2322 93.5,27.5C 93.5,25.1667 93.5,22.8333 93.5,20.5C 95.099,20.7678 96.4324,20.4345 97.5,19.5C 97.5,18.1667 97.5,16.8333 97.5,15.5 Z"/></g>
<g><path style="opacity:1" fill="#010101" d="M 128.5,15.5 C 132.5,15.5 136.5,15.5 140.5,15.5C 140.5,19.5 140.5,23.5 140.5,27.5C 140.5,23.5 140.5,19.5 140.5,15.5C 136.5,15.5 132.5,15.5 128.5,15.5 Z"/></g>
<g><path style="opacity:1" fill="#8e8e8e" d="M 123.5,11.5 C 130.648,10.5084 137.981,10.175 145.5,10.5C 145.825,18.0191 145.492,25.3524 144.5,32.5C 144.5,25.5 144.5,18.5 144.5,11.5C 137.5,11.5 130.5,11.5 123.5,11.5 Z"/></g>
<g><path style="opacity:1" fill="#666666" d="M 49.5,19.5 C 49.5,20.8333 49.5,22.1667 49.5,23.5C 52.9496,22.7564 54.6162,24.0897 54.5,27.5C 55.5,27.5 56.5,27.5 57.5,27.5C 57.5,24.8333 57.5,22.1667 57.5,19.5C 59.1667,19.5 60.8333,19.5 62.5,19.5C 62.5,22.1667 62.5,24.8333 62.5,27.5C 65.5,27.5 68.5,27.5 71.5,27.5C 71.5,30.8333 71.5,34.1667 71.5,37.5C 69.5853,37.7845 67.9187,37.4511 66.5,36.5C 67.8333,36.5 69.1667,36.5 70.5,36.5C 70.5,33.8333 70.5,31.1667 70.5,28.5C 67.8333,28.5 65.1667,28.5 62.5,28.5C 60.5853,28.2155 58.9187,28.5489 57.5,29.5C 56.5,29.5 55.5,29.5 54.5,29.5C 54.5,30.5 54.5,31.5 54.5,32.5C 54.1667,32.5 53.8333,32.5 53.5,32.5C 53.5,31.1667 53.5,29.8333 53.5,28.5C 52.1667,28.5 50.8333,28.5 49.5,28.5C 50.209,27.596 51.209,27.2627 52.5,27.5C 52.5,26.5 52.5,25.5 52.5,24.5C 51.1667,24.5 49.8333,24.5 48.5,24.5C 48.2155,22.5853 48.5489,20.9187 49.5,19.5 Z"/></g>
<g><path style="opacity:1" fill="#020202" d="M 58.5,20.5 C 59.5,20.5 60.5,20.5 61.5,20.5C 61.5,22.8333 61.5,25.1667 61.5,27.5C 60.5,27.5 59.5,27.5 58.5,27.5C 58.5,25.1667 58.5,22.8333 58.5,20.5 Z"/></g>
<g><path style="opacity:1" fill="#f1f1f1" d="M 49.5,19.5 C 52.1667,19.5 54.8333,19.5 57.5,19.5C 57.5,22.1667 57.5,24.8333 57.5,27.5C 56.5,27.5 55.5,27.5 54.5,27.5C 54.6162,24.0897 52.9496,22.7564 49.5,23.5C 49.5,22.1667 49.5,20.8333 49.5,19.5 Z"/></g>
<g><path style="opacity:1" fill="#535353" d="M 26.5,15.5 C 27.4849,19.6344 27.8182,23.9677 27.5,28.5C 22.9677,28.8182 18.6344,28.4849 14.5,27.5C 18.5,27.5 22.5,27.5 26.5,27.5C 26.5,23.5 26.5,19.5 26.5,15.5 Z"/></g>
<g><path style="opacity:1" fill="#515151" d="M 97.5,19.5 C 96.4324,20.4345 95.099,20.7678 93.5,20.5C 93.5,22.8333 93.5,25.1667 93.5,27.5C 95.099,27.2322 96.4324,27.5655 97.5,28.5C 95.8333,28.5 94.1667,28.5 92.5,28.5C 92.5,25.5 92.5,22.5 92.5,19.5C 94.1667,19.5 95.8333,19.5 97.5,19.5 Z"/></g>
<g><path style="opacity:1" fill="#4f4f4f" d="M 128.5,15.5 C 128.5,19.5 128.5,23.5 128.5,27.5C 132.5,27.5 136.5,27.5 140.5,27.5C 136.366,28.4849 132.032,28.8182 127.5,28.5C 127.182,23.9677 127.515,19.6344 128.5,15.5 Z"/></g>
<g><path style="opacity:1" fill="#ebebeb" d="M 49.5,28.5 C 50.8333,28.5 52.1667,28.5 53.5,28.5C 53.5,29.8333 53.5,31.1667 53.5,32.5C 52.1667,32.5 50.8333,32.5 49.5,32.5C 49.5,31.1667 49.5,29.8333 49.5,28.5 Z"/></g>
<g><path style="opacity:1" fill="#060606" d="M 57.5,29.5 C 57.5,30.5 57.5,31.5 57.5,32.5C 56.5,32.5 55.5,32.5 54.5,32.5C 54.5,31.5 54.5,30.5 54.5,29.5C 55.5,29.5 56.5,29.5 57.5,29.5 Z"/></g>
<g><path style="opacity:1" fill="#dddddd" d="M 62.5,28.5 C 62.5,29.8333 62.5,31.1667 62.5,32.5C 62.1667,32.5 61.8333,32.5 61.5,32.5C 60.5,32.5 59.5,32.5 58.5,32.5C 58.1667,32.5 57.8333,32.5 57.5,32.5C 57.5,31.5 57.5,30.5 57.5,29.5C 58.9187,28.5489 60.5853,28.2155 62.5,28.5 Z"/></g>
<g><path style="opacity:1" fill="#111111" d="M 62.5,28.5 C 65.1667,28.5 67.8333,28.5 70.5,28.5C 70.5,31.1667 70.5,33.8333 70.5,36.5C 69.1667,36.5 67.8333,36.5 66.5,36.5C 66.5,35.1667 66.5,33.8333 66.5,32.5C 65.1667,32.5 63.8333,32.5 62.5,32.5C 62.5,31.1667 62.5,29.8333 62.5,28.5 Z"/></g>
<g><path style="opacity:1" fill="#2d2d2d" d="M 75.5,23.5 C 79.8333,23.5 84.1667,23.5 88.5,23.5C 88.5,28.1667 88.5,32.8333 88.5,37.5C 86.901,37.7678 85.5676,37.4345 84.5,36.5C 85.5,36.5 86.5,36.5 87.5,36.5C 87.5,32.5 87.5,28.5 87.5,24.5C 83.8333,24.5 80.1667,24.5 76.5,24.5C 76.1718,29.8746 76.5052,35.2079 77.5,40.5C 78.0771,37.0927 78.7438,34.4261 79.5,32.5C 79.5,35.5 79.5,38.5 79.5,41.5C 78.1667,41.5 76.8333,41.5 75.5,41.5C 75.5,35.5 75.5,29.5 75.5,23.5 Z"/></g>
<g><path style="opacity:1" fill="#020202" d="M 84.5,36.5 C 84.5,35.1667 84.5,33.8333 84.5,32.5C 82.8333,32.5 81.1667,32.5 79.5,32.5C 78.7438,34.4261 78.0771,37.0927 77.5,40.5C 76.5052,35.2079 76.1718,29.8746 76.5,24.5C 80.1667,24.5 83.8333,24.5 87.5,24.5C 87.5,28.5 87.5,32.5 87.5,36.5C 86.5,36.5 85.5,36.5 84.5,36.5 Z"/></g>
<g><path style="opacity:1" fill="#0f0f0f" d="M 44.5,32.5 C 44.5,34.1667 44.5,35.8333 44.5,37.5C 46.1667,37.5 47.8333,37.5 49.5,37.5C 49.5,35.8333 49.5,34.1667 49.5,32.5C 50.8333,32.5 52.1667,32.5 53.5,32.5C 53.5,33.8333 53.5,35.1667 53.5,36.5C 54.5676,37.4345 55.901,37.7678 57.5,37.5C 57.5,38.8333 57.5,40.1667 57.5,41.5C 59.1667,41.5 60.8333,41.5 62.5,41.5C 62.5,42.8333 62.5,44.1667 62.5,45.5C 59.5,45.5 56.5,45.5 53.5,45.5C 53.5,44.1667 53.5,42.8333 53.5,41.5C 52.1667,41.5 50.8333,41.5 49.5,41.5C 48.5655,42.5676 48.2322,43.901 48.5,45.5C 47.1667,45.5 45.8333,45.5 44.5,45.5C 44.5,46.8333 44.5,48.1667 44.5,49.5C 43.1667,49.5 41.8333,49.5 40.5,49.5C 40.5,43.8333 40.5,38.1667 40.5,32.5C 41.8333,32.5 43.1667,32.5 44.5,32.5 Z"/></g>
<g><path style="opacity:1" fill="#838383" d="M 44.5,28.5 C 45.4345,29.5676 45.7678,30.901 45.5,32.5C 45.5,33.8333 45.5,35.1667 45.5,36.5C 46.5,36.5 47.5,36.5 48.5,36.5C 48.5,35.1667 48.5,33.8333 48.5,32.5C 48.2322,30.901 48.5655,29.5676 49.5,28.5C 49.5,29.8333 49.5,31.1667 49.5,32.5C 49.5,34.1667 49.5,35.8333 49.5,37.5C 47.8333,37.5 46.1667,37.5 44.5,37.5C 44.5,35.8333 44.5,34.1667 44.5,32.5C 44.5,31.1667 44.5,29.8333 44.5,28.5 Z"/></g>
<g><path style="opacity:1" fill="#f1f1f1" d="M 45.5,32.5 C 46.5,32.5 47.5,32.5 48.5,32.5C 48.5,33.8333 48.5,35.1667 48.5,36.5C 47.5,36.5 46.5,36.5 45.5,36.5C 45.5,35.1667 45.5,33.8333 45.5,32.5 Z"/></g>
<g><path style="opacity:1" fill="#585858" d="M 97.5,32.5 C 97.5,34.1667 97.5,35.8333 97.5,37.5C 95.8333,37.5 94.1667,37.5 92.5,37.5C 92.5,35.8333 92.5,34.1667 92.5,32.5C 94.1667,32.5 95.8333,32.5 97.5,32.5 Z"/></g>
<g><path style="opacity:1" fill="#030303" d="M 93.5,33.5 C 94.5,33.5 95.5,33.5 96.5,33.5C 96.5,34.5 96.5,35.5 96.5,36.5C 95.5,36.5 94.5,36.5 93.5,36.5C 93.5,35.5 93.5,34.5 93.5,33.5 Z"/></g>
<g><path style="opacity:1" fill="#e6e6e6" d="M 114.5,41.5 C 114.5,42.8333 114.5,44.1667 114.5,45.5C 111.5,45.5 108.5,45.5 105.5,45.5C 105.5,46.8333 105.5,48.1667 105.5,49.5C 104.167,49.5 102.833,49.5 101.5,49.5C 101.5,46.8333 101.5,44.1667 101.5,41.5C 102.833,41.5 104.167,41.5 105.5,41.5C 105.5,38.5 105.5,35.5 105.5,32.5C 107.167,32.5 108.833,32.5 110.5,32.5C 110.5,35.5 110.5,38.5 110.5,41.5C 111.833,41.5 113.167,41.5 114.5,41.5 Z"/></g>
<g><path style="opacity:1" fill="#e6e6e6" d="M 53.5,32.5 C 53.8333,32.5 54.1667,32.5 54.5,32.5C 55.5,32.5 56.5,32.5 57.5,32.5C 57.5,33.8333 57.5,35.1667 57.5,36.5C 56.1667,36.5 54.8333,36.5 53.5,36.5C 53.5,35.1667 53.5,33.8333 53.5,32.5 Z"/></g>
<g><path style="opacity:1" fill="#7d7d7d" d="M 35.5,6.5 C 36.4942,16.6532 36.8276,26.9865 36.5,37.5C 25.9865,37.8276 15.6532,37.4942 5.5,36.5C 15.5,36.5 25.5,36.5 35.5,36.5C 35.5,26.5 35.5,16.5 35.5,6.5 Z"/></g>
<g><path style="opacity:1" fill="#707070" d="M 57.5,32.5 C 57.8333,32.5 58.1667,32.5 58.5,32.5C 58.5,33.8333 58.5,35.1667 58.5,36.5C 59.5,36.5 60.5,36.5 61.5,36.5C 61.5,35.1667 61.5,33.8333 61.5,32.5C 61.8333,32.5 62.1667,32.5 62.5,32.5C 62.5,34.1667 62.5,35.8333 62.5,37.5C 60.8333,37.5 59.1667,37.5 57.5,37.5C 55.901,37.7678 54.5676,37.4345 53.5,36.5C 54.8333,36.5 56.1667,36.5 57.5,36.5C 57.5,35.1667 57.5,33.8333 57.5,32.5 Z"/></g>
<g><path style="opacity:1" fill="#0f0f0f" d="M 58.5,32.5 C 59.5,32.5 60.5,32.5 61.5,32.5C 61.5,33.8333 61.5,35.1667 61.5,36.5C 60.5,36.5 59.5,36.5 58.5,36.5C 58.5,35.1667 58.5,33.8333 58.5,32.5 Z"/></g>
<g><path style="opacity:1" fill="#0e0e0e" d="M 31.5,49.5 C 30.1667,49.5 28.8333,49.5 27.5,49.5C 27.5,48.1667 27.5,46.8333 27.5,45.5C 24.5,45.5 21.5,45.5 18.5,45.5C 18.5,44.1667 18.5,42.8333 18.5,41.5C 24.1667,41.5 29.8333,41.5 35.5,41.5C 35.5,42.8333 35.5,44.1667 35.5,45.5C 34.1667,45.5 32.8333,45.5 31.5,45.5C 31.5,46.8333 31.5,48.1667 31.5,49.5 Z"/></g>
<g><path style="opacity:1" fill="#0d0d0d" d="M 114.5,41.5 C 117.5,41.5 120.5,41.5 123.5,41.5C 123.5,42.8333 123.5,44.1667 123.5,45.5C 124.833,45.5 126.167,45.5 127.5,45.5C 127.5,44.1667 127.5,42.8333 127.5,41.5C 130.5,41.5 133.5,41.5 136.5,41.5C 136.5,42.8333 136.5,44.1667 136.5,45.5C 137.568,46.4345 138.901,46.7678 140.5,46.5C 140.5,47.5 140.5,48.5 140.5,49.5C 134.642,49.1778 128.975,49.5111 123.5,50.5C 123.5,54.8333 123.5,59.1667 123.5,63.5C 124.833,63.5 126.167,63.5 127.5,63.5C 127.5,64.8333 127.5,66.1667 127.5,67.5C 123.167,67.5 118.833,67.5 114.5,67.5C 114.5,66.1667 114.5,64.8333 114.5,63.5C 115.833,63.5 117.167,63.5 118.5,63.5C 119.477,60.7131 119.81,57.7131 119.5,54.5C 116.167,54.5 112.833,54.5 109.5,54.5C 109.5,55.8333 109.5,57.1667 109.5,58.5C 106.833,58.5 104.167,58.5 101.5,58.5C 101.5,55.8333 101.5,53.1667 101.5,50.5C 103.099,50.7678 104.432,50.4345 105.5,49.5C 106.404,48.791 106.737,47.791 106.5,46.5C 109.385,46.8064 112.052,46.4731 114.5,45.5C 114.5,44.1667 114.5,42.8333 114.5,41.5 Z"/></g>
<g><path style="opacity:1" fill="#252525" d="M 9.5,41.5 C 11.1667,41.5 12.8333,41.5 14.5,41.5C 14.5,42.8333 14.5,44.1667 14.5,45.5C 12.8333,45.5 11.1667,45.5 9.5,45.5C 9.5,44.1667 9.5,42.8333 9.5,41.5 Z"/></g>
<g><path style="opacity:1" fill="#eeeeee" d="M 49.5,41.5 C 50.8333,41.5 52.1667,41.5 53.5,41.5C 53.5,42.8333 53.5,44.1667 53.5,45.5C 52.1667,45.5 50.8333,45.5 49.5,45.5C 49.5,44.1667 49.5,42.8333 49.5,41.5 Z"/></g>
<g><path style="opacity:1" fill="#141414" d="M 70.5,41.5 C 70.5,42.8333 70.5,44.1667 70.5,45.5C 69.1667,45.5 67.8333,45.5 66.5,45.5C 66.5,44.1667 66.5,42.8333 66.5,41.5C 67.8333,41.5 69.1667,41.5 70.5,41.5 Z"/></g>
<g><path style="opacity:1" fill="#101010" d="M 88.5,41.5 C 89.8333,41.5 91.1667,41.5 92.5,41.5C 92.5,42.8333 92.5,44.1667 92.5,45.5C 91.1667,45.5 89.8333,45.5 88.5,45.5C 88.5,44.1667 88.5,42.8333 88.5,41.5 Z"/></g>
<g><path style="opacity:1" fill="#1c1c1c" d="M 144.5,41.5 C 144.5,42.8333 144.5,44.1667 144.5,45.5C 143.167,45.5 141.833,45.5 140.5,45.5C 140.5,44.1667 140.5,42.8333 140.5,41.5C 141.833,41.5 143.167,41.5 144.5,41.5 Z"/></g>
<g><path style="opacity:1" fill="#131313" d="M 101.5,41.5 C 101.5,44.1667 101.5,46.8333 101.5,49.5C 100.167,49.5 98.8333,49.5 97.5,49.5C 97.5,46.8333 97.5,44.1667 97.5,41.5C 98.8333,41.5 100.167,41.5 101.5,41.5 Z"/></g>
<g><path style="opacity:1" fill="#666666" d="M 114.5,45.5 C 112.052,46.4731 109.385,46.8064 106.5,46.5C 106.737,47.791 106.404,48.791 105.5,49.5C 105.5,48.1667 105.5,46.8333 105.5,45.5C 108.5,45.5 111.5,45.5 114.5,45.5 Z"/></g>
<g><path style="opacity:1" fill="#0d0d0f" d="M 61.5,50.5 C 62.1667,56.5 59.5,59.1667 53.5,58.5C 53.5,57.1667 53.5,55.8333 53.5,54.5C 52.1667,54.5 50.8333,54.5 49.5,54.5C 49.5,51.8333 49.5,49.1667 49.5,46.5C 50.8333,46.5 52.1667,46.5 53.5,46.5C 53.5,47.8333 53.5,49.1667 53.5,50.5C 56.1667,50.5 58.8333,50.5 61.5,50.5 Z"/></g>
<g><path style="opacity:1" fill="#838383" d="M 70.5,41.5 C 71.4345,42.5676 71.7678,43.901 71.5,45.5C 74.5,45.5 77.5,45.5 80.5,45.5C 80.5,46.8333 80.5,48.1667 80.5,49.5C 83.3854,49.1936 86.0521,49.5269 88.5,50.5C 85.5,50.5 82.5,50.5 79.5,50.5C 76.8333,50.5 74.1667,50.5 71.5,50.5C 71.5,51.5 71.5,52.5 71.5,53.5C 70.596,52.791 70.2627,51.791 70.5,50.5C 69.1667,50.5 67.8333,50.5 66.5,50.5C 67.5676,49.5655 68.901,49.2322 70.5,49.5C 70.5,48.5 70.5,47.5 70.5,46.5C 68.901,46.7678 67.5676,46.4345 66.5,45.5C 67.8333,45.5 69.1667,45.5 70.5,45.5C 70.5,44.1667 70.5,42.8333 70.5,41.5 Z"/></g>
<g><path style="opacity:1" fill="#040404" d="M 71.5,46.5 C 74.1667,46.5 76.8333,46.5 79.5,46.5C 79.5,47.5 79.5,48.5 79.5,49.5C 76.8333,49.5 74.1667,49.5 71.5,49.5C 71.5,48.5 71.5,47.5 71.5,46.5 Z"/></g>
<g><path style="opacity:1" fill="#181818" d="M 149.5,46.5 C 149.5,49.1667 149.5,51.8333 149.5,54.5C 148.167,54.5 146.833,54.5 145.5,54.5C 145.5,55.8333 145.5,57.1667 145.5,58.5C 146.833,58.5 148.167,58.5 149.5,58.5C 149.5,60.1667 149.5,61.8333 149.5,63.5C 146.5,63.5 143.5,63.5 140.5,63.5C 140.5,61.8333 140.5,60.1667 140.5,58.5C 136.167,58.5 131.833,58.5 127.5,58.5C 127.5,57.1667 127.5,55.8333 127.5,54.5C 131.833,54.5 136.167,54.5 140.5,54.5C 140.5,53.1667 140.5,51.8333 140.5,50.5C 142.167,50.5 143.833,50.5 145.5,50.5C 145.5,49.1667 145.5,47.8333 145.5,46.5C 146.833,46.5 148.167,46.5 149.5,46.5 Z"/></g>
<g><path style="opacity:1" fill="#929293" d="M 49.5,41.5 C 49.5,42.8333 49.5,44.1667 49.5,45.5C 50.8333,45.5 52.1667,45.5 53.5,45.5C 56.5,45.5 59.5,45.5 62.5,45.5C 60.0521,46.4731 57.3854,46.8064 54.5,46.5C 54.5,47.5 54.5,48.5 54.5,49.5C 57.3854,49.1936 60.0521,49.5269 62.5,50.5C 62.1667,50.5 61.8333,50.5 61.5,50.5C 58.8333,50.5 56.1667,50.5 53.5,50.5C 53.5,49.1667 53.5,47.8333 53.5,46.5C 52.1667,46.5 50.8333,46.5 49.5,46.5C 49.5,49.1667 49.5,51.8333 49.5,54.5C 48.5269,52.0521 48.1936,49.3854 48.5,46.5C 47.5,46.5 46.5,46.5 45.5,46.5C 45.7373,47.791 45.404,48.791 44.5,49.5C 44.5,48.1667 44.5,46.8333 44.5,45.5C 45.8333,45.5 47.1667,45.5 48.5,45.5C 48.2322,43.901 48.5655,42.5676 49.5,41.5 Z"/></g>
<g><path style="opacity:1" fill="#757575" d="M 144.5,41.5 C 145.434,42.5676 145.768,43.901 145.5,45.5C 147.099,45.2322 148.432,45.5655 149.5,46.5C 148.167,46.5 146.833,46.5 145.5,46.5C 145.5,47.8333 145.5,49.1667 145.5,50.5C 143.833,50.5 142.167,50.5 140.5,50.5C 134.833,50.5 129.167,50.5 123.5,50.5C 128.975,49.5111 134.642,49.1778 140.5,49.5C 140.5,48.5 140.5,47.5 140.5,46.5C 138.901,46.7678 137.568,46.4345 136.5,45.5C 137.833,45.5 139.167,45.5 140.5,45.5C 141.833,45.5 143.167,45.5 144.5,45.5C 144.5,44.1667 144.5,42.8333 144.5,41.5 Z"/></g>
<g><path style="opacity:1" fill="#fdfdfd" d="M 141.5,46.5 C 142.5,46.5 143.5,46.5 144.5,46.5C 144.5,47.5 144.5,48.5 144.5,49.5C 143.5,49.5 142.5,49.5 141.5,49.5C 141.5,48.5 141.5,47.5 141.5,46.5 Z"/></g>
<g><path style="opacity:1" fill="#131313" d="M 5.5,50.5 C 12.5,50.5 19.5,50.5 26.5,50.5C 26.2322,52.099 26.5655,53.4324 27.5,54.5C 28.8333,54.5 30.1667,54.5 31.5,54.5C 31.5,55.8333 31.5,57.1667 31.5,58.5C 32.8333,58.5 34.1667,58.5 35.5,58.5C 35.5,60.1667 35.5,61.8333 35.5,63.5C 32.8333,63.5 30.1667,63.5 27.5,63.5C 27.5,61.8333 27.5,60.1667 27.5,58.5C 26.1667,58.5 24.8333,58.5 23.5,58.5C 23.7678,56.901 23.4345,55.5676 22.5,54.5C 16.8333,54.5 11.1667,54.5 5.5,54.5C 5.5,53.1667 5.5,51.8333 5.5,50.5 Z"/></g>
<g><path style="opacity:1" fill="#f3f3f3" d="M 101.5,50.5 C 101.5,53.1667 101.5,55.8333 101.5,58.5C 104.287,59.4767 107.287,59.81 110.5,59.5C 110.5,58.1667 110.5,56.8333 110.5,55.5C 113.167,55.5 115.833,55.5 118.5,55.5C 118.5,58.1667 118.5,60.8333 118.5,63.5C 117.167,63.5 115.833,63.5 114.5,63.5C 114.5,64.8333 114.5,66.1667 114.5,67.5C 113.167,67.5 111.833,67.5 110.5,67.5C 109.527,69.9479 109.194,72.6146 109.5,75.5C 108.5,75.5 107.5,75.5 106.5,75.5C 106.817,71.2984 106.483,67.2984 105.5,63.5C 104.167,63.5 102.833,63.5 101.5,63.5C 99.1877,60.5211 96.5211,57.8544 93.5,55.5C 94.6888,54.5713 96.0222,54.238 97.5,54.5C 97.5,53.1667 97.5,51.8333 97.5,50.5C 98.8333,50.5 100.167,50.5 101.5,50.5 Z"/></g>
<g><path style="opacity:1" fill="#818181" d="M 18.5,45.5 C 21.5,45.5 24.5,45.5 27.5,45.5C 27.5,46.8333 27.5,48.1667 27.5,49.5C 28.8333,49.5 30.1667,49.5 31.5,49.5C 33.1667,49.5 34.8333,49.5 36.5,49.5C 36.5,51.1667 36.5,52.8333 36.5,54.5C 39.5,54.5 42.5,54.5 45.5,54.5C 45.5,55.8333 45.5,57.1667 45.5,58.5C 46.8333,58.5 48.1667,58.5 49.5,58.5C 49.5,60.1667 49.5,61.8333 49.5,63.5C 47.8333,63.5 46.1667,63.5 44.5,63.5C 44.5,62.1667 44.5,60.8333 44.5,59.5C 41.8333,59.5 39.1667,59.5 36.5,59.5C 36.7678,61.099 36.4345,62.4324 35.5,63.5C 35.5,61.8333 35.5,60.1667 35.5,58.5C 35.5,57.1667 35.5,55.8333 35.5,54.5C 35.5,53.1667 35.5,51.8333 35.5,50.5C 34.1667,50.5 32.8333,50.5 31.5,50.5C 30.1667,50.5 28.8333,50.5 27.5,50.5C 27.5,51.8333 27.5,53.1667 27.5,54.5C 26.5655,53.4324 26.2322,52.099 26.5,50.5C 19.5,50.5 12.5,50.5 5.5,50.5C 12.3134,49.5088 19.3134,49.1755 26.5,49.5C 26.5,48.5 26.5,47.5 26.5,46.5C 23.6146,46.8064 20.9479,46.4731 18.5,45.5 Z"/></g>
<g><path style="opacity:1" fill="#161616" d="M 31.5,50.5 C 32.8333,50.5 34.1667,50.5 35.5,50.5C 35.5,51.8333 35.5,53.1667 35.5,54.5C 34.1667,54.5 32.8333,54.5 31.5,54.5C 31.5,53.1667 31.5,51.8333 31.5,50.5 Z"/></g>
<g><path style="opacity:1" fill="#ededed" d="M 31.5,50.5 C 31.5,51.8333 31.5,53.1667 31.5,54.5C 30.1667,54.5 28.8333,54.5 27.5,54.5C 27.5,53.1667 27.5,51.8333 27.5,50.5C 28.8333,50.5 30.1667,50.5 31.5,50.5 Z"/></g>
<g><path style="opacity:1" fill="#e7e7e7" d="M 31.5,54.5 C 32.8333,54.5 34.1667,54.5 35.5,54.5C 35.5,55.8333 35.5,57.1667 35.5,58.5C 34.1667,58.5 32.8333,58.5 31.5,58.5C 31.5,57.1667 31.5,55.8333 31.5,54.5 Z"/></g>
<g><path style="opacity:1" fill="#080808" d="M 36.5,55.5 C 39.1667,55.5 41.8333,55.5 44.5,55.5C 44.5,56.5 44.5,57.5 44.5,58.5C 41.8333,58.5 39.1667,58.5 36.5,58.5C 36.5,57.5 36.5,56.5 36.5,55.5 Z"/></g>
<g><path style="opacity:1" fill="#989898" d="M 118.5,63.5 C 118.5,60.8333 118.5,58.1667 118.5,55.5C 115.833,55.5 113.167,55.5 110.5,55.5C 110.5,56.8333 110.5,58.1667 110.5,59.5C 107.287,59.81 104.287,59.4767 101.5,58.5C 104.167,58.5 106.833,58.5 109.5,58.5C 109.5,57.1667 109.5,55.8333 109.5,54.5C 112.833,54.5 116.167,54.5 119.5,54.5C 119.81,57.7131 119.477,60.7131 118.5,63.5 Z"/></g>
<g><path style="opacity:1" fill="#080808" d="M 5.5,59.5 C 6.83333,59.5 8.16667,59.5 9.5,59.5C 9.5,60.8333 9.5,62.1667 9.5,63.5C 11.1667,63.5 12.8333,63.5 14.5,63.5C 14.5,62.1667 14.5,60.8333 14.5,59.5C 17.1667,59.5 19.8333,59.5 22.5,59.5C 22.5,60.8333 22.5,62.1667 22.5,63.5C 21.1667,63.5 19.8333,63.5 18.5,63.5C 18.5,64.8333 18.5,66.1667 18.5,67.5C 17.1667,67.5 15.8333,67.5 14.5,67.5C 13.5655,68.5676 13.2322,69.901 13.5,71.5C 12.1667,71.5 10.8333,71.5 9.5,71.5C 9.5,72.8333 9.5,74.1667 9.5,75.5C 8.16667,75.5 6.83333,75.5 5.5,75.5C 5.5,70.1667 5.5,64.8333 5.5,59.5 Z"/></g>
<g><path style="opacity:1" fill="#c5c5c5" d="M 23.5,58.5 C 24.8333,58.5 26.1667,58.5 27.5,58.5C 27.5,60.1667 27.5,61.8333 27.5,63.5C 26.1667,63.5 24.8333,63.5 23.5,63.5C 23.5,61.8333 23.5,60.1667 23.5,58.5 Z"/></g>
<g><path style="opacity:1" fill="#030304" d="M 45.5,59.5 C 46.5,59.5 47.5,59.5 48.5,59.5C 48.5,60.5 48.5,61.5 48.5,62.5C 47.5,62.5 46.5,62.5 45.5,62.5C 45.5,61.5 45.5,60.5 45.5,59.5 Z"/></g>
<g><path style="opacity:1" fill="#ebebeb" d="M 22.5,63.5 C 22.5,64.8333 22.5,66.1667 22.5,67.5C 21.1667,67.5 19.8333,67.5 18.5,67.5C 18.5,66.1667 18.5,64.8333 18.5,63.5C 19.8333,63.5 21.1667,63.5 22.5,63.5 Z"/></g>
<g><path style="opacity:1" fill="#181818" d="M 23.5,63.5 C 24.8333,63.5 26.1667,63.5 27.5,63.5C 27.5,64.8333 27.5,66.1667 27.5,67.5C 26.1667,67.5 24.8333,67.5 23.5,67.5C 23.5,66.1667 23.5,64.8333 23.5,63.5 Z"/></g>
<g><path style="opacity:1" fill="#050505" d="M 49.5,68.5 C 50.5,68.5 51.5,68.5 52.5,68.5C 52.5,73.8333 52.5,79.1667 52.5,84.5C 51.5,84.5 50.5,84.5 49.5,84.5C 49.5,81.5 49.5,78.5 49.5,75.5C 48.1667,75.5 46.8333,75.5 45.5,75.5C 45.5,74.5 45.5,73.5 45.5,72.5C 46.8333,72.5 48.1667,72.5 49.5,72.5C 49.5,71.1667 49.5,69.8333 49.5,68.5 Z"/></g>
<g><path style="opacity:1" fill="#0d0d0d" d="M 101.5,63.5 C 102.833,63.5 104.167,63.5 105.5,63.5C 105.5,67.8333 105.5,72.1667 105.5,76.5C 107.167,76.5 108.833,76.5 110.5,76.5C 110.5,73.5 110.5,70.5 110.5,67.5C 111.833,67.5 113.167,67.5 114.5,67.5C 114.5,69.1667 114.5,70.8333 114.5,72.5C 115.833,72.5 117.167,72.5 118.5,72.5C 118.5,73.8333 118.5,75.1667 118.5,76.5C 120.167,76.5 121.833,76.5 123.5,76.5C 123.5,77.8333 123.5,79.1667 123.5,80.5C 127.833,80.5 132.167,80.5 136.5,80.5C 136.5,79.1667 136.5,77.8333 136.5,76.5C 134.052,75.5269 131.385,75.1936 128.5,75.5C 128.5,74.5 128.5,73.5 128.5,72.5C 129.833,72.5 131.167,72.5 132.5,72.5C 132.5,70.8333 132.5,69.1667 132.5,67.5C 133.833,67.5 135.167,67.5 136.5,67.5C 136.232,69.099 136.566,70.4324 137.5,71.5C 138.209,72.404 139.209,72.7373 140.5,72.5C 140.5,73.8333 140.5,75.1667 140.5,76.5C 143.5,76.5 146.5,76.5 149.5,76.5C 149.5,77.8333 149.5,79.1667 149.5,80.5C 148.167,80.5 146.833,80.5 145.5,80.5C 144.566,81.5676 144.232,82.901 144.5,84.5C 143.167,84.5 141.833,84.5 140.5,84.5C 140.5,87.8333 140.5,91.1667 140.5,94.5C 141.833,94.5 143.167,94.5 144.5,94.5C 144.5,96.8333 144.5,99.1667 144.5,101.5C 141.615,101.194 138.948,101.527 136.5,102.5C 136.5,103.833 136.5,105.167 136.5,106.5C 134.833,106.5 133.167,106.5 131.5,106.5C 131.177,112.69 131.51,118.69 132.5,124.5C 133.833,124.5 135.167,124.5 136.5,124.5C 137.473,122.052 137.806,119.385 137.5,116.5C 139.833,116.5 142.167,116.5 144.5,116.5C 144.5,117.5 144.5,118.5 144.5,119.5C 143.167,119.5 141.833,119.5 140.5,119.5C 140.5,121.167 140.5,122.833 140.5,124.5C 143.5,124.5 146.5,124.5 149.5,124.5C 149.5,131.833 149.5,139.167 149.5,146.5C 145.167,146.5 140.833,146.5 136.5,146.5C 136.5,147.833 136.5,149.167 136.5,150.5C 130.833,150.5 125.167,150.5 119.5,150.5C 119.5,147.833 119.5,145.167 119.5,142.5C 120.5,142.5 121.5,142.5 122.5,142.5C 122.5,143.833 122.5,145.167 122.5,146.5C 125.833,146.5 129.167,146.5 132.5,146.5C 132.5,144.833 132.5,143.167 132.5,141.5C 135.167,141.5 137.833,141.5 140.5,141.5C 141.404,140.791 141.737,139.791 141.5,138.5C 142.833,138.5 144.167,138.5 145.5,138.5C 145.5,136.5 145.5,134.5 145.5,132.5C 143.833,132.5 142.167,132.5 140.5,132.5C 140.5,134.167 140.5,135.833 140.5,137.5C 137.833,137.5 135.167,137.5 132.5,137.5C 131.566,138.568 131.232,139.901 131.5,141.5C 130.5,141.5 129.5,141.5 128.5,141.5C 128.5,138.5 128.5,135.5 128.5,132.5C 125.167,132.5 121.833,132.5 118.5,132.5C 118.5,133.833 118.5,135.167 118.5,136.5C 115.615,136.194 112.948,136.527 110.5,137.5C 110.5,138.833 110.5,140.167 110.5,141.5C 109.167,141.5 107.833,141.5 106.5,141.5C 105.549,142.919 105.216,144.585 105.5,146.5C 108.5,146.5 111.5,146.5 114.5,146.5C 114.5,147.833 114.5,149.167 114.5,150.5C 110.167,150.5 105.833,150.5 101.5,150.5C 101.5,144.833 101.5,139.167 101.5,133.5C 100.432,132.566 99.099,132.232 97.5,132.5C 97.5,131.167 97.5,129.833 97.5,128.5C 98.8333,128.5 100.167,128.5 101.5,128.5C 101.5,127.167 101.5,125.833 101.5,124.5C 102.833,124.5 104.167,124.5 105.5,124.5C 105.5,126.167 105.5,127.833 105.5,129.5C 107.167,129.5 108.833,129.5 110.5,129.5C 110.784,127.585 110.451,125.919 109.5,124.5C 108.5,124.5 107.5,124.5 106.5,124.5C 106.5,121.833 106.5,119.167 106.5,116.5C 108.099,116.768 109.432,116.434 110.5,115.5C 110.5,114.167 110.5,112.833 110.5,111.5C 113.385,111.806 116.052,111.473 118.5,110.5C 119.473,108.052 119.806,105.385 119.5,102.5C 120.833,102.5 122.167,102.5 123.5,102.5C 123.5,101.167 123.5,99.8333 123.5,98.5C 124.833,98.5 126.167,98.5 127.5,98.5C 128.434,97.4324 128.768,96.099 128.5,94.5C 129.833,94.5 131.167,94.5 132.5,94.5C 132.5,92.8333 132.5,91.1667 132.5,89.5C 133.833,89.5 135.167,89.5 136.5,89.5C 136.5,88.1667 136.5,86.8333 136.5,85.5C 133.713,84.5233 130.713,84.19 127.5,84.5C 127.5,87.5 127.5,90.5 127.5,93.5C 124.833,93.5 122.167,93.5 119.5,93.5C 119.5,92.1667 119.5,90.8333 119.5,89.5C 120.833,89.5 122.167,89.5 123.5,89.5C 123.5,88.1667 123.5,86.8333 123.5,85.5C 121.052,84.5269 118.385,84.1936 115.5,84.5C 115.768,82.901 115.434,81.5676 114.5,80.5C 113.167,80.5 111.833,80.5 110.5,80.5C 109.523,83.2869 109.19,86.2869 109.5,89.5C 108.167,89.5 106.833,89.5 105.5,89.5C 105.5,90.8333 105.5,92.1667 105.5,93.5C 104.5,93.5 103.5,93.5 102.5,93.5C 101.509,90.7559 101.843,88.0893 103.5,85.5C 106.084,84.9517 107.084,83.285 106.5,80.5C 105.5,80.5 104.5,80.5 103.5,80.5C 102.507,74.9161 101.841,69.2494 101.5,63.5 Z"/></g>
<g><path style="opacity:1" fill="#191919" d="M 18.5,67.5 C 19.8333,67.5 21.1667,67.5 22.5,67.5C 22.5,68.8333 22.5,70.1667 22.5,71.5C 21.1667,71.5 19.8333,71.5 18.5,71.5C 18.5,70.1667 18.5,68.8333 18.5,67.5 Z"/></g>
<g><path style="opacity:1" fill="#6b6b6b" d="M 14.5,67.5 C 14.5,69.1667 14.5,70.8333 14.5,72.5C 13.1667,72.5 11.8333,72.5 10.5,72.5C 10.5,73.8333 10.5,75.1667 10.5,76.5C 8.58533,76.7845 6.91866,76.4511 5.5,75.5C 6.83333,75.5 8.16667,75.5 9.5,75.5C 9.5,74.1667 9.5,72.8333 9.5,71.5C 10.8333,71.5 12.1667,71.5 13.5,71.5C 13.2322,69.901 13.5655,68.5676 14.5,67.5 Z"/></g>
<g><path style="opacity:1" fill="#313133" d="M 97.5,49.5 C 98.8333,49.5 100.167,49.5 101.5,49.5C 102.833,49.5 104.167,49.5 105.5,49.5C 104.432,50.4345 103.099,50.7678 101.5,50.5C 100.167,50.5 98.8333,50.5 97.5,50.5C 97.5,51.8333 97.5,53.1667 97.5,54.5C 96.0222,54.238 94.6888,54.5713 93.5,55.5C 96.5211,57.8544 99.1877,60.5211 101.5,63.5C 101.841,69.2494 102.507,74.9161 103.5,80.5C 102.167,82.1667 102.167,83.8333 103.5,85.5C 101.843,88.0893 101.509,90.7559 102.5,93.5C 98.3435,96.8105 94.0102,99.9772 89.5,103C 88.6634,104.011 88.33,105.178 88.5,106.5C 87.596,105.791 87.2627,104.791 87.5,103.5C 85.1667,103.5 82.8333,103.5 80.5,103.5C 80.5,104.5 80.5,105.5 80.5,106.5C 81.8333,106.5 83.1667,106.5 84.5,106.5C 84.5,107.833 84.5,109.167 84.5,110.5C 86.099,110.232 87.4324,110.566 88.5,111.5C 86.8333,111.5 85.1667,111.5 83.5,111.5C 83.5,110.167 83.5,108.833 83.5,107.5C 82.1667,107.5 80.8333,107.5 79.5,107.5C 79.5,106.167 79.5,104.833 79.5,103.5C 75.1667,103.5 70.8333,103.5 66.5,103.5C 66.5,104.5 66.5,105.5 66.5,106.5C 65.1667,106.5 63.8333,106.5 62.5,106.5C 63.0922,103.369 62.0922,101.036 59.5,99.5C 58.8333,98.1667 57.8333,97.1667 56.5,96.5C 56.1436,94.8102 55.1436,93.8102 53.5,93.5C 53.7678,91.901 53.4345,90.5676 52.5,89.5C 52.5,88.1667 52.5,86.8333 52.5,85.5C 52.5,85.1667 52.5,84.8333 52.5,84.5C 52.5,79.1667 52.5,73.8333 52.5,68.5C 51.5,68.5 50.5,68.5 49.5,68.5C 49.5,68.1667 49.5,67.8333 49.5,67.5C 50.8333,67.5 52.1667,67.5 53.5,67.5C 53.3069,64.5253 54.3069,62.0253 56.5,60C 55.2625,59.7679 54.2625,59.2679 53.5,58.5C 59.5,59.1667 62.1667,56.5 61.5,50.5C 61.8333,50.5 62.1667,50.5 62.5,50.5C 62.3398,52.1992 62.5065,53.8659 63,55.5C 64.0113,54.6634 65.1779,54.33 66.5,54.5C 66.5,53.1667 66.5,51.8333 66.5,50.5C 67.8333,50.5 69.1667,50.5 70.5,50.5C 70.2627,51.791 70.596,52.791 71.5,53.5C 74.1667,53.5 76.8333,53.5 79.5,53.5C 79.5,52.5 79.5,51.5 79.5,50.5C 82.5,50.5 85.5,50.5 88.5,50.5C 88.5,51.8333 88.5,53.1667 88.5,54.5C 89.8333,54.5 91.1667,54.5 92.5,54.5C 92.5,52.8333 92.5,51.1667 92.5,49.5C 94.1667,49.5 95.8333,49.5 97.5,49.5 Z"/></g>
<g><path style="opacity:1" fill="#f3f3f3" d="M 57.5,89.5 C 57.3018,81.4659 57.6351,73.4659 58.5,65.5C 60.7484,62.0839 63.7484,59.5839 67.5,58C 91.884,53.3858 102.051,63.2191 98,87.5C 96.2037,92.96 92.7037,96.7933 87.5,99C 80.5,99.6667 73.5,99.6667 66.5,99C 62.5915,96.5943 59.5915,93.4276 57.5,89.5 Z"/></g>
<g><path style="opacity:1" fill="#090909" d="M 69.5,68.5 C 75.8421,68.3338 82.1754,68.5005 88.5,69C 87.944,69.3826 87.6107,69.8826 87.5,70.5C 86.7095,71.4013 85.7095,72.0679 84.5,72.5C 78.642,72.8222 72.9753,72.4889 67.5,71.5C 68.1667,70.5 68.8333,69.5 69.5,68.5 Z"/></g>
<g><path style="opacity:1" fill="#959595" d="M 69.5,68.5 C 75.979,67.5093 82.6457,67.176 89.5,67.5C 89.7148,69.1788 89.0481,70.1788 87.5,70.5C 87.6107,69.8826 87.944,69.3826 88.5,69C 82.1754,68.5005 75.8421,68.3338 69.5,68.5 Z"/></g>
<g><path style="opacity:1" fill="#050506" d="M 93.5,50.5 C 94.5,50.5 95.5,50.5 96.5,50.5C 96.5,51.5 96.5,52.5 96.5,53.5C 95.5,53.5 94.5,53.5 93.5,53.5C 93.5,52.5 93.5,51.5 93.5,50.5 Z"/></g>
<g><path style="opacity:1" fill="#f0f0f0" d="M 79.5,50.5 C 79.5,51.5 79.5,52.5 79.5,53.5C 76.8333,53.5 74.1667,53.5 71.5,53.5C 71.5,52.5 71.5,51.5 71.5,50.5C 74.1667,50.5 76.8333,50.5 79.5,50.5 Z"/></g>
<g><path style="opacity:1" fill="#ababad" d="M 58.5,65.5 C 57.6351,73.4659 57.3018,81.4659 57.5,89.5C 56.3448,82.3451 56.1782,75.0118 57,67.5C 57.2784,66.5842 57.7784,65.9175 58.5,65.5 Z"/></g>
<g><path style="opacity:1" fill="#9b9b9b" d="M 105.5,63.5 C 106.483,67.2984 106.817,71.2984 106.5,75.5C 107.5,75.5 108.5,75.5 109.5,75.5C 109.194,72.6146 109.527,69.9479 110.5,67.5C 110.5,70.5 110.5,73.5 110.5,76.5C 108.833,76.5 107.167,76.5 105.5,76.5C 105.5,72.1667 105.5,67.8333 105.5,63.5 Z"/></g>
<g><path style="opacity:1" fill="#4a4a4a" d="M 67.5,71.5 C 72.9753,72.4889 78.642,72.8222 84.5,72.5C 78.6544,73.8166 72.6544,73.8166 66.5,72.5C 66.6236,71.8933 66.9569,71.56 67.5,71.5 Z"/></g>
<g><path style="opacity:1" fill="#afafaf" d="M 137.5,71.5 C 138.833,71.5 140.167,71.5 141.5,71.5C 141.5,72.8333 141.5,74.1667 141.5,75.5C 144.385,75.1936 147.052,75.5269 149.5,76.5C 146.5,76.5 143.5,76.5 140.5,76.5C 140.5,75.1667 140.5,73.8333 140.5,72.5C 139.209,72.7373 138.209,72.404 137.5,71.5 Z"/></g>
<g><path style="opacity:1" fill="#666666" d="M 85.5,76.5 C 79.31,76.1771 73.31,76.5104 67.5,77.5C 66.9569,77.44 66.6236,77.1067 66.5,76.5C 72.9883,75.1826 79.3217,75.1826 85.5,76.5 Z"/></g>
<g><path style="opacity:1" fill="#5b5b5b" d="M 132.5,67.5 C 132.5,69.1667 132.5,70.8333 132.5,72.5C 131.167,72.5 129.833,72.5 128.5,72.5C 128.5,73.5 128.5,74.5 128.5,75.5C 131.385,75.1936 134.052,75.5269 136.5,76.5C 133.5,76.5 130.5,76.5 127.5,76.5C 127.5,74.8333 127.5,73.1667 127.5,71.5C 128.833,71.5 130.167,71.5 131.5,71.5C 131.232,69.901 131.566,68.5676 132.5,67.5 Z"/></g>
<g><path style="opacity:1" fill="#181818" d="M 85.5,76.5 C 86.4756,77.8149 87.4756,79.1482 88.5,80.5C 82.5276,81.6636 76.5276,81.8303 70.5,81C 69.2899,79.9609 68.2899,78.7942 67.5,77.5C 73.31,76.5104 79.31,76.1771 85.5,76.5 Z"/></g>
<g><path style="opacity:1" fill="#131313" d="M 31.5,76.5 C 35.8333,76.5 40.1667,76.5 44.5,76.5C 44.5,77.8333 44.5,79.1667 44.5,80.5C 43.1667,80.5 41.8333,80.5 40.5,80.5C 40.5,81.8333 40.5,83.1667 40.5,84.5C 39.1667,84.5 37.8333,84.5 36.5,84.5C 36.5,83.1667 36.5,81.8333 36.5,80.5C 34.8333,80.5 33.1667,80.5 31.5,80.5C 31.5,79.1667 31.5,77.8333 31.5,76.5 Z"/></g>
<g><path style="opacity:1" fill="#131313" d="M 22.5,80.5 C 22.5,83.5 22.5,86.5 22.5,89.5C 24.1667,89.5 25.8333,89.5 27.5,89.5C 27.5,88.1667 27.5,86.8333 27.5,85.5C 30.1667,85.5 32.8333,85.5 35.5,85.5C 35.5,86.8333 35.5,88.1667 35.5,89.5C 34.1667,89.5 32.8333,89.5 31.5,89.5C 31.5,90.8333 31.5,92.1667 31.5,93.5C 27.1667,93.5 22.8333,93.5 18.5,93.5C 18.5,90.5 18.5,87.5 18.5,84.5C 17.1667,84.5 15.8333,84.5 14.5,84.5C 14.5,87.5 14.5,90.5 14.5,93.5C 13.1667,93.5 11.8333,93.5 10.5,93.5C 10.5,90.5 10.5,87.5 10.5,84.5C 8.83333,84.5 7.16667,84.5 5.5,84.5C 5.5,83.1667 5.5,81.8333 5.5,80.5C 11.1667,80.5 16.8333,80.5 22.5,80.5 Z"/></g>
<g><path style="opacity:1" fill="#e9e9e9" d="M 110.5,80.5 C 111.833,80.5 113.167,80.5 114.5,80.5C 114.5,82.1667 114.5,83.8333 114.5,85.5C 117.5,85.5 120.5,85.5 123.5,85.5C 123.5,86.8333 123.5,88.1667 123.5,89.5C 122.167,89.5 120.833,89.5 119.5,89.5C 119.5,90.8333 119.5,92.1667 119.5,93.5C 122.167,93.5 124.833,93.5 127.5,93.5C 127.5,95.1667 127.5,96.8333 127.5,98.5C 126.167,98.5 124.833,98.5 123.5,98.5C 122.596,99.209 122.263,100.209 122.5,101.5C 121.167,101.5 119.833,101.5 118.5,101.5C 118.5,104.5 118.5,107.5 118.5,110.5C 116.052,111.473 113.385,111.806 110.5,111.5C 110.5,112.833 110.5,114.167 110.5,115.5C 108.833,115.5 107.167,115.5 105.5,115.5C 105.5,118.5 105.5,121.5 105.5,124.5C 104.167,124.5 102.833,124.5 101.5,124.5C 101.5,125.833 101.5,127.167 101.5,128.5C 100.167,128.5 98.8333,128.5 97.5,128.5C 97.5,127.167 97.5,125.833 97.5,124.5C 95.8333,124.5 94.1667,124.5 92.5,124.5C 92.5,123.167 92.5,121.833 92.5,120.5C 91.1667,120.5 89.8333,120.5 88.5,120.5C 88.5,121.833 88.5,123.167 88.5,124.5C 85.5,124.5 82.5,124.5 79.5,124.5C 79.5,122.833 79.5,121.167 79.5,119.5C 82.5,119.5 85.5,119.5 88.5,119.5C 88.5,118.167 88.5,116.833 88.5,115.5C 89.8333,115.5 91.1667,115.5 92.5,115.5C 92.5,112.833 92.5,110.167 92.5,107.5C 95.5,107.5 98.5,107.5 101.5,107.5C 101.5,108.833 101.5,110.167 101.5,111.5C 103.099,111.768 104.432,111.434 105.5,110.5C 106.404,109.791 106.737,108.791 106.5,107.5C 107.833,107.5 109.167,107.5 110.5,107.5C 110.81,104.287 110.477,101.287 109.5,98.5C 105.5,98.5 101.5,98.5 97.5,98.5C 97.5,99.8333 97.5,101.167 97.5,102.5C 96.1667,102.5 94.8333,102.5 93.5,102.5C 92.5655,103.568 92.2322,104.901 92.5,106.5C 91.1667,106.5 89.8333,106.5 88.5,106.5C 88.33,105.178 88.6634,104.011 89.5,103C 94.0102,99.9772 98.3435,96.8105 102.5,93.5C 103.5,93.5 104.5,93.5 105.5,93.5C 105.5,92.1667 105.5,90.8333 105.5,89.5C 106.833,89.5 108.167,89.5 109.5,89.5C 109.5,90.8333 109.5,92.1667 109.5,93.5C 111.167,93.5 112.833,93.5 114.5,93.5C 114.5,92.1667 114.5,90.8333 114.5,89.5C 113.167,89.5 111.833,89.5 110.5,89.5C 110.5,86.5 110.5,83.5 110.5,80.5 Z"/></g>
<g><path style="opacity:1" fill="#b6b6b7" d="M 103.5,80.5 C 104.5,80.5 105.5,80.5 106.5,80.5C 107.084,83.285 106.084,84.9517 103.5,85.5C 102.167,83.8333 102.167,82.1667 103.5,80.5 Z"/></g>
<g><path style="opacity:1" fill="#464646" d="M 69.5,84.5 C 75.6783,83.1826 82.0117,83.1826 88.5,84.5C 88.3764,85.1067 88.0431,85.44 87.5,85.5C 81.69,84.5104 75.69,84.1771 69.5,84.5 Z"/></g>
<g><path style="opacity:1" fill="#848484" d="M 22.5,54.5 C 23.4345,55.5676 23.7678,56.901 23.5,58.5C 23.5,60.1667 23.5,61.8333 23.5,63.5C 23.5,64.8333 23.5,66.1667 23.5,67.5C 23.5,68.8333 23.5,70.1667 23.5,71.5C 24.5,71.5 25.5,71.5 26.5,71.5C 26.5,71.8333 26.5,72.1667 26.5,72.5C 25.5,72.5 24.5,72.5 23.5,72.5C 23.5,73.5 23.5,74.5 23.5,75.5C 26.1667,75.5 28.8333,75.5 31.5,75.5C 35.8333,75.5 40.1667,75.5 44.5,75.5C 44.5,74.1667 44.5,72.8333 44.5,71.5C 45.8333,71.5 47.1667,71.5 48.5,71.5C 48.2322,69.901 48.5655,68.5676 49.5,67.5C 49.5,67.8333 49.5,68.1667 49.5,68.5C 49.5,69.8333 49.5,71.1667 49.5,72.5C 48.1667,72.5 46.8333,72.5 45.5,72.5C 45.5,73.5 45.5,74.5 45.5,75.5C 46.8333,75.5 48.1667,75.5 49.5,75.5C 49.5,78.5 49.5,81.5 49.5,84.5C 50.5,84.5 51.5,84.5 52.5,84.5C 52.5,84.8333 52.5,85.1667 52.5,85.5C 51.5,85.5 50.5,85.5 49.5,85.5C 49.5,86.8333 49.5,88.1667 49.5,89.5C 48.5655,88.4324 48.2322,87.099 48.5,85.5C 45.8333,85.5 43.1667,85.5 40.5,85.5C 39.1667,85.5 37.8333,85.5 36.5,85.5C 36.7678,87.099 36.4345,88.4324 35.5,89.5C 35.5,88.1667 35.5,86.8333 35.5,85.5C 32.8333,85.5 30.1667,85.5 27.5,85.5C 27.5,86.8333 27.5,88.1667 27.5,89.5C 25.8333,89.5 24.1667,89.5 22.5,89.5C 22.5,86.5 22.5,83.5 22.5,80.5C 23.4731,82.9479 23.8064,85.6146 23.5,88.5C 24.5,88.5 25.5,88.5 26.5,88.5C 26.5,87.1667 26.5,85.8333 26.5,84.5C 29.5,84.5 32.5,84.5 35.5,84.5C 35.5,83.5 35.5,82.5 35.5,81.5C 33.901,81.7678 32.5676,81.4345 31.5,80.5C 33.1667,80.5 34.8333,80.5 36.5,80.5C 36.5,81.8333 36.5,83.1667 36.5,84.5C 37.8333,84.5 39.1667,84.5 40.5,84.5C 43.1667,84.5 45.8333,84.5 48.5,84.5C 48.5,81.8333 48.5,79.1667 48.5,76.5C 47.5,76.5 46.5,76.5 45.5,76.5C 45.7678,78.099 45.4345,79.4324 44.5,80.5C 44.5,79.1667 44.5,77.8333 44.5,76.5C 40.1667,76.5 35.8333,76.5 31.5,76.5C 28.5,76.5 25.5,76.5 22.5,76.5C 22.5,75.1667 22.5,73.8333 22.5,72.5C 20.901,72.7678 19.5676,72.4345 18.5,71.5C 19.8333,71.5 21.1667,71.5 22.5,71.5C 22.5,70.1667 22.5,68.8333 22.5,67.5C 22.5,66.1667 22.5,64.8333 22.5,63.5C 22.5,62.1667 22.5,60.8333 22.5,59.5C 19.8333,59.5 17.1667,59.5 14.5,59.5C 14.5,60.8333 14.5,62.1667 14.5,63.5C 12.8333,63.5 11.1667,63.5 9.5,63.5C 9.5,62.1667 9.5,60.8333 9.5,59.5C 8.16667,59.5 6.83333,59.5 5.5,59.5C 6.91866,58.5489 8.58533,58.2155 10.5,58.5C 10.5,59.8333 10.5,61.1667 10.5,62.5C 11.5,62.5 12.5,62.5 13.5,62.5C 13.5,61.1667 13.5,59.8333 13.5,58.5C 16.5,58.5 19.5,58.5 22.5,58.5C 22.5,57.1667 22.5,55.8333 22.5,54.5 Z"/></g>
<g><path style="opacity:1" fill="#f3f3f3" d="M 40.5,84.5 C 40.5,83.1667 40.5,81.8333 40.5,80.5C 41.8333,80.5 43.1667,80.5 44.5,80.5C 45.4345,79.4324 45.7678,78.099 45.5,76.5C 46.5,76.5 47.5,76.5 48.5,76.5C 48.5,79.1667 48.5,81.8333 48.5,84.5C 45.8333,84.5 43.1667,84.5 40.5,84.5 Z"/></g>
<g><path style="opacity:1" fill="#030303" d="M 31.5,72.5 C 31.5,73.5 31.5,74.5 31.5,75.5C 28.8333,75.5 26.1667,75.5 23.5,75.5C 23.5,74.5 23.5,73.5 23.5,72.5C 24.5,72.5 25.5,72.5 26.5,72.5C 28.1765,71.8166 28.8432,70.4832 28.5,68.5C 32.1667,68.5 35.8333,68.5 39.5,68.5C 39.5,69.5 39.5,70.5 39.5,71.5C 36.6146,71.1936 33.9479,71.5269 31.5,72.5 Z"/></g>
<g><path style="opacity:1" fill="#e5e5e5" d="M 23.5,67.5 C 24.8333,67.5 26.1667,67.5 27.5,67.5C 27.7678,69.099 27.4345,70.4324 26.5,71.5C 25.5,71.5 24.5,71.5 23.5,71.5C 23.5,70.1667 23.5,68.8333 23.5,67.5 Z"/></g>
<g><path style="opacity:1" fill="#3c3c3c" d="M 27.5,67.5 C 31.8333,67.5 36.1667,67.5 40.5,67.5C 40.5,69.1667 40.5,70.8333 40.5,72.5C 37.5,72.5 34.5,72.5 31.5,72.5C 33.9479,71.5269 36.6146,71.1936 39.5,71.5C 39.5,70.5 39.5,69.5 39.5,68.5C 35.8333,68.5 32.1667,68.5 28.5,68.5C 28.8432,70.4832 28.1765,71.8166 26.5,72.5C 26.5,72.1667 26.5,71.8333 26.5,71.5C 27.4345,70.4324 27.7678,69.099 27.5,67.5 Z"/></g>
<g><path style="opacity:1" fill="#0b0b0b" d="M 69.5,84.5 C 75.69,84.1771 81.69,84.5104 87.5,85.5C 87.0472,86.4584 86.3805,87.2917 85.5,88C 79.1667,88.6667 72.8333,88.6667 66.5,88C 67.1634,86.4815 68.1634,85.3149 69.5,84.5 Z"/></g>
<g><path style="opacity:1" fill="#747474" d="M 114.5,80.5 C 115.434,81.5676 115.768,82.901 115.5,84.5C 118.385,84.1936 121.052,84.5269 123.5,85.5C 120.5,85.5 117.5,85.5 114.5,85.5C 114.5,83.8333 114.5,82.1667 114.5,80.5 Z"/></g>
<g><path style="opacity:1" fill="#7e7e7e" d="M 5.5,84.5 C 7.16667,84.5 8.83333,84.5 10.5,84.5C 10.5,87.5 10.5,90.5 10.5,93.5C 11.8333,93.5 13.1667,93.5 14.5,93.5C 13.0813,94.4511 11.4147,94.7845 9.5,94.5C 9.5,91.5 9.5,88.5 9.5,85.5C 7.90097,85.7678 6.56764,85.4345 5.5,84.5 Z"/></g>
<g><path style="opacity:1" fill="#f2f2f2" d="M 40.5,85.5 C 40.5,86.8333 40.5,88.1667 40.5,89.5C 41.8333,89.5 43.1667,89.5 44.5,89.5C 44.5,92.5 44.5,95.5 44.5,98.5C 45.8333,98.5 47.1667,98.5 48.5,98.5C 48.5,99.8333 48.5,101.167 48.5,102.5C 51.8333,102.5 55.1667,102.5 58.5,102.5C 58.2627,101.209 58.596,100.209 59.5,99.5C 62.0922,101.036 63.0922,103.369 62.5,106.5C 59.2869,106.19 56.2869,106.523 53.5,107.5C 53.5,110.167 53.5,112.833 53.5,115.5C 52.1667,115.5 50.8333,115.5 49.5,115.5C 48.5655,116.568 48.2322,117.901 48.5,119.5C 47.5,119.5 46.5,119.5 45.5,119.5C 45.5,116.5 45.5,113.5 45.5,110.5C 43.8333,110.5 42.1667,110.5 40.5,110.5C 40.5,109.5 40.5,108.5 40.5,107.5C 42.099,107.768 43.4324,107.434 44.5,106.5C 44.5,105.167 44.5,103.833 44.5,102.5C 43.1667,102.5 41.8333,102.5 40.5,102.5C 40.5,103.833 40.5,105.167 40.5,106.5C 39.1667,106.5 37.8333,106.5 36.5,106.5C 36.7678,104.901 36.4345,103.568 35.5,102.5C 34.1667,102.5 32.8333,102.5 31.5,102.5C 31.5,101.167 31.5,99.8333 31.5,98.5C 34.5,98.5 37.5,98.5 40.5,98.5C 40.5,96.8333 40.5,95.1667 40.5,93.5C 37.5,93.5 34.5,93.5 31.5,93.5C 31.5,92.1667 31.5,90.8333 31.5,89.5C 32.8333,89.5 34.1667,89.5 35.5,89.5C 36.4345,88.4324 36.7678,87.099 36.5,85.5C 37.8333,85.5 39.1667,85.5 40.5,85.5 Z"/></g>
<g><path style="opacity:1" fill="#0c0c0d" d="M 40.5,85.5 C 43.1667,85.5 45.8333,85.5 48.5,85.5C 48.2322,87.099 48.5655,88.4324 49.5,89.5C 50.5,89.5 51.5,89.5 52.5,89.5C 53.4345,90.5676 53.7678,91.901 53.5,93.5C 52.1667,93.5 50.8333,93.5 49.5,93.5C 48.5655,94.5676 48.2322,95.901 48.5,97.5C 47.5,97.5 46.5,97.5 45.5,97.5C 45.8064,94.6146 45.4731,91.9479 44.5,89.5C 43.1667,89.5 41.8333,89.5 40.5,89.5C 40.5,88.1667 40.5,86.8333 40.5,85.5 Z"/></g>
<g><path style="opacity:1" fill="#f2f2f2" d="M 136.5,85.5 C 136.5,86.8333 136.5,88.1667 136.5,89.5C 135.167,89.5 133.833,89.5 132.5,89.5C 131.566,90.5676 131.232,91.901 131.5,93.5C 130.5,93.5 129.5,93.5 128.5,93.5C 128.5,90.8333 128.5,88.1667 128.5,85.5C 131.167,85.5 133.833,85.5 136.5,85.5 Z"/></g>
<g><path style="opacity:1" fill="#121212" d="M 149.5,85.5 C 149.5,86.8333 149.5,88.1667 149.5,89.5C 148.167,89.5 146.833,89.5 145.5,89.5C 145.5,88.1667 145.5,86.8333 145.5,85.5C 146.833,85.5 148.167,85.5 149.5,85.5 Z"/></g>
<g><path style="opacity:1" fill="#e0e0e0" d="M 52.5,85.5 C 52.5,86.8333 52.5,88.1667 52.5,89.5C 51.5,89.5 50.5,89.5 49.5,89.5C 49.5,88.1667 49.5,86.8333 49.5,85.5C 50.5,85.5 51.5,85.5 52.5,85.5 Z"/></g>
<g><path style="opacity:1" fill="#8c8c8c" d="M 136.5,85.5 C 133.833,85.5 131.167,85.5 128.5,85.5C 128.5,88.1667 128.5,90.8333 128.5,93.5C 129.5,93.5 130.5,93.5 131.5,93.5C 131.232,91.901 131.566,90.5676 132.5,89.5C 132.5,91.1667 132.5,92.8333 132.5,94.5C 131.167,94.5 129.833,94.5 128.5,94.5C 128.768,96.099 128.434,97.4324 127.5,98.5C 127.5,96.8333 127.5,95.1667 127.5,93.5C 127.5,90.5 127.5,87.5 127.5,84.5C 130.713,84.19 133.713,84.5233 136.5,85.5 Z"/></g>
<g><path style="opacity:1" fill="#2b2b2b" d="M 110.5,80.5 C 110.5,83.5 110.5,86.5 110.5,89.5C 111.833,89.5 113.167,89.5 114.5,89.5C 114.5,90.8333 114.5,92.1667 114.5,93.5C 112.833,93.5 111.167,93.5 109.5,93.5C 109.5,92.1667 109.5,90.8333 109.5,89.5C 109.19,86.2869 109.523,83.2869 110.5,80.5 Z"/></g>
<g><path style="opacity:1" fill="#e1e1e1" d="M 49.5,93.5 C 50.8333,93.5 52.1667,93.5 53.5,93.5C 55.1436,93.8102 56.1436,94.8102 56.5,96.5C 56.5,97.1667 56.5,97.8333 56.5,98.5C 54.1667,98.5 51.8333,98.5 49.5,98.5C 49.5,96.8333 49.5,95.1667 49.5,93.5 Z"/></g>
<g><path style="opacity:1" fill="#717171" d="M 145.5,80.5 C 145.5,81.8333 145.5,83.1667 145.5,84.5C 147.099,84.2322 148.432,84.5655 149.5,85.5C 148.167,85.5 146.833,85.5 145.5,85.5C 145.5,86.8333 145.5,88.1667 145.5,89.5C 144.566,88.4324 144.232,87.099 144.5,85.5C 143.5,85.5 142.5,85.5 141.5,85.5C 141.5,88.1667 141.5,90.8333 141.5,93.5C 142.833,93.5 144.167,93.5 145.5,93.5C 145.5,96.5 145.5,99.5 145.5,102.5C 145.5,103.833 145.5,105.167 145.5,106.5C 144.566,105.432 144.232,104.099 144.5,102.5C 141.833,102.5 139.167,102.5 136.5,102.5C 138.948,101.527 141.615,101.194 144.5,101.5C 144.5,99.1667 144.5,96.8333 144.5,94.5C 143.167,94.5 141.833,94.5 140.5,94.5C 140.5,91.1667 140.5,87.8333 140.5,84.5C 141.833,84.5 143.167,84.5 144.5,84.5C 144.232,82.901 144.566,81.5676 145.5,80.5 Z"/></g>
<g><path style="opacity:1" fill="#4d4d4d" d="M 31.5,93.5 C 34.5,93.5 37.5,93.5 40.5,93.5C 40.5,95.1667 40.5,96.8333 40.5,98.5C 37.5,98.5 34.5,98.5 31.5,98.5C 31.5,98.1667 31.5,97.8333 31.5,97.5C 31.5,96.1667 31.5,94.8333 31.5,93.5 Z"/></g>
<g><path style="opacity:1" fill="#030303" d="M 32.5,94.5 C 34.8333,94.5 37.1667,94.5 39.5,94.5C 39.5,95.5 39.5,96.5 39.5,97.5C 37.1667,97.5 34.8333,97.5 32.5,97.5C 32.5,96.5 32.5,95.5 32.5,94.5 Z"/></g>
<g><path style="opacity:1" fill="#0a0a0a" d="M 18.5,98.5 C 18.5,99.8333 18.5,101.167 18.5,102.5C 19.8333,102.5 21.1667,102.5 22.5,102.5C 22.5,103.833 22.5,105.167 22.5,106.5C 20.8333,106.5 19.1667,106.5 17.5,106.5C 17.5,107.833 17.5,109.167 17.5,110.5C 16.5,110.5 15.5,110.5 14.5,110.5C 14.5,107.833 14.5,105.167 14.5,102.5C 13.1667,102.5 11.8333,102.5 10.5,102.5C 9.52333,105.287 9.19,108.287 9.5,111.5C 10.8333,111.5 12.1667,111.5 13.5,111.5C 13.5,112.833 13.5,114.167 13.5,115.5C 10.8333,115.5 8.16667,115.5 5.5,115.5C 5.5,109.833 5.5,104.167 5.5,98.5C 9.83333,98.5 14.1667,98.5 18.5,98.5 Z"/></g>
<g><path style="opacity:1" fill="#111111" d="M 31.5,98.5 C 31.5,99.8333 31.5,101.167 31.5,102.5C 28.8333,102.5 26.1667,102.5 23.5,102.5C 23.5,101.167 23.5,99.8333 23.5,98.5C 26.1667,98.5 28.8333,98.5 31.5,98.5 Z"/></g>
<g><path style="opacity:1" fill="#0b0b0b" d="M 109.5,98.5 C 109.5,101.167 109.5,103.833 109.5,106.5C 108.5,106.5 107.5,106.5 106.5,106.5C 106.768,104.901 106.434,103.568 105.5,102.5C 104.167,102.5 102.833,102.5 101.5,102.5C 101.5,103.833 101.5,105.167 101.5,106.5C 98.8333,106.5 96.1667,106.5 93.5,106.5C 93.5,105.167 93.5,103.833 93.5,102.5C 94.8333,102.5 96.1667,102.5 97.5,102.5C 97.5,101.167 97.5,99.8333 97.5,98.5C 101.5,98.5 105.5,98.5 109.5,98.5 Z"/></g>
<g><path style="opacity:1" fill="#585858" d="M 44.5,89.5 C 45.4731,91.9479 45.8064,94.6146 45.5,97.5C 46.5,97.5 47.5,97.5 48.5,97.5C 48.2322,95.901 48.5655,94.5676 49.5,93.5C 49.5,95.1667 49.5,96.8333 49.5,98.5C 49.5,99.5 49.5,100.5 49.5,101.5C 52.1667,101.5 54.8333,101.5 57.5,101.5C 57.7373,100.209 57.404,99.209 56.5,98.5C 56.5,97.8333 56.5,97.1667 56.5,96.5C 57.8333,97.1667 58.8333,98.1667 59.5,99.5C 58.596,100.209 58.2627,101.209 58.5,102.5C 55.1667,102.5 51.8333,102.5 48.5,102.5C 48.5,101.167 48.5,99.8333 48.5,98.5C 47.1667,98.5 45.8333,98.5 44.5,98.5C 44.5,95.5 44.5,92.5 44.5,89.5 Z"/></g>
<g><path style="opacity:1" fill="#080808" d="M 49.5,98.5 C 51.8333,98.5 54.1667,98.5 56.5,98.5C 57.404,99.209 57.7373,100.209 57.5,101.5C 54.8333,101.5 52.1667,101.5 49.5,101.5C 49.5,100.5 49.5,99.5 49.5,98.5 Z"/></g>
<g><path style="opacity:1" fill="#a0a0a0" d="M 123.5,98.5 C 123.5,99.8333 123.5,101.167 123.5,102.5C 122.167,102.5 120.833,102.5 119.5,102.5C 119.806,105.385 119.473,108.052 118.5,110.5C 118.5,107.5 118.5,104.5 118.5,101.5C 119.833,101.5 121.167,101.5 122.5,101.5C 122.263,100.209 122.596,99.209 123.5,98.5 Z"/></g>
<g><path style="opacity:1" fill="#9c9c9c" d="M 31.5,97.5 C 31.5,97.8333 31.5,98.1667 31.5,98.5C 28.8333,98.5 26.1667,98.5 23.5,98.5C 23.5,99.8333 23.5,101.167 23.5,102.5C 23.7678,104.099 23.4345,105.432 22.5,106.5C 22.5,105.167 22.5,103.833 22.5,102.5C 21.1667,102.5 19.8333,102.5 18.5,102.5C 18.5,101.167 18.5,99.8333 18.5,98.5C 19.404,99.209 19.7373,100.209 19.5,101.5C 20.5,101.5 21.5,101.5 22.5,101.5C 22.5,100.167 22.5,98.8333 22.5,97.5C 25.5,97.5 28.5,97.5 31.5,97.5 Z"/></g>
<g><path style="opacity:1" fill="#151515" d="M 44.5,106.5 C 43.1667,106.5 41.8333,106.5 40.5,106.5C 40.5,105.167 40.5,103.833 40.5,102.5C 41.8333,102.5 43.1667,102.5 44.5,102.5C 44.5,103.833 44.5,105.167 44.5,106.5 Z"/></g>
<g><path style="opacity:1" fill="#070707" d="M 88.5,106.5 C 89.5676,107.434 90.901,107.768 92.5,107.5C 92.5,110.167 92.5,112.833 92.5,115.5C 91.1667,115.5 89.8333,115.5 88.5,115.5C 88.5,114.167 88.5,112.833 88.5,111.5C 87.4324,110.566 86.099,110.232 84.5,110.5C 84.5,109.167 84.5,107.833 84.5,106.5C 83.1667,106.5 81.8333,106.5 80.5,106.5C 80.5,105.5 80.5,104.5 80.5,103.5C 82.8333,103.5 85.1667,103.5 87.5,103.5C 87.2627,104.791 87.596,105.791 88.5,106.5 Z"/></g>
<g><path style="opacity:1" fill="#131313" d="M 145.5,102.5 C 146.833,102.5 148.167,102.5 149.5,102.5C 149.5,103.833 149.5,105.167 149.5,106.5C 148.167,106.5 146.833,106.5 145.5,106.5C 145.5,105.167 145.5,103.833 145.5,102.5 Z"/></g>
<g><path style="opacity:1" fill="#f3f3f3" d="M 88.5,111.5 C 88.5,112.833 88.5,114.167 88.5,115.5C 82.8333,115.5 77.1667,115.5 71.5,115.5C 71.5,119.833 71.5,124.167 71.5,128.5C 75.5,128.5 79.5,128.5 83.5,128.5C 83.5,129.833 83.5,131.167 83.5,132.5C 76.5,132.5 69.5,132.5 62.5,132.5C 62.5,128.167 62.5,123.833 62.5,119.5C 60.8333,119.5 59.1667,119.5 57.5,119.5C 57.5,121.167 57.5,122.833 57.5,124.5C 56.1667,124.5 54.8333,124.5 53.5,124.5C 53.5,121.5 53.5,118.5 53.5,115.5C 54.8333,115.5 56.1667,115.5 57.5,115.5C 57.5,114.167 57.5,112.833 57.5,111.5C 59.1667,111.5 60.8333,111.5 62.5,111.5C 62.5,110.167 62.5,108.833 62.5,107.5C 63.8333,107.5 65.1667,107.5 66.5,107.5C 66.5,108.5 66.5,109.5 66.5,110.5C 67.9187,111.451 69.5853,111.784 71.5,111.5C 71.5,109.833 71.5,108.167 71.5,106.5C 69.8333,106.5 68.1667,106.5 66.5,106.5C 66.5,105.5 66.5,104.5 66.5,103.5C 70.8333,103.5 75.1667,103.5 79.5,103.5C 79.5,104.833 79.5,106.167 79.5,107.5C 80.8333,107.5 82.1667,107.5 83.5,107.5C 83.5,108.833 83.5,110.167 83.5,111.5C 85.1667,111.5 86.8333,111.5 88.5,111.5 Z"/></g>
<g><path style="opacity:1" fill="#e8e8e8" d="M 123.5,102.5 C 124.833,102.5 126.167,102.5 127.5,102.5C 127.5,103.833 127.5,105.167 127.5,106.5C 126.167,106.5 124.833,106.5 123.5,106.5C 123.5,105.167 123.5,103.833 123.5,102.5 Z"/></g>
<g><path style="opacity:1" fill="#818181" d="M 10.5,102.5 C 10.5,105.167 10.5,107.833 10.5,110.5C 11.8333,110.5 13.1667,110.5 14.5,110.5C 15.5,110.5 16.5,110.5 17.5,110.5C 17.5,109.167 17.5,107.833 17.5,106.5C 19.1667,106.5 20.8333,106.5 22.5,106.5C 21.791,107.404 20.791,107.737 19.5,107.5C 19.5,108.5 19.5,109.5 19.5,110.5C 21.8333,110.5 24.1667,110.5 26.5,110.5C 26.5,109.167 26.5,107.833 26.5,106.5C 28.1667,106.5 29.8333,106.5 31.5,106.5C 32.8333,106.5 34.1667,106.5 35.5,106.5C 35.5,105.167 35.5,103.833 35.5,102.5C 36.4345,103.568 36.7678,104.901 36.5,106.5C 37.8333,106.5 39.1667,106.5 40.5,106.5C 41.8333,106.5 43.1667,106.5 44.5,106.5C 43.4324,107.434 42.099,107.768 40.5,107.5C 40.5,108.5 40.5,109.5 40.5,110.5C 42.1667,110.5 43.8333,110.5 45.5,110.5C 45.5,113.5 45.5,116.5 45.5,119.5C 46.5,119.5 47.5,119.5 48.5,119.5C 48.2322,117.901 48.5655,116.568 49.5,115.5C 49.5,117.167 49.5,118.833 49.5,120.5C 48.1667,120.5 46.8333,120.5 45.5,120.5C 45.7678,122.099 45.4345,123.432 44.5,124.5C 44.5,122.833 44.5,121.167 44.5,119.5C 44.5,116.833 44.5,114.167 44.5,111.5C 43.1667,111.5 41.8333,111.5 40.5,111.5C 39.1667,111.5 37.8333,111.5 36.5,111.5C 36.7678,113.099 36.4345,114.432 35.5,115.5C 35.5,114.167 35.5,112.833 35.5,111.5C 34.1667,111.5 32.8333,111.5 31.5,111.5C 30.1667,111.5 28.8333,111.5 27.5,111.5C 24.5,111.5 21.5,111.5 18.5,111.5C 17.1667,111.5 15.8333,111.5 14.5,111.5C 14.7678,113.099 14.4345,114.432 13.5,115.5C 13.5,114.167 13.5,112.833 13.5,111.5C 12.1667,111.5 10.8333,111.5 9.5,111.5C 9.19,108.287 9.52333,105.287 10.5,102.5 Z"/></g>
<g><path style="opacity:1" fill="#171717" d="M 31.5,102.5 C 32.8333,102.5 34.1667,102.5 35.5,102.5C 35.5,103.833 35.5,105.167 35.5,106.5C 34.1667,106.5 32.8333,106.5 31.5,106.5C 31.5,105.167 31.5,103.833 31.5,102.5 Z"/></g>
<g><path style="opacity:1" fill="#f6f6f6" d="M 23.5,102.5 C 26.1667,102.5 28.8333,102.5 31.5,102.5C 31.5,103.833 31.5,105.167 31.5,106.5C 29.8333,106.5 28.1667,106.5 26.5,106.5C 26.5,107.833 26.5,109.167 26.5,110.5C 24.1667,110.5 21.8333,110.5 19.5,110.5C 19.5,109.5 19.5,108.5 19.5,107.5C 20.791,107.737 21.791,107.404 22.5,106.5C 23.4345,105.432 23.7678,104.099 23.5,102.5 Z"/></g>
<g><path style="opacity:1" fill="#ececec" d="M 10.5,102.5 C 11.8333,102.5 13.1667,102.5 14.5,102.5C 14.5,105.167 14.5,107.833 14.5,110.5C 13.1667,110.5 11.8333,110.5 10.5,110.5C 10.5,107.833 10.5,105.167 10.5,102.5 Z"/></g>
<g><path style="opacity:1" fill="#717171" d="M 53.5,107.5 C 56.2869,106.523 59.2869,106.19 62.5,106.5C 63.8333,106.5 65.1667,106.5 66.5,106.5C 68.1667,106.5 69.8333,106.5 71.5,106.5C 71.5,108.167 71.5,109.833 71.5,111.5C 69.5853,111.784 67.9187,111.451 66.5,110.5C 67.8333,110.5 69.1667,110.5 70.5,110.5C 70.5,109.5 70.5,108.5 70.5,107.5C 69.1667,107.5 67.8333,107.5 66.5,107.5C 65.1667,107.5 63.8333,107.5 62.5,107.5C 62.5,108.833 62.5,110.167 62.5,111.5C 60.8333,111.5 59.1667,111.5 57.5,111.5C 58.5676,110.566 59.901,110.232 61.5,110.5C 61.5,109.5 61.5,108.5 61.5,107.5C 58.8333,107.5 56.1667,107.5 53.5,107.5 Z"/></g>
<g><path style="opacity:1" fill="#767676" d="M 109.5,98.5 C 110.477,101.287 110.81,104.287 110.5,107.5C 109.167,107.5 107.833,107.5 106.5,107.5C 106.737,108.791 106.404,109.791 105.5,110.5C 105.5,109.5 105.5,108.5 105.5,107.5C 104.167,107.5 102.833,107.5 101.5,107.5C 98.5,107.5 95.5,107.5 92.5,107.5C 90.901,107.768 89.5676,107.434 88.5,106.5C 89.8333,106.5 91.1667,106.5 92.5,106.5C 92.2322,104.901 92.5655,103.568 93.5,102.5C 93.5,103.833 93.5,105.167 93.5,106.5C 96.1667,106.5 98.8333,106.5 101.5,106.5C 102.833,106.5 104.167,106.5 105.5,106.5C 105.5,105.167 105.5,103.833 105.5,102.5C 106.434,103.568 106.768,104.901 106.5,106.5C 107.5,106.5 108.5,106.5 109.5,106.5C 109.5,103.833 109.5,101.167 109.5,98.5 Z"/></g>
<g><path style="opacity:1" fill="#eaeaea" d="M 105.5,102.5 C 105.5,103.833 105.5,105.167 105.5,106.5C 104.167,106.5 102.833,106.5 101.5,106.5C 101.5,105.167 101.5,103.833 101.5,102.5C 102.833,102.5 104.167,102.5 105.5,102.5 Z"/></g>
<g><path style="opacity:1" fill="#030303" d="M 31.5,107.5 C 31.5,108.5 31.5,109.5 31.5,110.5C 30.5,110.5 29.5,110.5 28.5,110.5C 28.5,109.5 28.5,108.5 28.5,107.5C 29.5,107.5 30.5,107.5 31.5,107.5 Z"/></g>
<g><path style="opacity:1" fill="#f2f2f2" d="M 31.5,107.5 C 32.8333,107.5 34.1667,107.5 35.5,107.5C 35.5,108.5 35.5,109.5 35.5,110.5C 34.1667,110.5 32.8333,110.5 31.5,110.5C 31.5,109.5 31.5,108.5 31.5,107.5 Z"/></g>
<g><path style="opacity:1" fill="#060606" d="M 36.5,107.5 C 37.5,107.5 38.5,107.5 39.5,107.5C 39.5,108.5 39.5,109.5 39.5,110.5C 38.5,110.5 37.5,110.5 36.5,110.5C 36.5,109.5 36.5,108.5 36.5,107.5 Z"/></g>
<g><path style="opacity:1" fill="#101010" d="M 53.5,107.5 C 56.1667,107.5 58.8333,107.5 61.5,107.5C 61.5,108.5 61.5,109.5 61.5,110.5C 59.901,110.232 58.5676,110.566 57.5,111.5C 57.5,112.833 57.5,114.167 57.5,115.5C 56.1667,115.5 54.8333,115.5 53.5,115.5C 53.5,112.833 53.5,110.167 53.5,107.5 Z"/></g>
<g><path style="opacity:1" fill="#0f0f0f" d="M 66.5,107.5 C 67.8333,107.5 69.1667,107.5 70.5,107.5C 70.5,108.5 70.5,109.5 70.5,110.5C 69.1667,110.5 67.8333,110.5 66.5,110.5C 66.5,109.5 66.5,108.5 66.5,107.5 Z"/></g>
<g><path style="opacity:1" fill="#080808" d="M 140.5,107.5 C 140.5,108.5 140.5,109.5 140.5,110.5C 139.5,110.5 138.5,110.5 137.5,110.5C 137.5,109.5 137.5,108.5 137.5,107.5C 138.5,107.5 139.5,107.5 140.5,107.5 Z"/></g>
<g><path style="opacity:1" fill="#222222" d="M 101.5,107.5 C 102.833,107.5 104.167,107.5 105.5,107.5C 105.5,108.5 105.5,109.5 105.5,110.5C 104.432,111.434 103.099,111.768 101.5,111.5C 101.5,110.167 101.5,108.833 101.5,107.5 Z"/></g>
<g><path style="opacity:1" fill="#1c1c1c" d="M 18.5,111.5 C 21.5,111.5 24.5,111.5 27.5,111.5C 27.5,112.833 27.5,114.167 27.5,115.5C 24.5,115.5 21.5,115.5 18.5,115.5C 18.5,114.167 18.5,112.833 18.5,111.5 Z"/></g>
<g><path style="opacity:1" fill="#161616" d="M 31.5,111.5 C 32.8333,111.5 34.1667,111.5 35.5,111.5C 35.5,112.833 35.5,114.167 35.5,115.5C 34.1667,115.5 32.8333,115.5 31.5,115.5C 31.5,114.167 31.5,112.833 31.5,111.5 Z"/></g>
<g><path style="opacity:1" fill="#6b6b6b" d="M 136.5,106.5 C 138.099,106.232 139.432,106.566 140.5,107.5C 139.5,107.5 138.5,107.5 137.5,107.5C 137.5,108.5 137.5,109.5 137.5,110.5C 138.5,110.5 139.5,110.5 140.5,110.5C 139.432,111.434 138.099,111.768 136.5,111.5C 136.5,110.167 136.5,108.833 136.5,107.5C 135.167,107.5 133.833,107.5 132.5,107.5C 132.5,113.167 132.5,118.833 132.5,124.5C 131.51,118.69 131.177,112.69 131.5,106.5C 133.167,106.5 134.833,106.5 136.5,106.5 Z"/></g>
<g><path style="opacity:1" fill="#0e0e0e" d="M 40.5,111.5 C 41.8333,111.5 43.1667,111.5 44.5,111.5C 44.5,114.167 44.5,116.833 44.5,119.5C 43.1667,119.5 41.8333,119.5 40.5,119.5C 40.5,116.833 40.5,114.167 40.5,111.5 Z"/></g>
<g><path style="opacity:1" fill="#101010" d="M 49.5,115.5 C 50.8333,115.5 52.1667,115.5 53.5,115.5C 53.5,118.5 53.5,121.5 53.5,124.5C 54.8333,124.5 56.1667,124.5 57.5,124.5C 58.4345,123.432 58.7678,122.099 58.5,120.5C 59.5,120.5 60.5,120.5 61.5,120.5C 61.1818,125.032 61.5151,129.366 62.5,133.5C 69.5,133.5 76.5,133.5 83.5,133.5C 83.2322,135.099 83.5655,136.432 84.5,137.5C 85.8333,137.5 87.1667,137.5 88.5,137.5C 88.5,136.167 88.5,134.833 88.5,133.5C 91.5,133.5 94.5,133.5 97.5,133.5C 97.5,139.167 97.5,144.833 97.5,150.5C 95.8333,150.5 94.1667,150.5 92.5,150.5C 92.5,147.5 92.5,144.5 92.5,141.5C 89.5,141.5 86.5,141.5 83.5,141.5C 83.5,144.5 83.5,147.5 83.5,150.5C 82.1667,150.5 80.8333,150.5 79.5,150.5C 79.5,147.5 79.5,144.5 79.5,141.5C 78.1667,141.5 76.8333,141.5 75.5,141.5C 74.5655,142.568 74.2322,143.901 74.5,145.5C 73.209,145.263 72.209,145.596 71.5,146.5C 71.5,147.833 71.5,149.167 71.5,150.5C 69.8333,150.5 68.1667,150.5 66.5,150.5C 66.5,149.167 66.5,147.833 66.5,146.5C 65.4324,145.566 64.099,145.232 62.5,145.5C 62.5,142.833 62.5,140.167 62.5,137.5C 60.8333,137.5 59.1667,137.5 57.5,137.5C 57.5,134.5 57.5,131.5 57.5,128.5C 56.1667,128.5 54.8333,128.5 53.5,128.5C 53.5,131.5 53.5,134.5 53.5,137.5C 52.1667,137.5 50.8333,137.5 49.5,137.5C 48.5269,139.948 48.1936,142.615 48.5,145.5C 45.8333,145.5 43.1667,145.5 40.5,145.5C 40.5,144.167 40.5,142.833 40.5,141.5C 41.8333,141.5 43.1667,141.5 44.5,141.5C 44.5,140.167 44.5,138.833 44.5,137.5C 43.1667,137.5 41.8333,137.5 40.5,137.5C 40.5,133.167 40.5,128.833 40.5,124.5C 41.8333,124.5 43.1667,124.5 44.5,124.5C 45.4345,123.432 45.7678,122.099 45.5,120.5C 46.8333,120.5 48.1667,120.5 49.5,120.5C 49.5,118.833 49.5,117.167 49.5,115.5 Z"/></g>
<g><path style="opacity:1" fill="#0e0e0e" d="M 88.5,115.5 C 88.5,116.833 88.5,118.167 88.5,119.5C 85.5,119.5 82.5,119.5 79.5,119.5C 79.5,121.167 79.5,122.833 79.5,124.5C 82.5,124.5 85.5,124.5 88.5,124.5C 88.5,123.167 88.5,121.833 88.5,120.5C 89.8333,120.5 91.1667,120.5 92.5,120.5C 92.5,121.833 92.5,123.167 92.5,124.5C 94.1667,124.5 95.8333,124.5 97.5,124.5C 97.5,125.833 97.5,127.167 97.5,128.5C 94.2869,128.19 91.2869,128.523 88.5,129.5C 88.5,130.5 88.5,131.5 88.5,132.5C 87.1667,132.5 85.8333,132.5 84.5,132.5C 84.7678,130.901 84.4345,129.568 83.5,128.5C 79.5,128.5 75.5,128.5 71.5,128.5C 71.5,124.167 71.5,119.833 71.5,115.5C 77.1667,115.5 82.8333,115.5 88.5,115.5 Z"/></g>
<g><path style="opacity:1" fill="#191919" d="M 97.5,115.5 C 98.8333,115.5 100.167,115.5 101.5,115.5C 101.5,116.833 101.5,118.167 101.5,119.5C 100.167,119.5 98.8333,119.5 97.5,119.5C 97.5,118.167 97.5,116.833 97.5,115.5 Z"/></g>
<g><path style="opacity:1" fill="#f2f2f2" d="M 114.5,115.5 C 118.833,115.5 123.167,115.5 127.5,115.5C 127.5,119.833 127.5,124.167 127.5,128.5C 123.167,128.5 118.833,128.5 114.5,128.5C 114.5,124.167 114.5,119.833 114.5,115.5 Z"/></g>
<g><path style="opacity:1" fill="#434343" d="M 144.5,119.5 C 144.5,118.5 144.5,117.5 144.5,116.5C 142.167,116.5 139.833,116.5 137.5,116.5C 137.806,119.385 137.473,122.052 136.5,124.5C 136.5,121.5 136.5,118.5 136.5,115.5C 139.5,115.5 142.5,115.5 145.5,115.5C 145.768,117.099 145.434,118.432 144.5,119.5 Z"/></g>
<g><path style="opacity:1" fill="#0a0a0a" d="M 5.5,120.5 C 15.5,120.5 25.5,120.5 35.5,120.5C 35.5,130.5 35.5,140.5 35.5,150.5C 35.5,140.5 35.5,130.5 35.5,120.5C 25.5,120.5 15.5,120.5 5.5,120.5 Z"/></g>
<g><path style="opacity:1" fill="#fcfcfc" d="M 80.5,120.5 C 82.8333,120.5 85.1667,120.5 87.5,120.5C 87.5,121.5 87.5,122.5 87.5,123.5C 85.1667,123.5 82.8333,123.5 80.5,123.5C 80.5,122.5 80.5,121.5 80.5,120.5 Z"/></g>
<g><path style="opacity:1" fill="#606060" d="M 118.5,119.5 C 120.167,119.5 121.833,119.5 123.5,119.5C 123.5,121.167 123.5,122.833 123.5,124.5C 121.833,124.5 120.167,124.5 118.5,124.5C 118.5,122.833 118.5,121.167 118.5,119.5 Z"/></g>
<g><path style="opacity:1" fill="#030303" d="M 119.5,120.5 C 120.5,120.5 121.5,120.5 122.5,120.5C 122.5,121.5 122.5,122.5 122.5,123.5C 121.5,123.5 120.5,123.5 119.5,123.5C 119.5,122.5 119.5,121.5 119.5,120.5 Z"/></g>
<g><path style="opacity:1" fill="#737373" d="M 5.5,120.5 C 15.6532,119.506 25.9865,119.172 36.5,119.5C 36.8276,130.014 36.4942,140.347 35.5,150.5C 35.5,140.5 35.5,130.5 35.5,120.5C 25.5,120.5 15.5,120.5 5.5,120.5 Z"/></g>
<g><path style="opacity:1" fill="#4a4a4a" d="M 62.5,132.5 C 62.5,132.833 62.5,133.167 62.5,133.5C 61.5151,129.366 61.1818,125.032 61.5,120.5C 60.5,120.5 59.5,120.5 58.5,120.5C 58.7678,122.099 58.4345,123.432 57.5,124.5C 57.5,122.833 57.5,121.167 57.5,119.5C 59.1667,119.5 60.8333,119.5 62.5,119.5C 62.5,123.833 62.5,128.167 62.5,132.5 Z"/></g>
<g><path style="opacity:1" fill="#f4f4f4" d="M 10.5,124.5 C 17.5,124.5 24.5,124.5 31.5,124.5C 31.5,131.5 31.5,138.5 31.5,145.5C 31.5,138.5 31.5,131.5 31.5,124.5C 24.5,124.5 17.5,124.5 10.5,124.5 Z"/></g>
<g><path style="opacity:1" fill="#696969" d="M 110.5,115.5 C 109.432,116.434 108.099,116.768 106.5,116.5C 106.5,119.167 106.5,121.833 106.5,124.5C 106.5,125.833 106.5,127.167 106.5,128.5C 107.5,128.5 108.5,128.5 109.5,128.5C 109.5,127.167 109.5,125.833 109.5,124.5C 110.451,125.919 110.784,127.585 110.5,129.5C 108.833,129.5 107.167,129.5 105.5,129.5C 105.5,127.833 105.5,126.167 105.5,124.5C 105.5,121.5 105.5,118.5 105.5,115.5C 107.167,115.5 108.833,115.5 110.5,115.5 Z"/></g>
<g><path style="opacity:1" fill="#f5f5f5" d="M 106.5,124.5 C 107.5,124.5 108.5,124.5 109.5,124.5C 109.5,125.833 109.5,127.167 109.5,128.5C 108.5,128.5 107.5,128.5 106.5,128.5C 106.5,127.167 106.5,125.833 106.5,124.5 Z"/></g>
<g><path style="opacity:1" fill="#010101" d="M 14.5,129.5 C 18.5,129.5 22.5,129.5 26.5,129.5C 26.5,133.5 26.5,137.5 26.5,141.5C 26.5,137.5 26.5,133.5 26.5,129.5C 22.5,129.5 18.5,129.5 14.5,129.5 Z"/></g>
<g><path style="opacity:1" fill="#e9e9e9" d="M 57.5,137.5 C 56.1667,137.5 54.8333,137.5 53.5,137.5C 53.5,134.5 53.5,131.5 53.5,128.5C 54.8333,128.5 56.1667,128.5 57.5,128.5C 57.5,131.5 57.5,134.5 57.5,137.5 Z"/></g>
<g><path style="opacity:1" fill="#505050" d="M 14.5,129.5 C 18.6344,128.515 22.9677,128.182 27.5,128.5C 27.8182,133.032 27.4849,137.366 26.5,141.5C 26.5,137.5 26.5,133.5 26.5,129.5C 22.5,129.5 18.5,129.5 14.5,129.5 Z"/></g>
<g><path style="opacity:1" fill="#8d8d8d" d="M 83.5,128.5 C 84.4345,129.568 84.7678,130.901 84.5,132.5C 85.8333,132.5 87.1667,132.5 88.5,132.5C 91.1667,132.5 93.8333,132.5 96.5,132.5C 96.5,131.5 96.5,130.5 96.5,129.5C 93.8333,129.5 91.1667,129.5 88.5,129.5C 91.2869,128.523 94.2869,128.19 97.5,128.5C 97.5,129.833 97.5,131.167 97.5,132.5C 99.099,132.232 100.432,132.566 101.5,133.5C 100.167,133.5 98.8333,133.5 97.5,133.5C 94.5,133.5 91.5,133.5 88.5,133.5C 87.1667,133.5 85.8333,133.5 84.5,133.5C 84.5,134.833 84.5,136.167 84.5,137.5C 83.5655,136.432 83.2322,135.099 83.5,133.5C 76.5,133.5 69.5,133.5 62.5,133.5C 62.5,133.167 62.5,132.833 62.5,132.5C 69.5,132.5 76.5,132.5 83.5,132.5C 83.5,131.167 83.5,129.833 83.5,128.5 Z"/></g>
<g><path style="opacity:1" fill="#f9f9f9" d="M 88.5,129.5 C 91.1667,129.5 93.8333,129.5 96.5,129.5C 96.5,130.5 96.5,131.5 96.5,132.5C 93.8333,132.5 91.1667,132.5 88.5,132.5C 88.5,131.5 88.5,130.5 88.5,129.5 Z"/></g>
<g><path style="opacity:1" fill="#898989" d="M 131.5,128.5 C 133.167,128.5 134.833,128.5 136.5,128.5C 136.5,130.167 136.5,131.833 136.5,133.5C 134.833,133.5 133.167,133.5 131.5,133.5C 131.5,131.833 131.5,130.167 131.5,128.5 Z"/></g>
<g><path style="opacity:1" fill="#fcfcfc" d="M 132.5,129.5 C 133.5,129.5 134.5,129.5 135.5,129.5C 135.5,130.5 135.5,131.5 135.5,132.5C 134.5,132.5 133.5,132.5 132.5,132.5C 132.5,131.5 132.5,130.5 132.5,129.5 Z"/></g>
<g><path style="opacity:1" fill="#e9e9e9" d="M 88.5,133.5 C 88.5,134.833 88.5,136.167 88.5,137.5C 87.1667,137.5 85.8333,137.5 84.5,137.5C 84.5,136.167 84.5,134.833 84.5,133.5C 85.8333,133.5 87.1667,133.5 88.5,133.5 Z"/></g>
<g><path style="opacity:1" fill="#777777" d="M 140.5,141.5 C 140.5,140.167 140.5,138.833 140.5,137.5C 140.5,135.833 140.5,134.167 140.5,132.5C 142.167,132.5 143.833,132.5 145.5,132.5C 145.5,134.5 145.5,136.5 145.5,138.5C 144.167,138.5 142.833,138.5 141.5,138.5C 141.737,139.791 141.404,140.791 140.5,141.5 Z"/></g>
<g><path style="opacity:1" fill="#fcfcfc" d="M 141.5,133.5 C 142.5,133.5 143.5,133.5 144.5,133.5C 144.5,134.5 144.5,135.5 144.5,136.5C 143.5,136.5 142.5,136.5 141.5,136.5C 141.5,135.5 141.5,134.5 141.5,133.5 Z"/></g>
<g><path style="opacity:1" fill="#1a1a1a" d="M 53.5,137.5 C 54.8333,137.5 56.1667,137.5 57.5,137.5C 57.5,138.833 57.5,140.167 57.5,141.5C 56.1667,141.5 54.8333,141.5 53.5,141.5C 53.5,140.167 53.5,138.833 53.5,137.5 Z"/></g>
<g><path style="opacity:1" fill="#d9d9d9" d="M 66.5,137.5 C 68.1667,137.5 69.8333,137.5 71.5,137.5C 71.5,138.833 71.5,140.167 71.5,141.5C 69.8333,141.5 68.1667,141.5 66.5,141.5C 66.5,140.167 66.5,138.833 66.5,137.5 Z"/></g>
<g><path style="opacity:1" fill="#f2f2f2" d="M 132.5,137.5 C 135.167,137.5 137.833,137.5 140.5,137.5C 140.5,138.833 140.5,140.167 140.5,141.5C 137.833,141.5 135.167,141.5 132.5,141.5C 132.5,140.167 132.5,138.833 132.5,137.5 Z"/></g>
<g><path style="opacity:1" fill="#525252" d="M 128.5,141.5 C 127.527,139.052 127.194,136.385 127.5,133.5C 124.833,133.5 122.167,133.5 119.5,133.5C 119.5,134.833 119.5,136.167 119.5,137.5C 116.5,137.5 113.5,137.5 110.5,137.5C 112.948,136.527 115.615,136.194 118.5,136.5C 118.5,135.167 118.5,133.833 118.5,132.5C 121.833,132.5 125.167,132.5 128.5,132.5C 128.5,135.5 128.5,138.5 128.5,141.5 Z"/></g>
<g><path style="opacity:1" fill="#959595" d="M 10.5,124.5 C 10.5,131.5 10.5,138.5 10.5,145.5C 17.5,145.5 24.5,145.5 31.5,145.5C 24.3524,146.492 17.0191,146.825 9.5,146.5C 9.17503,138.981 9.50837,131.648 10.5,124.5 Z"/></g>
<g><path style="opacity:1" fill="#727272" d="M 49.5,137.5 C 49.5,140.5 49.5,143.5 49.5,146.5C 46.2869,146.81 43.2869,146.477 40.5,145.5C 43.1667,145.5 45.8333,145.5 48.5,145.5C 48.1936,142.615 48.5269,139.948 49.5,137.5 Z"/></g>
<g><path style="opacity:1" fill="#6c6c6c" d="M 62.5,145.5 C 64.099,145.232 65.4324,145.566 66.5,146.5C 65.1667,146.5 63.8333,146.5 62.5,146.5C 62.7678,148.099 62.4345,149.432 61.5,150.5C 61.5,149.167 61.5,147.833 61.5,146.5C 60.5,146.5 59.5,146.5 58.5,146.5C 58.5,147.833 58.5,149.167 58.5,150.5C 57.5489,149.081 57.2155,147.415 57.5,145.5C 59.1667,145.5 60.8333,145.5 62.5,145.5 Z"/></g>
<g><path style="opacity:1" fill="#6a6a6a" d="M 75.5,141.5 C 75.5,143.167 75.5,144.833 75.5,146.5C 74.1667,146.5 72.8333,146.5 71.5,146.5C 72.209,145.596 73.209,145.263 74.5,145.5C 74.2322,143.901 74.5655,142.568 75.5,141.5 Z"/></g>
<g><path style="opacity:1" fill="#909090" d="M 106.5,141.5 C 106.5,142.833 106.5,144.167 106.5,145.5C 109.385,145.194 112.052,145.527 114.5,146.5C 111.5,146.5 108.5,146.5 105.5,146.5C 105.216,144.585 105.549,142.919 106.5,141.5 Z"/></g>
<g><path style="opacity:1" fill="#040404" d="M 61.5,150.5 C 60.5,150.5 59.5,150.5 58.5,150.5C 58.5,149.167 58.5,147.833 58.5,146.5C 59.5,146.5 60.5,146.5 61.5,146.5C 61.5,147.833 61.5,149.167 61.5,150.5 Z"/></g>
<g><path style="opacity:1" fill="#676767" d="M 132.5,137.5 C 132.5,138.833 132.5,140.167 132.5,141.5C 132.5,143.167 132.5,144.833 132.5,146.5C 129.167,146.5 125.833,146.5 122.5,146.5C 122.5,145.167 122.5,143.833 122.5,142.5C 121.5,142.5 120.5,142.5 119.5,142.5C 119.5,145.167 119.5,147.833 119.5,150.5C 118.523,147.713 118.19,144.713 118.5,141.5C 120.167,141.5 121.833,141.5 123.5,141.5C 123.5,142.833 123.5,144.167 123.5,145.5C 126.167,145.5 128.833,145.5 131.5,145.5C 131.5,144.167 131.5,142.833 131.5,141.5C 131.232,139.901 131.566,138.568 132.5,137.5 Z"/></g>
</svg>
