<?xml version="1.0" encoding="UTF-8"?>
<svg version="1.1" xmlns="http://www.w3.org/2000/svg" width="261" height="261">
<path d="M0 0 C1.09232941 0.00031723 1.09232941 0.00031723 2.20672607 0.00064087 C13.89481686 0.03447524 24.76728727 1.02992288 36 4.375 C37.23234375 4.70242187 38.4646875 5.02984375 39.734375 5.3671875 C56.33096531 10.24644259 71.94639629 19.09345808 85 30.375 C86.0003125 31.21417969 87.000625 32.05335937 88.03125 32.91796875 C108.99714508 50.95079371 123.15234097 76.46468284 129 103.375 C129.17660156 104.14505371 129.35320312 104.91510742 129.53515625 105.70849609 C131.24726959 113.89759535 131.39733381 122.04389795 131.375 130.375 C131.37478851 131.1032196 131.37457703 131.83143921 131.37435913 132.58172607 C131.34052476 144.26981686 130.34507712 155.14228727 127 166.375 C126.67257812 167.60734375 126.34515625 168.8396875 126.0078125 170.109375 C121.12855741 186.70596531 112.28154192 202.32139629 101 215.375 C99.74123047 216.87546875 99.74123047 216.87546875 98.45703125 218.40625 C80.42420629 239.37214508 54.91031716 253.52734097 28 259.375 C27.22994629 259.55160156 26.45989258 259.72820312 25.66650391 259.91015625 C17.47740465 261.62226959 9.33110205 261.77233381 1 261.75 C-0.09232941 261.74968277 -0.09232941 261.74968277 -1.20672607 261.74935913 C-12.89481686 261.71552476 -23.76728727 260.72007712 -35 257.375 C-36.23234375 257.04757812 -37.4646875 256.72015625 -38.734375 256.3828125 C-55.33096531 251.50355741 -70.94639629 242.65654192 -84 231.375 C-85.50046875 230.11623047 -85.50046875 230.11623047 -87.03125 228.83203125 C-107.99714508 210.79920629 -122.15234097 185.28531716 -128 158.375 C-128.26490234 157.21991943 -128.26490234 157.21991943 -128.53515625 156.04150391 C-130.24726959 147.85240465 -130.39733381 139.70610205 -130.375 131.375 C-130.37478851 130.6467804 -130.37457703 129.91856079 -130.37435913 129.16827393 C-130.34052476 117.48018314 -129.34507712 106.60771273 -126 95.375 C-125.67257813 94.14265625 -125.34515625 92.9103125 -125.0078125 91.640625 C-120.12855741 75.04403469 -111.28154192 59.42860371 -100 46.375 C-99.16082031 45.3746875 -98.32164063 44.374375 -97.45703125 43.34375 C-79.42420629 22.37785492 -53.91031716 8.22265903 -27 2.375 C-25.84491943 2.11009766 -25.84491943 2.11009766 -24.66650391 1.83984375 C-16.47740465 0.12773041 -8.33110205 -0.02233381 0 0 Z " fill="#F9F3FD" transform="translate(130,-0.375)"/>
<path d="M0 0 C2.3125 1.5 2.3125 1.5 4 4 C4.29076018 9.43879867 3.74415121 14.12733506 2.53125 19.4609375 C2.2975042 20.50391495 2.2975042 20.50391495 2.05903625 21.56796265 C1.54767553 23.83895094 1.02400444 26.1068989 0.5 28.375 C0.13698472 29.97544335 -0.22539092 31.5760319 -0.5871582 33.17675781 C-3.2151163 44.76097888 -5.94362167 56.32203296 -8.69390869 67.87774658 C-11.12799211 78.10634351 -13.40969417 88.35610757 -15.45385742 98.67089844 C-16.37137159 103.25305992 -17.47718598 107.57351517 -19 112 C-19.3184661 113.70354089 -19.61188038 115.41203757 -19.875 117.125 C-20.48846446 120.25838771 -20.95351766 121.93027649 -22.75 124.625 C-25.80358264 126.49107828 -27.44920195 126.43531418 -31 126 C-33.31876919 124.39922533 -35.20975969 122.89654397 -37.25 121 C-38.39486653 119.98328529 -39.54070912 118.96766866 -40.6875 117.953125 C-41.24824219 117.44974609 -41.80898437 116.94636719 -42.38671875 116.42773438 C-44.61369272 114.45688937 -46.92106233 112.59859427 -49.25 110.75 C-50.03632813 110.12351562 -50.82265625 109.49703125 -51.6328125 108.8515625 C-53.282924 107.56088122 -54.94544571 106.28597682 -56.6171875 105.0234375 C-57.44476563 104.39695312 -58.27234375 103.77046875 -59.125 103.125 C-59.87007813 102.57070312 -60.61515625 102.01640625 -61.3828125 101.4453125 C-61.91648437 100.96835938 -62.45015625 100.49140625 -63 100 C-63 99.34 -63 98.68 -63 98 C-66.03570697 98.67249266 -66.03570697 98.67249266 -67.16333008 100.73071289 C-67.52837646 101.4705542 -67.89342285 102.21039551 -68.26953125 102.97265625 C-68.68396484 103.79056641 -69.09839844 104.60847656 -69.52539062 105.45117188 C-70.16250977 106.7437793 -70.16250977 106.7437793 -70.8125 108.0625 C-77.59732843 121.76975868 -77.59732843 121.76975868 -82 126 C-85.875 126.5 -85.875 126.5 -89 126 C-93.22605396 118.4725086 -95.61146872 110.97641513 -97.6875 102.625 C-98.27091133 100.32454657 -98.85799677 98.02502097 -99.44921875 95.7265625 C-99.70018311 94.72189941 -99.95114746 93.71723633 -100.2097168 92.68212891 C-100.92573463 90.25204801 -101.82440689 88.23155162 -103 86 C-103.39960621 84.46948211 -103.75377548 82.92640559 -104.0625 81.375 C-104.53622974 79.01809665 -104.92328158 77.15343684 -106 75 C-108.65524102 74.21590409 -108.65524102 74.21590409 -111.9375 73.625 C-113.19175781 73.36847656 -114.44601563 73.11195313 -115.73828125 72.84765625 C-117.94490127 72.40654057 -120.15234719 71.97022377 -122.36083984 71.53857422 C-124.78518205 71.06013045 -127.20496369 70.56221251 -129.625 70.0625 C-130.39448975 69.91699707 -131.16397949 69.77149414 -131.95678711 69.62158203 C-136.38972601 68.69488648 -139.21694831 67.83745529 -142 64 C-142.625 60.5 -142.625 60.5 -142 57 C-138.46586272 53.81927645 -134.52136361 52.31882269 -130.10546875 50.76953125 C-128.01234289 50.00451122 -126.021936 49.12336752 -124 48.1875 C-119.84085918 46.30479082 -115.594309 44.7023216 -111.3125 43.125 C-104.90569929 40.76203832 -98.63525387 38.16924714 -92.375 35.4375 C-89.04761154 34.02027899 -85.69598264 32.7142859 -82.3125 31.4375 C-78.36190189 29.94293638 -74.51182998 28.35479793 -70.6875 26.5625 C-65.61242954 24.20542809 -60.42208721 22.23484184 -55.17773438 20.29663086 C-44.7327121 16.43368893 -34.44545851 12.20562638 -24.1875 7.875 C-22.96945679 7.36187256 -22.96945679 7.36187256 -21.72680664 6.83837891 C-18.39594926 5.4349412 -15.06687217 4.02873978 -11.74609375 2.6015625 C-10.88113281 2.23804687 -10.01617187 1.87453125 -9.125 1.5 C-8.07699219 1.05140625 -8.07699219 1.05140625 -7.0078125 0.59375 C-4.56082272 -0.12987344 -2.53946074 -0.19949937 0 0 Z " fill="#C99FEC" transform="translate(203,69)"/>
<path d="M0 0 C0.66 0.33 1.32 0.66 2 1 C1.34 1.99 0.68 2.98 0 4 C-0.66 4 -1.32 4 -2 4 C-2.22816406 4.53882812 -2.45632812 5.07765625 -2.69140625 5.6328125 C-4.39644737 8.71715554 -6.63038573 11.23544391 -8.9375 13.875 C-13.4431043 19.10986961 -17.77569351 24.44909258 -22.00683594 29.90771484 C-24.81301172 33.52038997 -27.71429564 37.02191188 -30.6875 40.5 C-35.66565984 46.51153236 -39.32774441 53.14578997 -43 60 C-43.66 60 -44.32 60 -45 60 C-45.98469803 56.62658906 -46.96176103 53.25101218 -47.9375 49.875 C-48.21529297 48.92367187 -48.49308594 47.97234375 -48.77929688 46.9921875 C-50.11839694 42.3456716 -51.36079453 37.80617783 -52 33 C-43.58353086 27.67023122 -35.16449912 22.3450339 -26.7109375 17.07421875 C-25.65777344 16.41752197 -24.60460937 15.7608252 -23.51953125 15.08422852 C-21.46821662 13.80613846 -19.41616701 12.52922707 -17.36328125 11.25366211 C-11.50475188 7.60341589 -5.71622579 3.86952726 0 0 Z " fill="#F6EEFC" transform="translate(164,107)"/>
<path d="M0 0 C0.66 0.33 1.32 0.66 2 1 C1.01 2.485 1.01 2.485 0 4 C-0.66 4 -1.32 4 -2 4 C-2.33 4.99 -2.66 5.98 -3 7 C-3.33 6.34 -3.66 5.68 -4 5 C-4.66 4.67 -5.32 4.34 -6 4 C-4.02 2.68 -2.04 1.36 0 0 Z " fill="#E9D5F8" transform="translate(164,107)"/>
</svg>
